%TF.GenerationSoftware,KiCad,Pcbnew,8.0.6*%
%TF.CreationDate,2024-11-08T17:15:17+01:00*%
%TF.ProjectId,kicad,6b696361-642e-46b6-9963-61645f706362,rev?*%
%TF.SameCoordinates,Original*%
%TF.FileFunction,Copper,L1,Top*%
%TF.FilePolarity,Positive*%
%FSLAX46Y46*%
G04 Gerber Fmt 4.6, Leading zero omitted, Abs format (unit mm)*
G04 Created by KiCad (PCBNEW 8.0.6) date 2024-11-08 17:15:17*
%MOMM*%
%LPD*%
G01*
G04 APERTURE LIST*
G04 Aperture macros list*
%AMRoundRect*
0 Rectangle with rounded corners*
0 $1 Rounding radius*
0 $2 $3 $4 $5 $6 $7 $8 $9 X,Y pos of 4 corners*
0 Add a 4 corners polygon primitive as box body*
4,1,4,$2,$3,$4,$5,$6,$7,$8,$9,$2,$3,0*
0 Add four circle primitives for the rounded corners*
1,1,$1+$1,$2,$3*
1,1,$1+$1,$4,$5*
1,1,$1+$1,$6,$7*
1,1,$1+$1,$8,$9*
0 Add four rect primitives between the rounded corners*
20,1,$1+$1,$2,$3,$4,$5,0*
20,1,$1+$1,$4,$5,$6,$7,0*
20,1,$1+$1,$6,$7,$8,$9,0*
20,1,$1+$1,$8,$9,$2,$3,0*%
G04 Aperture macros list end*
%TA.AperFunction,SMDPad,CuDef*%
%ADD10RoundRect,0.249999X-0.450001X-1.425001X0.450001X-1.425001X0.450001X1.425001X-0.450001X1.425001X0*%
%TD*%
%TA.AperFunction,SMDPad,CuDef*%
%ADD11R,2.000000X2.000000*%
%TD*%
%TA.AperFunction,SMDPad,CuDef*%
%ADD12RoundRect,0.249999X-1.425001X0.450001X-1.425001X-0.450001X1.425001X-0.450001X1.425001X0.450001X0*%
%TD*%
%TA.AperFunction,ComponentPad*%
%ADD13R,1.800000X1.800000*%
%TD*%
%TA.AperFunction,ComponentPad*%
%ADD14C,1.800000*%
%TD*%
%TA.AperFunction,SMDPad,CuDef*%
%ADD15RoundRect,0.249999X1.425001X-0.450001X1.425001X0.450001X-1.425001X0.450001X-1.425001X-0.450001X0*%
%TD*%
%TA.AperFunction,ComponentPad*%
%ADD16R,1.200000X1.200000*%
%TD*%
%TA.AperFunction,ComponentPad*%
%ADD17C,1.200000*%
%TD*%
%TA.AperFunction,SMDPad,CuDef*%
%ADD18RoundRect,0.375000X0.375000X-0.625000X0.375000X0.625000X-0.375000X0.625000X-0.375000X-0.625000X0*%
%TD*%
%TA.AperFunction,SMDPad,CuDef*%
%ADD19RoundRect,0.500000X1.400000X-0.500000X1.400000X0.500000X-1.400000X0.500000X-1.400000X-0.500000X0*%
%TD*%
%TA.AperFunction,SMDPad,CuDef*%
%ADD20R,1.000000X3.150000*%
%TD*%
%TA.AperFunction,SMDPad,CuDef*%
%ADD21R,2.500000X1.000000*%
%TD*%
%TA.AperFunction,SMDPad,CuDef*%
%ADD22R,1.000000X1.800000*%
%TD*%
%TA.AperFunction,ComponentPad*%
%ADD23R,1.600000X1.600000*%
%TD*%
%TA.AperFunction,ComponentPad*%
%ADD24C,1.600000*%
%TD*%
%TA.AperFunction,Conductor*%
%ADD25C,1.000000*%
%TD*%
G04 APERTURE END LIST*
D10*
%TO.P,R1,1*%
%TO.N,Net-(U1-VCC)*%
X109450000Y-92000000D03*
%TO.P,R1,2*%
%TO.N,Net-(U1-EN)*%
X115550000Y-92000000D03*
%TD*%
D11*
%TO.P,SDA1,1,1*%
%TO.N,Net-(U1-GPIO2)*%
X144500000Y-99000000D03*
%TD*%
%TO.P,GND2,1,1*%
%TO.N,-BATT*%
X109500000Y-87000000D03*
%TD*%
D12*
%TO.P,R2,1*%
%TO.N,Net-(U1-GPIO15)*%
X141500000Y-104450000D03*
%TO.P,R2,2*%
%TO.N,-BATT*%
X141500000Y-110550000D03*
%TD*%
D13*
%TO.P,D2,1,K*%
%TO.N,Net-(D2-K)*%
X119500000Y-97500000D03*
D14*
%TO.P,D2,2,A*%
%TO.N,Net-(D2-A)*%
X119500000Y-100040000D03*
%TD*%
D15*
%TO.P,R3,1*%
%TO.N,Net-(J1-Pin_1)*%
X145500000Y-110550000D03*
%TO.P,R3,2*%
%TO.N,Net-(U1-GPIO0)*%
X145500000Y-104450000D03*
%TD*%
D16*
%TO.P,C2,1*%
%TO.N,Net-(U1-VCC)*%
X119000000Y-114500000D03*
D17*
%TO.P,C2,2*%
%TO.N,-BATT*%
X117500000Y-114500000D03*
%TD*%
D18*
%TO.P,U2,1,GND*%
%TO.N,-BATT*%
X119200000Y-110650000D03*
%TO.P,U2,2,VO*%
%TO.N,Net-(U1-VCC)*%
X121500000Y-110649999D03*
D19*
X121500000Y-104350001D03*
D18*
%TO.P,U2,3,VI*%
%TO.N,+BATT*%
X123800000Y-110650000D03*
%TD*%
D11*
%TO.P,SCL1,1,1*%
%TO.N,Net-(U1-GPIO14)*%
X119000000Y-92000000D03*
%TD*%
D15*
%TO.P,R8,1*%
%TO.N,Net-(R6-Pad2)*%
X136500000Y-110550000D03*
%TO.P,R8,2*%
%TO.N,Net-(U1-GPIO10)*%
X136500000Y-104450000D03*
%TD*%
D11*
%TO.P,VCC2,1,1*%
%TO.N,Net-(U1-VCC)*%
X115000000Y-87000000D03*
%TD*%
%TO.P,GND1,1,1*%
%TO.N,-BATT*%
X109500000Y-80500000D03*
%TD*%
D20*
%TO.P,J2,1,Pin_1*%
%TO.N,RESET*%
X124420000Y-121025000D03*
%TO.P,J2,2,Pin_2*%
%TO.N,-BATT*%
X124420000Y-115975000D03*
%TO.P,J2,3,Pin_3*%
%TO.N,TX*%
X126960000Y-121025000D03*
%TO.P,J2,4,Pin_4*%
%TO.N,+BATT*%
X126960000Y-115975000D03*
%TO.P,J2,5,Pin_5*%
%TO.N,RX*%
X129500000Y-121025001D03*
%TO.P,J2,6,Pin_6*%
X129500000Y-115974999D03*
%TO.P,J2,7,Pin_7*%
%TO.N,+BATT*%
X132040000Y-121025000D03*
%TO.P,J2,8,Pin_8*%
%TO.N,TX*%
X132040000Y-115975000D03*
%TO.P,J2,9,Pin_9*%
%TO.N,-BATT*%
X134580000Y-121025000D03*
%TO.P,J2,10,Pin_10*%
%TO.N,RESET*%
X134580000Y-115975000D03*
%TD*%
D13*
%TO.P,D1,1,K*%
%TO.N,Net-(D1-K)*%
X112500000Y-97500000D03*
D14*
%TO.P,D1,2,A*%
%TO.N,Net-(D1-A)*%
X112500000Y-100040000D03*
%TD*%
D21*
%TO.P,U1,1,~{RST}*%
%TO.N,RESET*%
X124400000Y-85500000D03*
%TO.P,U1,2,ADC*%
%TO.N,Net-(U1-ADC)*%
X124400000Y-87500000D03*
%TO.P,U1,3,EN*%
%TO.N,Net-(U1-EN)*%
X124400000Y-89500000D03*
%TO.P,U1,4,GPIO16*%
%TO.N,unconnected-(U1-GPIO16-Pad4)*%
X124400000Y-91500000D03*
%TO.P,U1,5,GPIO14*%
%TO.N,Net-(U1-GPIO14)*%
X124400000Y-93500000D03*
%TO.P,U1,6,GPIO12*%
%TO.N,Net-(D1-K)*%
X124400000Y-95500000D03*
%TO.P,U1,7,GPIO13*%
%TO.N,Net-(D2-K)*%
X124400000Y-97500000D03*
%TO.P,U1,8,VCC*%
%TO.N,Net-(U1-VCC)*%
X124400000Y-99500000D03*
D22*
%TO.P,U1,9,CS0*%
%TO.N,unconnected-(U1-CS0-Pad9)*%
X127000000Y-101000000D03*
%TO.P,U1,10,MISO*%
%TO.N,unconnected-(U1-MISO-Pad10)*%
X129000000Y-101000000D03*
%TO.P,U1,11,GPIO9*%
%TO.N,unconnected-(U1-GPIO9-Pad11)*%
X131000000Y-101000000D03*
%TO.P,U1,12,GPIO10*%
%TO.N,Net-(U1-GPIO10)*%
X133000000Y-101000000D03*
%TO.P,U1,13,MOSI*%
%TO.N,unconnected-(U1-MOSI-Pad13)*%
X135000000Y-101000000D03*
%TO.P,U1,14,SCLK*%
%TO.N,unconnected-(U1-SCLK-Pad14)*%
X137000000Y-101000000D03*
D21*
%TO.P,U1,15,GND*%
%TO.N,-BATT*%
X139600000Y-99500000D03*
%TO.P,U1,16,GPIO15*%
%TO.N,Net-(U1-GPIO15)*%
X139600000Y-97500000D03*
%TO.P,U1,17,GPIO2*%
%TO.N,Net-(U1-GPIO2)*%
X139600000Y-95500000D03*
%TO.P,U1,18,GPIO0*%
%TO.N,Net-(U1-GPIO0)*%
X139600000Y-93500000D03*
%TO.P,U1,19,GPIO4*%
%TO.N,unconnected-(U1-GPIO4-Pad19)*%
X139600000Y-91500000D03*
%TO.P,U1,20,GPIO5*%
%TO.N,unconnected-(U1-GPIO5-Pad20)*%
X139600000Y-89500000D03*
%TO.P,U1,21,GPIO3/RXD*%
%TO.N,RX*%
X139600000Y-87500000D03*
%TO.P,U1,22,GPIO1/TXD*%
%TO.N,TX*%
X139600000Y-85500000D03*
%TD*%
D15*
%TO.P,R4,1*%
%TO.N,-BATT*%
X111000000Y-110550000D03*
%TO.P,R4,2*%
%TO.N,Net-(D1-A)*%
X111000000Y-104450000D03*
%TD*%
D23*
%TO.P,C1,1*%
%TO.N,+BATT*%
X114000000Y-118500000D03*
D24*
%TO.P,C1,2*%
%TO.N,-BATT*%
X110200000Y-118500000D03*
%TD*%
D11*
%TO.P,ADC1,1,1*%
%TO.N,Net-(U1-ADC)*%
X117500000Y-80500000D03*
%TD*%
D15*
%TO.P,R5,1*%
%TO.N,-BATT*%
X115500000Y-110550000D03*
%TO.P,R5,2*%
%TO.N,Net-(D2-A)*%
X115500000Y-104450000D03*
%TD*%
D11*
%TO.P,VCC1,1,1*%
%TO.N,Net-(U1-VCC)*%
X113500000Y-80500000D03*
%TD*%
D20*
%TO.P,J1,1,Pin_1*%
%TO.N,Net-(J1-Pin_1)*%
X143540000Y-115975000D03*
%TO.P,J1,2,Pin_2*%
%TO.N,-BATT*%
X141000000Y-115974999D03*
%TO.P,J1,3,Pin_3*%
X138460000Y-115975000D03*
%TO.P,J1,4,Pin_4*%
%TO.N,Net-(J1-Pin_1)*%
X143540000Y-121025000D03*
%TO.P,J1,5,Pin_5*%
%TO.N,-BATT*%
X141000000Y-121025001D03*
%TO.P,J1,6,Pin_6*%
X138460000Y-121025000D03*
%TD*%
D12*
%TO.P,R7,1*%
%TO.N,Net-(R6-Pad2)*%
X132000000Y-104450000D03*
%TO.P,R7,2*%
%TO.N,-BATT*%
X132000000Y-110550000D03*
%TD*%
D15*
%TO.P,R6,1*%
%TO.N,+BATT*%
X127500000Y-110550000D03*
%TO.P,R6,2*%
%TO.N,Net-(R6-Pad2)*%
X127500000Y-104450000D03*
%TD*%
D25*
%TO.N,Net-(U1-EN)*%
X115550000Y-92000000D02*
X118050000Y-89500000D01*
X118050000Y-89500000D02*
X124400000Y-89500000D01*
%TO.N,Net-(U1-GPIO15)*%
X142000000Y-103950000D02*
X142000000Y-97650000D01*
X141500000Y-104450000D02*
X142000000Y-103950000D01*
X142000000Y-97650000D02*
X141850000Y-97500000D01*
X141850000Y-97500000D02*
X139600000Y-97500000D01*
%TO.N,TX*%
X139600000Y-85500000D02*
X142121320Y-85500000D01*
X150000000Y-112621320D02*
X147500000Y-115121320D01*
X129500000Y-126000000D02*
X126960000Y-123460000D01*
X146121320Y-126000000D02*
X129500000Y-126000000D01*
X126960000Y-123460000D02*
X126960000Y-121025000D01*
X147500000Y-124621320D02*
X146121320Y-126000000D01*
X142121320Y-85500000D02*
X144500000Y-87878680D01*
X147500000Y-115121320D02*
X147500000Y-124621320D01*
X144500000Y-87878680D02*
X144500000Y-90757360D01*
X144500000Y-90757360D02*
X150000000Y-96257360D01*
X150000000Y-96257360D02*
X150000000Y-112621320D01*
%TO.N,Net-(U1-GPIO10)*%
X133949694Y-102750000D02*
X133750000Y-102750000D01*
X133750000Y-102750000D02*
X133000000Y-102000000D01*
X135649694Y-104450000D02*
X133949694Y-102750000D01*
X133000000Y-102000000D02*
X133000000Y-101000000D01*
X136500000Y-104450000D02*
X135649694Y-104450000D01*
%TO.N,RESET*%
X142000000Y-83000000D02*
X146000000Y-87000000D01*
X141000000Y-76000000D02*
X142000000Y-77000000D01*
X151500000Y-95636040D02*
X151500000Y-113242640D01*
X124420000Y-123420000D02*
X124420000Y-121025000D01*
X146000000Y-87000000D02*
X146000000Y-90136040D01*
X128500000Y-127500000D02*
X124420000Y-123420000D01*
X123500000Y-76000000D02*
X141000000Y-76000000D01*
X149000000Y-115742640D02*
X149000000Y-125242640D01*
X146742640Y-127500000D02*
X128500000Y-127500000D01*
X124400000Y-85500000D02*
X122500000Y-83600000D01*
X146000000Y-90136040D02*
X151500000Y-95636040D01*
X122500000Y-77000000D02*
X123500000Y-76000000D01*
X151500000Y-113242640D02*
X149000000Y-115742640D01*
X142000000Y-77000000D02*
X142000000Y-83000000D01*
X149000000Y-125242640D02*
X146742640Y-127500000D01*
X122500000Y-83600000D02*
X122500000Y-77000000D01*
%TO.N,RX*%
X146000000Y-124000000D02*
X145500000Y-124500000D01*
X143000000Y-91378680D02*
X148500000Y-96878680D01*
X148500000Y-96878680D02*
X148500000Y-112000000D01*
X145500000Y-124500000D02*
X130500000Y-124500000D01*
X146000000Y-114500000D02*
X146000000Y-124000000D01*
X130500000Y-124500000D02*
X129500000Y-123500000D01*
X143000000Y-88500000D02*
X143000000Y-91378680D01*
X142000000Y-87500000D02*
X143000000Y-88500000D01*
X139600000Y-87500000D02*
X142000000Y-87500000D01*
X148500000Y-112000000D02*
X146000000Y-114500000D01*
X129500000Y-123500000D02*
X129500000Y-121025001D01*
%TO.N,Net-(U1-GPIO0)*%
X147000000Y-97500000D02*
X143000000Y-93500000D01*
X147000000Y-102950000D02*
X147000000Y-97500000D01*
X143000000Y-93500000D02*
X139600000Y-93500000D01*
X145500000Y-104450000D02*
X147000000Y-102950000D01*
%TO.N,+BATT*%
X122000000Y-113500000D02*
X122000000Y-117000000D01*
X127500000Y-110550000D02*
X123900000Y-110550000D01*
X123800000Y-111700000D02*
X122000000Y-113500000D01*
X126960000Y-115975000D02*
X126960000Y-111090000D01*
X123800000Y-110650000D02*
X123800000Y-111700000D01*
X120500000Y-118500000D02*
X114000000Y-118500000D01*
X122000000Y-117000000D02*
X120500000Y-118500000D01*
X126960000Y-111090000D02*
X127500000Y-110550000D01*
X123900000Y-110550000D02*
X123800000Y-110650000D01*
%TO.N,Net-(D1-K)*%
X112500000Y-96000000D02*
X112500000Y-97500000D01*
X122000000Y-95000000D02*
X113500000Y-95000000D01*
X122500000Y-95500000D02*
X122000000Y-95000000D01*
X124400000Y-95500000D02*
X122500000Y-95500000D01*
X113500000Y-95000000D02*
X112500000Y-96000000D01*
%TO.N,Net-(D1-A)*%
X112500000Y-101500000D02*
X111000000Y-103000000D01*
X111000000Y-103000000D02*
X111000000Y-104450000D01*
X112500000Y-100040000D02*
X112500000Y-101500000D01*
%TO.N,Net-(D2-K)*%
X119500000Y-97500000D02*
X124400000Y-97500000D01*
%TO.N,Net-(D2-A)*%
X115500000Y-102500000D02*
X115500000Y-104450000D01*
X117960000Y-100040000D02*
X115500000Y-102500000D01*
X119500000Y-100040000D02*
X117960000Y-100040000D01*
%TO.N,Net-(J1-Pin_1)*%
X143540000Y-121025000D02*
X143540000Y-115975000D01*
X143540000Y-113960000D02*
X145500000Y-112000000D01*
X143540000Y-115975000D02*
X143540000Y-113960000D01*
X145500000Y-112000000D02*
X145500000Y-110550000D01*
%TO.N,Net-(U1-ADC)*%
X124400000Y-87500000D02*
X122650000Y-87500000D01*
X117500000Y-82350000D02*
X117500000Y-80500000D01*
X122650000Y-87500000D02*
X117500000Y-82350000D01*
%TO.N,Net-(U1-VCC)*%
X121500000Y-110649999D02*
X121500000Y-111878680D01*
X121500000Y-111878680D02*
X120500000Y-112878680D01*
X112000000Y-85000000D02*
X113500000Y-83500000D01*
X120500000Y-112878680D02*
X120500000Y-114378680D01*
X112000000Y-92000000D02*
X112000000Y-87000000D01*
X115000000Y-87439340D02*
X115000000Y-87000000D01*
X112000000Y-87000000D02*
X115000000Y-87000000D01*
X120500000Y-114378680D02*
X120378680Y-114500000D01*
X124400000Y-99500000D02*
X124400000Y-100950001D01*
X109500000Y-107500000D02*
X108325000Y-106325000D01*
X121500000Y-107500000D02*
X109500000Y-107500000D01*
X121500000Y-107000000D02*
X121500000Y-110649999D01*
X108325000Y-93125000D02*
X109450000Y-92000000D01*
X113500000Y-83500000D02*
X113500000Y-80500000D01*
X108325000Y-106325000D02*
X108325000Y-93125000D01*
X121500000Y-104350001D02*
X121500000Y-107000000D01*
X120378680Y-114500000D02*
X119100000Y-114500000D01*
X109450000Y-92000000D02*
X112000000Y-92000000D01*
X124400000Y-100950001D02*
X121500000Y-103850001D01*
X112000000Y-87000000D02*
X112000000Y-85000000D01*
X121500000Y-103850001D02*
X121500000Y-104350001D01*
%TO.N,Net-(U1-GPIO14)*%
X122650000Y-93500000D02*
X124400000Y-93500000D01*
X119000000Y-92000000D02*
X121150000Y-92000000D01*
X121150000Y-92000000D02*
X122650000Y-93500000D01*
%TO.N,Net-(U1-GPIO2)*%
X144500000Y-98000000D02*
X144500000Y-99000000D01*
X139600000Y-95500000D02*
X142000000Y-95500000D01*
X142000000Y-95500000D02*
X144500000Y-98000000D01*
%TO.N,Net-(R6-Pad2)*%
X132000000Y-104450000D02*
X132000000Y-106500000D01*
X127500000Y-104450000D02*
X132000000Y-104450000D01*
X133000000Y-107500000D02*
X135500000Y-107500000D01*
X135500000Y-107500000D02*
X136500000Y-108500000D01*
X136500000Y-108500000D02*
X136500000Y-110550000D01*
X132000000Y-106500000D02*
X133000000Y-107500000D01*
%TD*%
%TA.AperFunction,Conductor*%
%TO.N,-BATT*%
G36*
X123086881Y-75014852D02*
G01*
X123101233Y-75049500D01*
X123086881Y-75084148D01*
X123070984Y-75094770D01*
X123026091Y-75113365D01*
X123026087Y-75113367D01*
X123026086Y-75113368D01*
X122984431Y-75141200D01*
X122862219Y-75222859D01*
X121722860Y-76362218D01*
X121613366Y-76526089D01*
X121537949Y-76708163D01*
X121537947Y-76708172D01*
X121499500Y-76901455D01*
X121499500Y-83698544D01*
X121537947Y-83891827D01*
X121537949Y-83891836D01*
X121573610Y-83977929D01*
X121613368Y-84073914D01*
X121656043Y-84137781D01*
X121722860Y-84237781D01*
X121865008Y-84379929D01*
X121865014Y-84379934D01*
X122635148Y-85150068D01*
X122649500Y-85184716D01*
X122649500Y-85966284D01*
X122635148Y-86000932D01*
X122600500Y-86015284D01*
X122565852Y-86000932D01*
X118626092Y-82061172D01*
X118611740Y-82026524D01*
X118626092Y-81991876D01*
X118643613Y-81980615D01*
X118742331Y-81943796D01*
X118857546Y-81857546D01*
X118943796Y-81742331D01*
X118994091Y-81607483D01*
X118994091Y-81607481D01*
X118994092Y-81607479D01*
X119000499Y-81547879D01*
X119000500Y-81547873D01*
X119000499Y-79452128D01*
X119000499Y-79452127D01*
X119000499Y-79452120D01*
X118994092Y-79392521D01*
X118994091Y-79392517D01*
X118943796Y-79257669D01*
X118857546Y-79142454D01*
X118788314Y-79090627D01*
X118742333Y-79056205D01*
X118742331Y-79056204D01*
X118697381Y-79039439D01*
X118607479Y-79005907D01*
X118547879Y-78999500D01*
X116452120Y-78999500D01*
X116392521Y-79005907D01*
X116257666Y-79056205D01*
X116142454Y-79142454D01*
X116056205Y-79257666D01*
X116005907Y-79392520D01*
X115999500Y-79452120D01*
X115999500Y-81547879D01*
X116005907Y-81607478D01*
X116005909Y-81607483D01*
X116056204Y-81742331D01*
X116142454Y-81857546D01*
X116234934Y-81926776D01*
X116257074Y-81943351D01*
X116257669Y-81943796D01*
X116392517Y-81994091D01*
X116392520Y-81994092D01*
X116452124Y-82000500D01*
X116453110Y-82000553D01*
X116453254Y-82000621D01*
X116453432Y-82000641D01*
X116453425Y-82000703D01*
X116486945Y-82016729D01*
X116499500Y-82049483D01*
X116499500Y-82448544D01*
X116537947Y-82641827D01*
X116537949Y-82641835D01*
X116613368Y-82823914D01*
X116665183Y-82901460D01*
X116722860Y-82987781D01*
X116863924Y-83128845D01*
X116863934Y-83128854D01*
X121871617Y-88136537D01*
X121871646Y-88136568D01*
X121977170Y-88242091D01*
X122012218Y-88277139D01*
X122176086Y-88386632D01*
X122196118Y-88394929D01*
X122220985Y-88405230D01*
X122247504Y-88431749D01*
X122247504Y-88469251D01*
X122220985Y-88495770D01*
X122202234Y-88499500D01*
X117951455Y-88499500D01*
X117874280Y-88514852D01*
X117866186Y-88516462D01*
X117804519Y-88528728D01*
X117758166Y-88537948D01*
X117758156Y-88537951D01*
X117714092Y-88556204D01*
X117576089Y-88613366D01*
X117412218Y-88722860D01*
X117272858Y-88862221D01*
X116284792Y-89850286D01*
X116250144Y-89864638D01*
X116234731Y-89862151D01*
X116152795Y-89835000D01*
X116050012Y-89824500D01*
X116050010Y-89824500D01*
X115049990Y-89824500D01*
X115049988Y-89824500D01*
X114947204Y-89835000D01*
X114780664Y-89890186D01*
X114631344Y-89982287D01*
X114507287Y-90106344D01*
X114415186Y-90255664D01*
X114360000Y-90422204D01*
X114349500Y-90524987D01*
X114349500Y-93475012D01*
X114360000Y-93577795D01*
X114415186Y-93744335D01*
X114507287Y-93893655D01*
X114529484Y-93915852D01*
X114543836Y-93950500D01*
X114529484Y-93985148D01*
X114494836Y-93999500D01*
X113600971Y-93999500D01*
X113600951Y-93999499D01*
X113598541Y-93999499D01*
X113401460Y-93999499D01*
X113401454Y-93999499D01*
X113208176Y-94037945D01*
X113208157Y-94037950D01*
X113026091Y-94113365D01*
X113026087Y-94113367D01*
X113026086Y-94113368D01*
X112984431Y-94141200D01*
X112862219Y-94222859D01*
X111722860Y-95362218D01*
X111613366Y-95526089D01*
X111567103Y-95637780D01*
X111567103Y-95637781D01*
X111537950Y-95708160D01*
X111537946Y-95708173D01*
X111521305Y-95791836D01*
X111499500Y-95901453D01*
X111499500Y-96069282D01*
X111485148Y-96103930D01*
X111467624Y-96115192D01*
X111357671Y-96156202D01*
X111357667Y-96156204D01*
X111242454Y-96242454D01*
X111156205Y-96357666D01*
X111105907Y-96492520D01*
X111099500Y-96552120D01*
X111099500Y-98447879D01*
X111105907Y-98507478D01*
X111115193Y-98532376D01*
X111156204Y-98642331D01*
X111242454Y-98757546D01*
X111357669Y-98843796D01*
X111488592Y-98892627D01*
X111492520Y-98894092D01*
X111547392Y-98899991D01*
X111580308Y-98917964D01*
X111590874Y-98953947D01*
X111572901Y-98986863D01*
X111572253Y-98987377D01*
X111548217Y-99006086D01*
X111391017Y-99176851D01*
X111264081Y-99371141D01*
X111264074Y-99371153D01*
X111170844Y-99583695D01*
X111170843Y-99583699D01*
X111170843Y-99583700D01*
X111113866Y-99808695D01*
X111094700Y-100040000D01*
X111113866Y-100271305D01*
X111170843Y-100496300D01*
X111170844Y-100496304D01*
X111264074Y-100708846D01*
X111264081Y-100708858D01*
X111391017Y-100903148D01*
X111391019Y-100903150D01*
X111391021Y-100903153D01*
X111486551Y-101006927D01*
X111499500Y-101040113D01*
X111499500Y-101065283D01*
X111485148Y-101099931D01*
X110222860Y-102362218D01*
X110113366Y-102526089D01*
X110083357Y-102598540D01*
X110058660Y-102658164D01*
X110058660Y-102658165D01*
X110037948Y-102708166D01*
X110037946Y-102708173D01*
X109999500Y-102901453D01*
X109999500Y-103200500D01*
X109985148Y-103235148D01*
X109950500Y-103249500D01*
X109524988Y-103249500D01*
X109422201Y-103260001D01*
X109389911Y-103270700D01*
X109352508Y-103267974D01*
X109327987Y-103239598D01*
X109325500Y-103224187D01*
X109325500Y-94224500D01*
X109339852Y-94189852D01*
X109374500Y-94175500D01*
X109950012Y-94175500D01*
X109991125Y-94171299D01*
X110052798Y-94164999D01*
X110219335Y-94109814D01*
X110368656Y-94017712D01*
X110492712Y-93893656D01*
X110584814Y-93744335D01*
X110639999Y-93577798D01*
X110650500Y-93475010D01*
X110650500Y-93049500D01*
X110664852Y-93014852D01*
X110699500Y-93000500D01*
X112098541Y-93000500D01*
X112291835Y-92962051D01*
X112473914Y-92886632D01*
X112637782Y-92777139D01*
X112777139Y-92637782D01*
X112886632Y-92473914D01*
X112962051Y-92291835D01*
X113000500Y-92098541D01*
X113000500Y-88049500D01*
X113014852Y-88014852D01*
X113049500Y-88000500D01*
X113450518Y-88000500D01*
X113485166Y-88014852D01*
X113499307Y-88046573D01*
X113499360Y-88046568D01*
X113499377Y-88046730D01*
X113499448Y-88046889D01*
X113499500Y-88047877D01*
X113505907Y-88107478D01*
X113505909Y-88107483D01*
X113556114Y-88242091D01*
X113556205Y-88242333D01*
X113580720Y-88275080D01*
X113642454Y-88357546D01*
X113706152Y-88405230D01*
X113757074Y-88443351D01*
X113757669Y-88443796D01*
X113892517Y-88494091D01*
X113892520Y-88494092D01*
X113936177Y-88498785D01*
X113952127Y-88500500D01*
X116047872Y-88500499D01*
X116047878Y-88500499D01*
X116107478Y-88494092D01*
X116107479Y-88494091D01*
X116107483Y-88494091D01*
X116242331Y-88443796D01*
X116357546Y-88357546D01*
X116443796Y-88242331D01*
X116494091Y-88107483D01*
X116494091Y-88107481D01*
X116494092Y-88107479D01*
X116500499Y-88047879D01*
X116500500Y-88047873D01*
X116500499Y-85952128D01*
X116500499Y-85952124D01*
X116500499Y-85952120D01*
X116494092Y-85892521D01*
X116494091Y-85892517D01*
X116443796Y-85757669D01*
X116357546Y-85642454D01*
X116288314Y-85590627D01*
X116242333Y-85556205D01*
X116242331Y-85556204D01*
X116197381Y-85539439D01*
X116107479Y-85505907D01*
X116047879Y-85499500D01*
X113952120Y-85499500D01*
X113892521Y-85505907D01*
X113757666Y-85556205D01*
X113642454Y-85642454D01*
X113556205Y-85757666D01*
X113505907Y-85892520D01*
X113499499Y-85952124D01*
X113499447Y-85953110D01*
X113499378Y-85953254D01*
X113499359Y-85953432D01*
X113499296Y-85953425D01*
X113483271Y-85986945D01*
X113450517Y-85999500D01*
X113049500Y-85999500D01*
X113014852Y-85985148D01*
X113000500Y-85950500D01*
X113000500Y-85434716D01*
X113014852Y-85400068D01*
X113522403Y-84892517D01*
X114277139Y-84137782D01*
X114386631Y-83973915D01*
X114386632Y-83973914D01*
X114462051Y-83791835D01*
X114500500Y-83598541D01*
X114500500Y-82049482D01*
X114514852Y-82014834D01*
X114546573Y-82000692D01*
X114546568Y-82000640D01*
X114546730Y-82000622D01*
X114546889Y-82000552D01*
X114547877Y-82000499D01*
X114607478Y-81994092D01*
X114607479Y-81994091D01*
X114607483Y-81994091D01*
X114742331Y-81943796D01*
X114857546Y-81857546D01*
X114943796Y-81742331D01*
X114994091Y-81607483D01*
X114994091Y-81607481D01*
X114994092Y-81607479D01*
X115000499Y-81547879D01*
X115000500Y-81547873D01*
X115000499Y-79452128D01*
X115000499Y-79452127D01*
X115000499Y-79452120D01*
X114994092Y-79392521D01*
X114994091Y-79392517D01*
X114943796Y-79257669D01*
X114857546Y-79142454D01*
X114788314Y-79090627D01*
X114742333Y-79056205D01*
X114742331Y-79056204D01*
X114697381Y-79039439D01*
X114607479Y-79005907D01*
X114547879Y-78999500D01*
X112452120Y-78999500D01*
X112392521Y-79005907D01*
X112257666Y-79056205D01*
X112142454Y-79142454D01*
X112056205Y-79257666D01*
X112005907Y-79392520D01*
X111999500Y-79452120D01*
X111999500Y-81547879D01*
X112005907Y-81607478D01*
X112005909Y-81607483D01*
X112056204Y-81742331D01*
X112142454Y-81857546D01*
X112234934Y-81926776D01*
X112257074Y-81943351D01*
X112257669Y-81943796D01*
X112392517Y-81994091D01*
X112392520Y-81994092D01*
X112452124Y-82000500D01*
X112453110Y-82000553D01*
X112453254Y-82000621D01*
X112453432Y-82000641D01*
X112453425Y-82000703D01*
X112486945Y-82016729D01*
X112499500Y-82049483D01*
X112499500Y-83065283D01*
X112485148Y-83099931D01*
X111222860Y-84362218D01*
X111113366Y-84526089D01*
X111037949Y-84708163D01*
X111037947Y-84708172D01*
X110999500Y-84901455D01*
X110999500Y-85685693D01*
X110985148Y-85720341D01*
X110950500Y-85734693D01*
X110915852Y-85720341D01*
X110911274Y-85715058D01*
X110857188Y-85642811D01*
X110742091Y-85556648D01*
X110607373Y-85506401D01*
X110547834Y-85500000D01*
X109750000Y-85500000D01*
X109750000Y-88500000D01*
X110547834Y-88500000D01*
X110607372Y-88493598D01*
X110607373Y-88493598D01*
X110742091Y-88443351D01*
X110857188Y-88357188D01*
X110911274Y-88284941D01*
X110943527Y-88265805D01*
X110979865Y-88275080D01*
X110999001Y-88307333D01*
X110999500Y-88314306D01*
X110999500Y-90950500D01*
X110985148Y-90985148D01*
X110950500Y-90999500D01*
X110699500Y-90999500D01*
X110664852Y-90985148D01*
X110650500Y-90950500D01*
X110650500Y-90524987D01*
X110643257Y-90454089D01*
X110639999Y-90422202D01*
X110584814Y-90255665D01*
X110492712Y-90106344D01*
X110368656Y-89982288D01*
X110368655Y-89982287D01*
X110219335Y-89890186D01*
X110052795Y-89835000D01*
X109950012Y-89824500D01*
X109950010Y-89824500D01*
X108949990Y-89824500D01*
X108949988Y-89824500D01*
X108847204Y-89835000D01*
X108680664Y-89890186D01*
X108531344Y-89982287D01*
X108407287Y-90106344D01*
X108315186Y-90255664D01*
X108260000Y-90422204D01*
X108249500Y-90524987D01*
X108249500Y-91765283D01*
X108235148Y-91799931D01*
X107547860Y-92487218D01*
X107438366Y-92651089D01*
X107362949Y-92833163D01*
X107362947Y-92833172D01*
X107324500Y-93026455D01*
X107324500Y-93026459D01*
X107324500Y-106226460D01*
X107324500Y-106423540D01*
X107343433Y-106518724D01*
X107362257Y-106613360D01*
X107362949Y-106616836D01*
X107362950Y-106616840D01*
X107435436Y-106791836D01*
X107438368Y-106798914D01*
X107480668Y-106862220D01*
X107547860Y-106962781D01*
X107688924Y-107103845D01*
X107688934Y-107103854D01*
X108721617Y-108136537D01*
X108721646Y-108136568D01*
X108793236Y-108208157D01*
X108862218Y-108277139D01*
X109026086Y-108386632D01*
X109154834Y-108439961D01*
X109208164Y-108462051D01*
X109208170Y-108462052D01*
X109208173Y-108462053D01*
X109304801Y-108481273D01*
X109304806Y-108481273D01*
X109304812Y-108481275D01*
X109401459Y-108500500D01*
X109401460Y-108500500D01*
X109598540Y-108500500D01*
X120450500Y-108500500D01*
X120485148Y-108514852D01*
X120499500Y-108549500D01*
X120499500Y-109388480D01*
X120488691Y-109419179D01*
X120387870Y-109544606D01*
X120354977Y-109562620D01*
X120318980Y-109552098D01*
X120311488Y-109544606D01*
X120197367Y-109402632D01*
X120049029Y-109283395D01*
X120049028Y-109283394D01*
X119878522Y-109198831D01*
X119693817Y-109152896D01*
X119651096Y-109150000D01*
X119450000Y-109150000D01*
X119450000Y-112150000D01*
X119651095Y-112150000D01*
X119695253Y-112147005D01*
X119730793Y-112158980D01*
X119747457Y-112192577D01*
X119735482Y-112228117D01*
X119733219Y-112230540D01*
X119722859Y-112240900D01*
X119613366Y-112404769D01*
X119537949Y-112586843D01*
X119537947Y-112586852D01*
X119499500Y-112780135D01*
X119499500Y-113350500D01*
X119485148Y-113385148D01*
X119450500Y-113399500D01*
X118352120Y-113399500D01*
X118292521Y-113405907D01*
X118157669Y-113456204D01*
X118069473Y-113522227D01*
X118033134Y-113531501D01*
X118014313Y-113524661D01*
X117992410Y-113511099D01*
X117802325Y-113437461D01*
X117601928Y-113400000D01*
X117398072Y-113400000D01*
X117197674Y-113437461D01*
X117007589Y-113511099D01*
X116919312Y-113565757D01*
X116919312Y-113565758D01*
X117500000Y-114146447D01*
X117558698Y-114205145D01*
X117539496Y-114200000D01*
X117460504Y-114200000D01*
X117384204Y-114220444D01*
X117315795Y-114259940D01*
X117259940Y-114315795D01*
X117220444Y-114384204D01*
X117200000Y-114460504D01*
X117200000Y-114539496D01*
X117220444Y-114615796D01*
X117259940Y-114684205D01*
X117315795Y-114740060D01*
X117384204Y-114779556D01*
X117460504Y-114800000D01*
X117539496Y-114800000D01*
X117558697Y-114794855D01*
X116919312Y-115434240D01*
X116919312Y-115434241D01*
X117007590Y-115488900D01*
X117197674Y-115562538D01*
X117398072Y-115600000D01*
X117601928Y-115600000D01*
X117802325Y-115562538D01*
X117992409Y-115488900D01*
X117992415Y-115488897D01*
X118014310Y-115475339D01*
X118051323Y-115469299D01*
X118069471Y-115477771D01*
X118157669Y-115543796D01*
X118292517Y-115594091D01*
X118292520Y-115594092D01*
X118336177Y-115598785D01*
X118352127Y-115600500D01*
X119647872Y-115600499D01*
X119647878Y-115600499D01*
X119707478Y-115594092D01*
X119707479Y-115594091D01*
X119707483Y-115594091D01*
X119842331Y-115543796D01*
X119887111Y-115510274D01*
X119916476Y-115500500D01*
X120477221Y-115500500D01*
X120573868Y-115481275D01*
X120573869Y-115481275D01*
X120606681Y-115474748D01*
X120670516Y-115462051D01*
X120723845Y-115439961D01*
X120852594Y-115386632D01*
X120923278Y-115339401D01*
X120960059Y-115332085D01*
X120991242Y-115352921D01*
X120999500Y-115380144D01*
X120999500Y-116565283D01*
X120985148Y-116599931D01*
X120099932Y-117485148D01*
X120065284Y-117499500D01*
X115293420Y-117499500D01*
X115258772Y-117485148D01*
X115247510Y-117467625D01*
X115243796Y-117457670D01*
X115243795Y-117457667D01*
X115178070Y-117369871D01*
X115157546Y-117342454D01*
X115088314Y-117290627D01*
X115042333Y-117256205D01*
X115042331Y-117256204D01*
X114997381Y-117239439D01*
X114907479Y-117205907D01*
X114847879Y-117199500D01*
X113152120Y-117199500D01*
X113092521Y-117205907D01*
X112957666Y-117256205D01*
X112842454Y-117342454D01*
X112756205Y-117457666D01*
X112705907Y-117592520D01*
X112699500Y-117652120D01*
X112699500Y-119347879D01*
X112705907Y-119407478D01*
X112705909Y-119407483D01*
X112756204Y-119542331D01*
X112842454Y-119657546D01*
X112957669Y-119743796D01*
X113092517Y-119794091D01*
X113092520Y-119794092D01*
X113136177Y-119798785D01*
X113152127Y-119800500D01*
X114847872Y-119800499D01*
X114847878Y-119800499D01*
X114907478Y-119794092D01*
X114907479Y-119794091D01*
X114907483Y-119794091D01*
X115042331Y-119743796D01*
X115157546Y-119657546D01*
X115243796Y-119542331D01*
X115245793Y-119536976D01*
X115247510Y-119532375D01*
X115273066Y-119504927D01*
X115293420Y-119500500D01*
X120598541Y-119500500D01*
X120695188Y-119481275D01*
X120695189Y-119481275D01*
X120728001Y-119474748D01*
X120791836Y-119462051D01*
X120845165Y-119439961D01*
X120973914Y-119386632D01*
X121137782Y-119277139D01*
X121277139Y-119137782D01*
X121277139Y-119137780D01*
X121281168Y-119133752D01*
X121281171Y-119133747D01*
X122777139Y-117637782D01*
X122803831Y-117597834D01*
X123420000Y-117597834D01*
X123426401Y-117657372D01*
X123426401Y-117657373D01*
X123476648Y-117792091D01*
X123562811Y-117907188D01*
X123677908Y-117993351D01*
X123812626Y-118043598D01*
X123872166Y-118050000D01*
X124170000Y-118050000D01*
X124670000Y-118050000D01*
X124967834Y-118050000D01*
X125027372Y-118043598D01*
X125027373Y-118043598D01*
X125162091Y-117993351D01*
X125277188Y-117907188D01*
X125363351Y-117792091D01*
X125413598Y-117657373D01*
X125413598Y-117657372D01*
X125420000Y-117597834D01*
X125420000Y-116225000D01*
X124670000Y-116225000D01*
X124670000Y-118050000D01*
X124170000Y-118050000D01*
X124170000Y-116225000D01*
X123420000Y-116225000D01*
X123420000Y-117597834D01*
X122803831Y-117597834D01*
X122886631Y-117473915D01*
X122886632Y-117473914D01*
X122962051Y-117291835D01*
X123000500Y-117098541D01*
X123000500Y-114352165D01*
X123420000Y-114352165D01*
X123420000Y-115725000D01*
X124170000Y-115725000D01*
X124670000Y-115725000D01*
X125420000Y-115725000D01*
X125420000Y-114352165D01*
X125413598Y-114292627D01*
X125413598Y-114292626D01*
X125363351Y-114157908D01*
X125277188Y-114042811D01*
X125162091Y-113956648D01*
X125027373Y-113906401D01*
X124967834Y-113900000D01*
X124670000Y-113900000D01*
X124670000Y-115725000D01*
X124170000Y-115725000D01*
X124170000Y-113900000D01*
X123872166Y-113900000D01*
X123812627Y-113906401D01*
X123812626Y-113906401D01*
X123677908Y-113956648D01*
X123562811Y-114042811D01*
X123476648Y-114157908D01*
X123426401Y-114292626D01*
X123426401Y-114292627D01*
X123420000Y-114352165D01*
X123000500Y-114352165D01*
X123000500Y-113934716D01*
X123014852Y-113900068D01*
X123732061Y-113182859D01*
X124577139Y-112337782D01*
X124686631Y-112173915D01*
X124686632Y-112173914D01*
X124751615Y-112017030D01*
X124762051Y-111991836D01*
X124774070Y-111931408D01*
X124791431Y-111902777D01*
X124797722Y-111897722D01*
X124917030Y-111749296D01*
X125001641Y-111578693D01*
X125001641Y-111578692D01*
X125002119Y-111577729D01*
X125030371Y-111553065D01*
X125046017Y-111550500D01*
X125543836Y-111550500D01*
X125578484Y-111564852D01*
X125606344Y-111592712D01*
X125755665Y-111684814D01*
X125922202Y-111739999D01*
X125922204Y-111739999D01*
X125924742Y-111740840D01*
X125924308Y-111742146D01*
X125951619Y-111760953D01*
X125959500Y-111787603D01*
X125959500Y-117597879D01*
X125965907Y-117657478D01*
X125965909Y-117657483D01*
X126016204Y-117792331D01*
X126102454Y-117907546D01*
X126194934Y-117976776D01*
X126217074Y-117993351D01*
X126217669Y-117993796D01*
X126352517Y-118044091D01*
X126352520Y-118044092D01*
X126396177Y-118048785D01*
X126412127Y-118050500D01*
X127507872Y-118050499D01*
X127507878Y-118050499D01*
X127567478Y-118044092D01*
X127567479Y-118044091D01*
X127567483Y-118044091D01*
X127702331Y-117993796D01*
X127817546Y-117907546D01*
X127903796Y-117792331D01*
X127954091Y-117657483D01*
X127954091Y-117657481D01*
X127954092Y-117657479D01*
X127960500Y-117597879D01*
X127960500Y-114352119D01*
X128499500Y-114352119D01*
X128499500Y-117597878D01*
X128505907Y-117657477D01*
X128505909Y-117657482D01*
X128556204Y-117792330D01*
X128642454Y-117907545D01*
X128734934Y-117976775D01*
X128757074Y-117993350D01*
X128757669Y-117993795D01*
X128891198Y-118043598D01*
X128892520Y-118044091D01*
X128936177Y-118048784D01*
X128952127Y-118050499D01*
X130047872Y-118050498D01*
X130047878Y-118050498D01*
X130107478Y-118044091D01*
X130107479Y-118044090D01*
X130107483Y-118044090D01*
X130242331Y-117993795D01*
X130357546Y-117907545D01*
X130443796Y-117792330D01*
X130494091Y-117657482D01*
X130494091Y-117657480D01*
X130494092Y-117657478D01*
X130500499Y-117597878D01*
X130500500Y-117597872D01*
X130500499Y-114352127D01*
X130500499Y-114352126D01*
X130500499Y-114352120D01*
X131039500Y-114352120D01*
X131039500Y-117597879D01*
X131045907Y-117657478D01*
X131045909Y-117657483D01*
X131096204Y-117792331D01*
X131182454Y-117907546D01*
X131274934Y-117976776D01*
X131297074Y-117993351D01*
X131297669Y-117993796D01*
X131432517Y-118044091D01*
X131432520Y-118044092D01*
X131476177Y-118048785D01*
X131492127Y-118050500D01*
X132587872Y-118050499D01*
X132587878Y-118050499D01*
X132647478Y-118044092D01*
X132647479Y-118044091D01*
X132647483Y-118044091D01*
X132782331Y-117993796D01*
X132897546Y-117907546D01*
X132983796Y-117792331D01*
X133034091Y-117657483D01*
X133034091Y-117657481D01*
X133034092Y-117657479D01*
X133040499Y-117597879D01*
X133040499Y-117597878D01*
X133040500Y-117597873D01*
X133040499Y-114352128D01*
X133040499Y-114352126D01*
X133040499Y-114352120D01*
X133579500Y-114352120D01*
X133579500Y-117597879D01*
X133585907Y-117657478D01*
X133585909Y-117657483D01*
X133636204Y-117792331D01*
X133722454Y-117907546D01*
X133814934Y-117976776D01*
X133837074Y-117993351D01*
X133837669Y-117993796D01*
X133972517Y-118044091D01*
X133972520Y-118044092D01*
X134016177Y-118048785D01*
X134032127Y-118050500D01*
X135127872Y-118050499D01*
X135127878Y-118050499D01*
X135187478Y-118044092D01*
X135187479Y-118044091D01*
X135187483Y-118044091D01*
X135322331Y-117993796D01*
X135437546Y-117907546D01*
X135523796Y-117792331D01*
X135574091Y-117657483D01*
X135574091Y-117657481D01*
X135574092Y-117657479D01*
X135580499Y-117597879D01*
X135580499Y-117597878D01*
X135580500Y-117597873D01*
X135580500Y-117597834D01*
X137460000Y-117597834D01*
X137466401Y-117657372D01*
X137466401Y-117657373D01*
X137516648Y-117792091D01*
X137602811Y-117907188D01*
X137717908Y-117993351D01*
X137852626Y-118043598D01*
X137912166Y-118050000D01*
X138210000Y-118050000D01*
X138710000Y-118050000D01*
X139007834Y-118050000D01*
X139067372Y-118043598D01*
X139067373Y-118043598D01*
X139202091Y-117993351D01*
X139317188Y-117907188D01*
X139403351Y-117792091D01*
X139453598Y-117657373D01*
X139453598Y-117657372D01*
X139460000Y-117597834D01*
X139460000Y-117597833D01*
X140000000Y-117597833D01*
X140006401Y-117657371D01*
X140006401Y-117657372D01*
X140056648Y-117792090D01*
X140142811Y-117907187D01*
X140257908Y-117993350D01*
X140392626Y-118043597D01*
X140452166Y-118049999D01*
X140750000Y-118049999D01*
X141250000Y-118049999D01*
X141547834Y-118049999D01*
X141607372Y-118043597D01*
X141607373Y-118043597D01*
X141742091Y-117993350D01*
X141857188Y-117907187D01*
X141943351Y-117792090D01*
X141993598Y-117657372D01*
X141993598Y-117657371D01*
X142000000Y-117597833D01*
X142000000Y-116224999D01*
X141250000Y-116224999D01*
X141250000Y-118049999D01*
X140750000Y-118049999D01*
X140750000Y-116224999D01*
X140000000Y-116224999D01*
X140000000Y-117597833D01*
X139460000Y-117597833D01*
X139460000Y-116225000D01*
X138710000Y-116225000D01*
X138710000Y-118050000D01*
X138210000Y-118050000D01*
X138210000Y-116225000D01*
X137460000Y-116225000D01*
X137460000Y-117597834D01*
X135580500Y-117597834D01*
X135580499Y-114352165D01*
X137460000Y-114352165D01*
X137460000Y-115725000D01*
X138210000Y-115725000D01*
X138710000Y-115725000D01*
X139460000Y-115725000D01*
X139460000Y-114352165D01*
X139460000Y-114352164D01*
X140000000Y-114352164D01*
X140000000Y-115724999D01*
X140750000Y-115724999D01*
X141250000Y-115724999D01*
X142000000Y-115724999D01*
X142000000Y-114352164D01*
X141993598Y-114292626D01*
X141993598Y-114292625D01*
X141943351Y-114157907D01*
X141857188Y-114042810D01*
X141742091Y-113956647D01*
X141607373Y-113906400D01*
X141547834Y-113899999D01*
X141250000Y-113899999D01*
X141250000Y-115724999D01*
X140750000Y-115724999D01*
X140750000Y-113899999D01*
X140452166Y-113899999D01*
X140392627Y-113906400D01*
X140392626Y-113906400D01*
X140257908Y-113956647D01*
X140142811Y-114042810D01*
X140056648Y-114157907D01*
X140006401Y-114292625D01*
X140006401Y-114292626D01*
X140000000Y-114352164D01*
X139460000Y-114352164D01*
X139453598Y-114292627D01*
X139453598Y-114292626D01*
X139403351Y-114157908D01*
X139317188Y-114042811D01*
X139202091Y-113956648D01*
X139067373Y-113906401D01*
X139007834Y-113900000D01*
X138710000Y-113900000D01*
X138710000Y-115725000D01*
X138210000Y-115725000D01*
X138210000Y-113900000D01*
X137912166Y-113900000D01*
X137852627Y-113906401D01*
X137852626Y-113906401D01*
X137717908Y-113956648D01*
X137602811Y-114042811D01*
X137516648Y-114157908D01*
X137466401Y-114292626D01*
X137466401Y-114292627D01*
X137460000Y-114352165D01*
X135580499Y-114352165D01*
X135580499Y-114352128D01*
X135580499Y-114352126D01*
X135580499Y-114352120D01*
X135574092Y-114292521D01*
X135574091Y-114292517D01*
X135523796Y-114157669D01*
X135437546Y-114042454D01*
X135368314Y-113990627D01*
X135322333Y-113956205D01*
X135322331Y-113956204D01*
X135264719Y-113934716D01*
X135187479Y-113905907D01*
X135127879Y-113899500D01*
X134032120Y-113899500D01*
X133972521Y-113905907D01*
X133837666Y-113956205D01*
X133722454Y-114042454D01*
X133636205Y-114157666D01*
X133585907Y-114292520D01*
X133579500Y-114352120D01*
X133040499Y-114352120D01*
X133034092Y-114292521D01*
X133034091Y-114292517D01*
X132983796Y-114157669D01*
X132897546Y-114042454D01*
X132828314Y-113990627D01*
X132782333Y-113956205D01*
X132782331Y-113956204D01*
X132724719Y-113934716D01*
X132647479Y-113905907D01*
X132587879Y-113899500D01*
X131492120Y-113899500D01*
X131432521Y-113905907D01*
X131297666Y-113956205D01*
X131182454Y-114042454D01*
X131096205Y-114157666D01*
X131045907Y-114292520D01*
X131039500Y-114352120D01*
X130500499Y-114352120D01*
X130500499Y-114352119D01*
X130494092Y-114292520D01*
X130494091Y-114292516D01*
X130443796Y-114157668D01*
X130357546Y-114042453D01*
X130288314Y-113990626D01*
X130242333Y-113956204D01*
X130242331Y-113956203D01*
X130197381Y-113939438D01*
X130107479Y-113905906D01*
X130047879Y-113899499D01*
X128952120Y-113899499D01*
X128892521Y-113905906D01*
X128757666Y-113956204D01*
X128642454Y-114042453D01*
X128556205Y-114157665D01*
X128505907Y-114292519D01*
X128499500Y-114352119D01*
X127960500Y-114352119D01*
X127960500Y-111799500D01*
X127974852Y-111764852D01*
X128009500Y-111750500D01*
X128975012Y-111750500D01*
X129016125Y-111746299D01*
X129077798Y-111739999D01*
X129244335Y-111684814D01*
X129393656Y-111592712D01*
X129517712Y-111468656D01*
X129609814Y-111319335D01*
X129664999Y-111152798D01*
X129675500Y-111050010D01*
X129675500Y-111049980D01*
X129825001Y-111049980D01*
X129835494Y-111152695D01*
X129890640Y-111319119D01*
X129890641Y-111319122D01*
X129982684Y-111468345D01*
X130106654Y-111592315D01*
X130255877Y-111684358D01*
X130255880Y-111684359D01*
X130422304Y-111739505D01*
X130525018Y-111749999D01*
X131750000Y-111749999D01*
X132250000Y-111749999D01*
X133474980Y-111749999D01*
X133577695Y-111739505D01*
X133744119Y-111684359D01*
X133744122Y-111684358D01*
X133893345Y-111592315D01*
X134017315Y-111468345D01*
X134109358Y-111319122D01*
X134109359Y-111319119D01*
X134164505Y-111152695D01*
X134175000Y-111049981D01*
X134175000Y-110800000D01*
X132250000Y-110800000D01*
X132250000Y-111749999D01*
X131750000Y-111749999D01*
X131750000Y-110800000D01*
X129825001Y-110800000D01*
X129825001Y-111049980D01*
X129675500Y-111049980D01*
X129675500Y-110050018D01*
X129825000Y-110050018D01*
X129825000Y-110300000D01*
X131750000Y-110300000D01*
X132250000Y-110300000D01*
X134174999Y-110300000D01*
X134174999Y-110050019D01*
X134164505Y-109947304D01*
X134109359Y-109780880D01*
X134109358Y-109780877D01*
X134017315Y-109631654D01*
X133893345Y-109507684D01*
X133744122Y-109415641D01*
X133744119Y-109415640D01*
X133577695Y-109360494D01*
X133474981Y-109350000D01*
X132250000Y-109350000D01*
X132250000Y-110300000D01*
X131750000Y-110300000D01*
X131750000Y-109350000D01*
X130525019Y-109350000D01*
X130422304Y-109360494D01*
X130255880Y-109415640D01*
X130255877Y-109415641D01*
X130106654Y-109507684D01*
X129982684Y-109631654D01*
X129890641Y-109780877D01*
X129890640Y-109780880D01*
X129835494Y-109947304D01*
X129825000Y-110050018D01*
X129675500Y-110050018D01*
X129675500Y-110049990D01*
X129664999Y-109947202D01*
X129609814Y-109780665D01*
X129517712Y-109631344D01*
X129393656Y-109507288D01*
X129393655Y-109507287D01*
X129244335Y-109415186D01*
X129077795Y-109360000D01*
X128975012Y-109349500D01*
X128975010Y-109349500D01*
X126024990Y-109349500D01*
X126024988Y-109349500D01*
X125922204Y-109360000D01*
X125755664Y-109415186D01*
X125606344Y-109507287D01*
X125578484Y-109535148D01*
X125543836Y-109549500D01*
X124939542Y-109549500D01*
X124904894Y-109535148D01*
X124901351Y-109531199D01*
X124899972Y-109529484D01*
X124872122Y-109494836D01*
X124797722Y-109402277D01*
X124649299Y-109282972D01*
X124649298Y-109282971D01*
X124478695Y-109198360D01*
X124478693Y-109198359D01*
X124293889Y-109152400D01*
X124293887Y-109152399D01*
X124293884Y-109152399D01*
X124258401Y-109149993D01*
X124251123Y-109149500D01*
X124251121Y-109149500D01*
X123348878Y-109149500D01*
X123306116Y-109152399D01*
X123306112Y-109152399D01*
X123306111Y-109152400D01*
X123121307Y-109198359D01*
X123121305Y-109198359D01*
X123121304Y-109198360D01*
X122950701Y-109282971D01*
X122950700Y-109282972D01*
X122802277Y-109402277D01*
X122688191Y-109544207D01*
X122655298Y-109562221D01*
X122619301Y-109551699D01*
X122611809Y-109544207D01*
X122511309Y-109419179D01*
X122500500Y-109388480D01*
X122500500Y-105899500D01*
X122514852Y-105864852D01*
X122549500Y-105850500D01*
X122958043Y-105850500D01*
X122958047Y-105850499D01*
X123077418Y-105839887D01*
X123224391Y-105797832D01*
X123273043Y-105783912D01*
X123273044Y-105783911D01*
X123273049Y-105783910D01*
X123453407Y-105689699D01*
X123611109Y-105561110D01*
X123739698Y-105403408D01*
X123833909Y-105223050D01*
X123889886Y-105027419D01*
X123900500Y-104908038D01*
X123900499Y-103791965D01*
X123900499Y-103791964D01*
X123900499Y-103791958D01*
X123900498Y-103791953D01*
X123890604Y-103680664D01*
X123889886Y-103672583D01*
X123861897Y-103574767D01*
X123833911Y-103476957D01*
X123833909Y-103476954D01*
X123833909Y-103476952D01*
X123739698Y-103296594D01*
X123645784Y-103181418D01*
X123635012Y-103145497D01*
X123649112Y-103115807D01*
X125177139Y-101587783D01*
X125210437Y-101537949D01*
X125286632Y-101423915D01*
X125362051Y-101241836D01*
X125365826Y-101222861D01*
X125400500Y-101048542D01*
X125400500Y-100851461D01*
X125400500Y-100549499D01*
X125414852Y-100514851D01*
X125449500Y-100500499D01*
X125697878Y-100500499D01*
X125757478Y-100494092D01*
X125757479Y-100494091D01*
X125757483Y-100494091D01*
X125892331Y-100443796D01*
X125921135Y-100422232D01*
X125957472Y-100412958D01*
X125989726Y-100432094D01*
X125999500Y-100461459D01*
X125999500Y-101947879D01*
X126005907Y-102007478D01*
X126005909Y-102007483D01*
X126056204Y-102142331D01*
X126142454Y-102257546D01*
X126257669Y-102343796D01*
X126392517Y-102394091D01*
X126392520Y-102394092D01*
X126436177Y-102398785D01*
X126452127Y-102400500D01*
X127547872Y-102400499D01*
X127547878Y-102400499D01*
X127607478Y-102394092D01*
X127607479Y-102394091D01*
X127607483Y-102394091D01*
X127742331Y-102343796D01*
X127857546Y-102257546D01*
X127943796Y-102142331D01*
X127954089Y-102114732D01*
X127979644Y-102087284D01*
X128017123Y-102085945D01*
X128044572Y-102111500D01*
X128045911Y-102114733D01*
X128056204Y-102142332D01*
X128063778Y-102152449D01*
X128142454Y-102257546D01*
X128257669Y-102343796D01*
X128392517Y-102394091D01*
X128392520Y-102394092D01*
X128436177Y-102398785D01*
X128452127Y-102400500D01*
X129547872Y-102400499D01*
X129547878Y-102400499D01*
X129607478Y-102394092D01*
X129607479Y-102394091D01*
X129607483Y-102394091D01*
X129742331Y-102343796D01*
X129857546Y-102257546D01*
X129943796Y-102142331D01*
X129954089Y-102114732D01*
X129979644Y-102087284D01*
X130017123Y-102085945D01*
X130044572Y-102111500D01*
X130045911Y-102114733D01*
X130056204Y-102142332D01*
X130063778Y-102152449D01*
X130142454Y-102257546D01*
X130257669Y-102343796D01*
X130392517Y-102394091D01*
X130392520Y-102394092D01*
X130436177Y-102398785D01*
X130452127Y-102400500D01*
X131547872Y-102400499D01*
X131547878Y-102400499D01*
X131607478Y-102394092D01*
X131607479Y-102394091D01*
X131607483Y-102394091D01*
X131742331Y-102343796D01*
X131857546Y-102257546D01*
X131928840Y-102162309D01*
X131961092Y-102143174D01*
X131997430Y-102152449D01*
X132016123Y-102182115D01*
X132037946Y-102291827D01*
X132037949Y-102291836D01*
X132083356Y-102401459D01*
X132113368Y-102473914D01*
X132154571Y-102535579D01*
X132222860Y-102637781D01*
X132363924Y-102778845D01*
X132363934Y-102778854D01*
X132750932Y-103165852D01*
X132765284Y-103200500D01*
X132750932Y-103235148D01*
X132716284Y-103249500D01*
X130524988Y-103249500D01*
X130422204Y-103260000D01*
X130255664Y-103315186D01*
X130106344Y-103407287D01*
X130078484Y-103435148D01*
X130043836Y-103449500D01*
X129456164Y-103449500D01*
X129421516Y-103435148D01*
X129393655Y-103407287D01*
X129244335Y-103315186D01*
X129077795Y-103260000D01*
X128975012Y-103249500D01*
X128975010Y-103249500D01*
X126024990Y-103249500D01*
X126024988Y-103249500D01*
X125922204Y-103260000D01*
X125755664Y-103315186D01*
X125606344Y-103407287D01*
X125482287Y-103531344D01*
X125390186Y-103680664D01*
X125335000Y-103847204D01*
X125324500Y-103949987D01*
X125324500Y-104950012D01*
X125335000Y-105052795D01*
X125335001Y-105052798D01*
X125390186Y-105219335D01*
X125482288Y-105368656D01*
X125606344Y-105492712D01*
X125755665Y-105584814D01*
X125922202Y-105639999D01*
X125973596Y-105645249D01*
X126024988Y-105650500D01*
X126024990Y-105650500D01*
X128975012Y-105650500D01*
X129016125Y-105646299D01*
X129077798Y-105639999D01*
X129244335Y-105584814D01*
X129393656Y-105492712D01*
X129421516Y-105464852D01*
X129456164Y-105450500D01*
X130043836Y-105450500D01*
X130078484Y-105464852D01*
X130106344Y-105492712D01*
X130255665Y-105584814D01*
X130422202Y-105639999D01*
X130473596Y-105645249D01*
X130524988Y-105650500D01*
X130524990Y-105650500D01*
X130950500Y-105650500D01*
X130985148Y-105664852D01*
X130999500Y-105699500D01*
X130999500Y-106598544D01*
X131037947Y-106791827D01*
X131037949Y-106791836D01*
X131108757Y-106962782D01*
X131113368Y-106973914D01*
X131186691Y-107083650D01*
X131222860Y-107137781D01*
X131365008Y-107279929D01*
X131365013Y-107279933D01*
X132362219Y-108277140D01*
X132526086Y-108386632D01*
X132526091Y-108386634D01*
X132708157Y-108462049D01*
X132708159Y-108462049D01*
X132708165Y-108462052D01*
X132803439Y-108481003D01*
X132901454Y-108500500D01*
X132901460Y-108500501D01*
X133100951Y-108500501D01*
X133100971Y-108500500D01*
X135065284Y-108500500D01*
X135099932Y-108514852D01*
X135485148Y-108900068D01*
X135499500Y-108934716D01*
X135499500Y-109300500D01*
X135485148Y-109335148D01*
X135450500Y-109349500D01*
X135024988Y-109349500D01*
X134922204Y-109360000D01*
X134755664Y-109415186D01*
X134606344Y-109507287D01*
X134482287Y-109631344D01*
X134390186Y-109780664D01*
X134335000Y-109947204D01*
X134324500Y-110049987D01*
X134324500Y-111050012D01*
X134335000Y-111152795D01*
X134335001Y-111152798D01*
X134390186Y-111319335D01*
X134482288Y-111468656D01*
X134606344Y-111592712D01*
X134755665Y-111684814D01*
X134922202Y-111739999D01*
X134959496Y-111743809D01*
X135024988Y-111750500D01*
X135024990Y-111750500D01*
X137975012Y-111750500D01*
X138016125Y-111746299D01*
X138077798Y-111739999D01*
X138244335Y-111684814D01*
X138393656Y-111592712D01*
X138517712Y-111468656D01*
X138609814Y-111319335D01*
X138664999Y-111152798D01*
X138675500Y-111050010D01*
X138675500Y-111049980D01*
X139325001Y-111049980D01*
X139335494Y-111152695D01*
X139390640Y-111319119D01*
X139390641Y-111319122D01*
X139482684Y-111468345D01*
X139606654Y-111592315D01*
X139755877Y-111684358D01*
X139755880Y-111684359D01*
X139922304Y-111739505D01*
X140025018Y-111749999D01*
X141250000Y-111749999D01*
X141250000Y-110800000D01*
X139325001Y-110800000D01*
X139325001Y-111049980D01*
X138675500Y-111049980D01*
X138675500Y-110050018D01*
X139325000Y-110050018D01*
X139325000Y-110300000D01*
X141250000Y-110300000D01*
X141250000Y-109350000D01*
X140025019Y-109350000D01*
X139922304Y-109360494D01*
X139755880Y-109415640D01*
X139755877Y-109415641D01*
X139606654Y-109507684D01*
X139482684Y-109631654D01*
X139390641Y-109780877D01*
X139390640Y-109780880D01*
X139335494Y-109947304D01*
X139325000Y-110050018D01*
X138675500Y-110050018D01*
X138675500Y-110049990D01*
X138664999Y-109947202D01*
X138609814Y-109780665D01*
X138517712Y-109631344D01*
X138393656Y-109507288D01*
X138393655Y-109507287D01*
X138244335Y-109415186D01*
X138077795Y-109360000D01*
X137975012Y-109349500D01*
X137975010Y-109349500D01*
X137549500Y-109349500D01*
X137514852Y-109335148D01*
X137500500Y-109300500D01*
X137500500Y-108600971D01*
X137500501Y-108600950D01*
X137500501Y-108401460D01*
X137500500Y-108401454D01*
X137462054Y-108208176D01*
X137462052Y-108208165D01*
X137432395Y-108136568D01*
X137386634Y-108026091D01*
X137386632Y-108026086D01*
X137277140Y-107862219D01*
X136279933Y-106865013D01*
X136279932Y-106865011D01*
X136137781Y-106722860D01*
X136097228Y-106695763D01*
X135973914Y-106613368D01*
X135973910Y-106613366D01*
X135973908Y-106613365D01*
X135845165Y-106560038D01*
X135791837Y-106537949D01*
X135791826Y-106537946D01*
X135695188Y-106518724D01*
X135598546Y-106499500D01*
X135598541Y-106499500D01*
X133434717Y-106499500D01*
X133400069Y-106485148D01*
X133014852Y-106099931D01*
X133000500Y-106065283D01*
X133000500Y-105699500D01*
X133014852Y-105664852D01*
X133049500Y-105650500D01*
X133475012Y-105650500D01*
X133516125Y-105646299D01*
X133577798Y-105639999D01*
X133744335Y-105584814D01*
X133893656Y-105492712D01*
X134017712Y-105368656D01*
X134109814Y-105219335D01*
X134164999Y-105052798D01*
X134175500Y-104950010D01*
X134175500Y-104509022D01*
X134189852Y-104474374D01*
X134224500Y-104460022D01*
X134259148Y-104474374D01*
X134310148Y-104525374D01*
X134324500Y-104560022D01*
X134324500Y-104950012D01*
X134335000Y-105052795D01*
X134335001Y-105052798D01*
X134390186Y-105219335D01*
X134482288Y-105368656D01*
X134606344Y-105492712D01*
X134755665Y-105584814D01*
X134922202Y-105639999D01*
X134973596Y-105645249D01*
X135024988Y-105650500D01*
X135024990Y-105650500D01*
X137975012Y-105650500D01*
X138016125Y-105646299D01*
X138077798Y-105639999D01*
X138244335Y-105584814D01*
X138393656Y-105492712D01*
X138517712Y-105368656D01*
X138609814Y-105219335D01*
X138664999Y-105052798D01*
X138675500Y-104950010D01*
X138675500Y-103949990D01*
X138664999Y-103847202D01*
X138609814Y-103680665D01*
X138517712Y-103531344D01*
X138393656Y-103407288D01*
X138393655Y-103407287D01*
X138244335Y-103315186D01*
X138077795Y-103260000D01*
X137975012Y-103249500D01*
X137975010Y-103249500D01*
X135884410Y-103249500D01*
X135849762Y-103235148D01*
X135098761Y-102484147D01*
X135084409Y-102449499D01*
X135098761Y-102414851D01*
X135133409Y-102400499D01*
X135547878Y-102400499D01*
X135607478Y-102394092D01*
X135607479Y-102394091D01*
X135607483Y-102394091D01*
X135742331Y-102343796D01*
X135857546Y-102257546D01*
X135943796Y-102142331D01*
X135954089Y-102114732D01*
X135979644Y-102087284D01*
X136017123Y-102085945D01*
X136044572Y-102111500D01*
X136045911Y-102114733D01*
X136056204Y-102142332D01*
X136063778Y-102152449D01*
X136142454Y-102257546D01*
X136257669Y-102343796D01*
X136392517Y-102394091D01*
X136392520Y-102394092D01*
X136436177Y-102398785D01*
X136452127Y-102400500D01*
X137547872Y-102400499D01*
X137547878Y-102400499D01*
X137607478Y-102394092D01*
X137607479Y-102394091D01*
X137607483Y-102394091D01*
X137742331Y-102343796D01*
X137857546Y-102257546D01*
X137943796Y-102142331D01*
X137994091Y-102007483D01*
X137994091Y-102007481D01*
X137994092Y-102007479D01*
X137999500Y-101957173D01*
X138000500Y-101947873D01*
X138000499Y-100460833D01*
X138014851Y-100426186D01*
X138049499Y-100411834D01*
X138078865Y-100421608D01*
X138107910Y-100443352D01*
X138242626Y-100493598D01*
X138302166Y-100500000D01*
X139350000Y-100500000D01*
X139350000Y-99750000D01*
X137883935Y-99750000D01*
X137854570Y-99740226D01*
X137742333Y-99656205D01*
X137742331Y-99656204D01*
X137694971Y-99638540D01*
X137607479Y-99605907D01*
X137547879Y-99599500D01*
X136452120Y-99599500D01*
X136392521Y-99605907D01*
X136257666Y-99656205D01*
X136142454Y-99742454D01*
X136056204Y-99857667D01*
X136056203Y-99857670D01*
X136045909Y-99885268D01*
X136020353Y-99912716D01*
X135982874Y-99914053D01*
X135955426Y-99888497D01*
X135954094Y-99885280D01*
X135943796Y-99857669D01*
X135857546Y-99742454D01*
X135783524Y-99687041D01*
X135742333Y-99656205D01*
X135742331Y-99656204D01*
X135694971Y-99638540D01*
X135607479Y-99605907D01*
X135547879Y-99599500D01*
X134452120Y-99599500D01*
X134392521Y-99605907D01*
X134257666Y-99656205D01*
X134142454Y-99742454D01*
X134056204Y-99857667D01*
X134056203Y-99857670D01*
X134045909Y-99885268D01*
X134020353Y-99912716D01*
X133982874Y-99914053D01*
X133955426Y-99888497D01*
X133954094Y-99885280D01*
X133943796Y-99857669D01*
X133857546Y-99742454D01*
X133783524Y-99687041D01*
X133742333Y-99656205D01*
X133742331Y-99656204D01*
X133694971Y-99638540D01*
X133607479Y-99605907D01*
X133547879Y-99599500D01*
X132452120Y-99599500D01*
X132392521Y-99605907D01*
X132257666Y-99656205D01*
X132142454Y-99742454D01*
X132056204Y-99857667D01*
X132056203Y-99857670D01*
X132045909Y-99885268D01*
X132020353Y-99912716D01*
X131982874Y-99914053D01*
X131955426Y-99888497D01*
X131954094Y-99885280D01*
X131943796Y-99857669D01*
X131857546Y-99742454D01*
X131783524Y-99687041D01*
X131742333Y-99656205D01*
X131742331Y-99656204D01*
X131694971Y-99638540D01*
X131607479Y-99605907D01*
X131547879Y-99599500D01*
X130452120Y-99599500D01*
X130392521Y-99605907D01*
X130257666Y-99656205D01*
X130142454Y-99742454D01*
X130056204Y-99857667D01*
X130056203Y-99857670D01*
X130045909Y-99885268D01*
X130020353Y-99912716D01*
X129982874Y-99914053D01*
X129955426Y-99888497D01*
X129954094Y-99885280D01*
X129943796Y-99857669D01*
X129857546Y-99742454D01*
X129783524Y-99687041D01*
X129742333Y-99656205D01*
X129742331Y-99656204D01*
X129694971Y-99638540D01*
X129607479Y-99605907D01*
X129547879Y-99599500D01*
X128452120Y-99599500D01*
X128392521Y-99605907D01*
X128257666Y-99656205D01*
X128142454Y-99742454D01*
X128056204Y-99857667D01*
X128056203Y-99857670D01*
X128045909Y-99885268D01*
X128020353Y-99912716D01*
X127982874Y-99914053D01*
X127955426Y-99888497D01*
X127954094Y-99885280D01*
X127943796Y-99857669D01*
X127857546Y-99742454D01*
X127783524Y-99687041D01*
X127742333Y-99656205D01*
X127742331Y-99656204D01*
X127694971Y-99638540D01*
X127607479Y-99605907D01*
X127547879Y-99599500D01*
X126452120Y-99599500D01*
X126392521Y-99605907D01*
X126257666Y-99656205D01*
X126228863Y-99677767D01*
X126192525Y-99687041D01*
X126160272Y-99667904D01*
X126150499Y-99638540D01*
X126150499Y-98952120D01*
X126144092Y-98892521D01*
X126125919Y-98843796D01*
X126093796Y-98757669D01*
X126007546Y-98642454D01*
X125935775Y-98588726D01*
X125892332Y-98556204D01*
X125892330Y-98556203D01*
X125864731Y-98545909D01*
X125837284Y-98520354D01*
X125835946Y-98482874D01*
X125861501Y-98455427D01*
X125864709Y-98454098D01*
X125892331Y-98443796D01*
X126007546Y-98357546D01*
X126093796Y-98242331D01*
X126144091Y-98107483D01*
X126144091Y-98107481D01*
X126144092Y-98107479D01*
X126150499Y-98047879D01*
X126150500Y-98047873D01*
X126150499Y-96952128D01*
X126150499Y-96952127D01*
X126150499Y-96952120D01*
X126144092Y-96892521D01*
X126144091Y-96892517D01*
X126093796Y-96757669D01*
X126007546Y-96642454D01*
X125949938Y-96599329D01*
X125892332Y-96556204D01*
X125892330Y-96556203D01*
X125864731Y-96545909D01*
X125837284Y-96520354D01*
X125835946Y-96482874D01*
X125861501Y-96455427D01*
X125864709Y-96454098D01*
X125892331Y-96443796D01*
X126007546Y-96357546D01*
X126093796Y-96242331D01*
X126144091Y-96107483D01*
X126144091Y-96107481D01*
X126144092Y-96107479D01*
X126150499Y-96047879D01*
X126150500Y-96047873D01*
X126150499Y-94952128D01*
X126150499Y-94952127D01*
X126150499Y-94952120D01*
X126144092Y-94892521D01*
X126132790Y-94862218D01*
X126093796Y-94757669D01*
X126007546Y-94642454D01*
X125949938Y-94599329D01*
X125892332Y-94556204D01*
X125892330Y-94556203D01*
X125864731Y-94545909D01*
X125837284Y-94520354D01*
X125835946Y-94482874D01*
X125861501Y-94455427D01*
X125864709Y-94454098D01*
X125892331Y-94443796D01*
X126007546Y-94357546D01*
X126093796Y-94242331D01*
X126144091Y-94107483D01*
X126144091Y-94107481D01*
X126144092Y-94107479D01*
X126150499Y-94047879D01*
X126150500Y-94047873D01*
X126150499Y-92952128D01*
X126150499Y-92952127D01*
X126150499Y-92952120D01*
X126144092Y-92892521D01*
X126141896Y-92886632D01*
X126093796Y-92757669D01*
X126007546Y-92642454D01*
X125949938Y-92599329D01*
X125892332Y-92556204D01*
X125892330Y-92556203D01*
X125864731Y-92545909D01*
X125837284Y-92520354D01*
X125835946Y-92482874D01*
X125861501Y-92455427D01*
X125864709Y-92454098D01*
X125892331Y-92443796D01*
X126007546Y-92357546D01*
X126093796Y-92242331D01*
X126144091Y-92107483D01*
X126144091Y-92107481D01*
X126144092Y-92107479D01*
X126150499Y-92047879D01*
X126150500Y-92047873D01*
X126150499Y-90952128D01*
X126150499Y-90952127D01*
X126150499Y-90952120D01*
X126144092Y-90892521D01*
X126144091Y-90892517D01*
X126093796Y-90757669D01*
X126007546Y-90642454D01*
X125935775Y-90588726D01*
X125892332Y-90556204D01*
X125892330Y-90556203D01*
X125864731Y-90545909D01*
X125837284Y-90520354D01*
X125835946Y-90482874D01*
X125861501Y-90455427D01*
X125864709Y-90454098D01*
X125892331Y-90443796D01*
X126007546Y-90357546D01*
X126093796Y-90242331D01*
X126144091Y-90107483D01*
X126144091Y-90107481D01*
X126144092Y-90107479D01*
X126150499Y-90047879D01*
X126150500Y-90047873D01*
X126150499Y-88952128D01*
X126150499Y-88952127D01*
X126150499Y-88952120D01*
X126144092Y-88892521D01*
X126132790Y-88862218D01*
X126093796Y-88757669D01*
X126007546Y-88642454D01*
X125935775Y-88588726D01*
X125892332Y-88556204D01*
X125892330Y-88556203D01*
X125864731Y-88545909D01*
X125837284Y-88520354D01*
X125835946Y-88482874D01*
X125861501Y-88455427D01*
X125864709Y-88454098D01*
X125892331Y-88443796D01*
X126007546Y-88357546D01*
X126093796Y-88242331D01*
X126144091Y-88107483D01*
X126144091Y-88107481D01*
X126144092Y-88107479D01*
X126150499Y-88047879D01*
X126150500Y-88047873D01*
X126150499Y-86952128D01*
X126150499Y-86952127D01*
X126150499Y-86952120D01*
X126144092Y-86892521D01*
X126144091Y-86892517D01*
X126093796Y-86757669D01*
X126007546Y-86642454D01*
X125949938Y-86599329D01*
X125892332Y-86556204D01*
X125892330Y-86556203D01*
X125864731Y-86545909D01*
X125837284Y-86520354D01*
X125835946Y-86482874D01*
X125861501Y-86455427D01*
X125864709Y-86454098D01*
X125892331Y-86443796D01*
X126007546Y-86357546D01*
X126093796Y-86242331D01*
X126144091Y-86107483D01*
X126144091Y-86107481D01*
X126144092Y-86107479D01*
X126150499Y-86047879D01*
X126150500Y-86047873D01*
X126150499Y-84952128D01*
X126150499Y-84952127D01*
X126150499Y-84952120D01*
X126144092Y-84892521D01*
X126144091Y-84892517D01*
X126093796Y-84757669D01*
X126007546Y-84642454D01*
X125938314Y-84590627D01*
X125892333Y-84556205D01*
X125892331Y-84556204D01*
X125847381Y-84539439D01*
X125757479Y-84505907D01*
X125697879Y-84499500D01*
X125697873Y-84499500D01*
X124834717Y-84499500D01*
X124800069Y-84485148D01*
X124598569Y-84283648D01*
X124584217Y-84249000D01*
X124598569Y-84214352D01*
X124633217Y-84200000D01*
X140120000Y-84200000D01*
X140120000Y-77049500D01*
X140134352Y-77014852D01*
X140169000Y-77000500D01*
X140565284Y-77000500D01*
X140599932Y-77014852D01*
X140985148Y-77400068D01*
X140999500Y-77434716D01*
X140999500Y-83098545D01*
X141037946Y-83291826D01*
X141037949Y-83291837D01*
X141060038Y-83345165D01*
X141113365Y-83473908D01*
X141113366Y-83473910D01*
X141113368Y-83473914D01*
X141195763Y-83597228D01*
X141222860Y-83637781D01*
X141365008Y-83779929D01*
X141365014Y-83779934D01*
X142000932Y-84415852D01*
X142015284Y-84450500D01*
X142000932Y-84485148D01*
X141966284Y-84499500D01*
X138302120Y-84499500D01*
X138242521Y-84505907D01*
X138107666Y-84556205D01*
X137992454Y-84642454D01*
X137906205Y-84757666D01*
X137855907Y-84892520D01*
X137849500Y-84952120D01*
X137849500Y-86047879D01*
X137855907Y-86107478D01*
X137855909Y-86107483D01*
X137906204Y-86242331D01*
X137992454Y-86357546D01*
X138107669Y-86443796D01*
X138135267Y-86454089D01*
X138162715Y-86479645D01*
X138164054Y-86517124D01*
X138138498Y-86544572D01*
X138135276Y-86545907D01*
X138114274Y-86553740D01*
X138107666Y-86556205D01*
X137992454Y-86642454D01*
X137906205Y-86757666D01*
X137855907Y-86892520D01*
X137849500Y-86952120D01*
X137849500Y-88047879D01*
X137855907Y-88107478D01*
X137855909Y-88107483D01*
X137906114Y-88242091D01*
X137906205Y-88242333D01*
X137930720Y-88275080D01*
X137992454Y-88357546D01*
X138056152Y-88405230D01*
X138107074Y-88443351D01*
X138107669Y-88443796D01*
X138135267Y-88454089D01*
X138162715Y-88479645D01*
X138164054Y-88517124D01*
X138138498Y-88544572D01*
X138135276Y-88545907D01*
X138114274Y-88553740D01*
X138107666Y-88556205D01*
X137992454Y-88642454D01*
X137906205Y-88757666D01*
X137855907Y-88892520D01*
X137849500Y-88952120D01*
X137849500Y-90047879D01*
X137855907Y-90107478D01*
X137906205Y-90242333D01*
X137940627Y-90288314D01*
X137992454Y-90357546D01*
X138107669Y-90443796D01*
X138135267Y-90454089D01*
X138162715Y-90479645D01*
X138164054Y-90517124D01*
X138138498Y-90544572D01*
X138135276Y-90545907D01*
X138114274Y-90553740D01*
X138107666Y-90556205D01*
X137992454Y-90642454D01*
X137906205Y-90757666D01*
X137855907Y-90892520D01*
X137849500Y-90952120D01*
X137849500Y-92047879D01*
X137855907Y-92107478D01*
X137855909Y-92107483D01*
X137906204Y-92242331D01*
X137992454Y-92357546D01*
X138107669Y-92443796D01*
X138135267Y-92454089D01*
X138162715Y-92479645D01*
X138164054Y-92517124D01*
X138138498Y-92544572D01*
X138135276Y-92545907D01*
X138114274Y-92553740D01*
X138107666Y-92556205D01*
X137992454Y-92642454D01*
X137906205Y-92757666D01*
X137855907Y-92892520D01*
X137849500Y-92952120D01*
X137849500Y-94047879D01*
X137855907Y-94107478D01*
X137855909Y-94107483D01*
X137906204Y-94242331D01*
X137992454Y-94357546D01*
X138107669Y-94443796D01*
X138135267Y-94454089D01*
X138162715Y-94479645D01*
X138164054Y-94517124D01*
X138138498Y-94544572D01*
X138135276Y-94545907D01*
X138114274Y-94553740D01*
X138107666Y-94556205D01*
X137992454Y-94642454D01*
X137906205Y-94757666D01*
X137855907Y-94892520D01*
X137849500Y-94952120D01*
X137849500Y-96047879D01*
X137855907Y-96107478D01*
X137855909Y-96107483D01*
X137905304Y-96239919D01*
X137906205Y-96242333D01*
X137932261Y-96277139D01*
X137992454Y-96357546D01*
X138107669Y-96443796D01*
X138135267Y-96454089D01*
X138162715Y-96479645D01*
X138164054Y-96517124D01*
X138138498Y-96544572D01*
X138135276Y-96545907D01*
X138114274Y-96553740D01*
X138107666Y-96556205D01*
X137992454Y-96642454D01*
X137906205Y-96757666D01*
X137855907Y-96892520D01*
X137849500Y-96952120D01*
X137849500Y-98047879D01*
X137855907Y-98107478D01*
X137855909Y-98107483D01*
X137906204Y-98242331D01*
X137992454Y-98357546D01*
X138069406Y-98415152D01*
X138107667Y-98443795D01*
X138107668Y-98443795D01*
X138107669Y-98443796D01*
X138135980Y-98454355D01*
X138163429Y-98479910D01*
X138164768Y-98517389D01*
X138139213Y-98544838D01*
X138135982Y-98546176D01*
X138107912Y-98556646D01*
X138107909Y-98556647D01*
X137992811Y-98642811D01*
X137906648Y-98757908D01*
X137856401Y-98892626D01*
X137856401Y-98892627D01*
X137850000Y-98952165D01*
X137850000Y-99250000D01*
X139801000Y-99250000D01*
X139835648Y-99264352D01*
X139850000Y-99299000D01*
X139850000Y-100500000D01*
X140897834Y-100500000D01*
X140945262Y-100494901D01*
X140981246Y-100505467D01*
X140999219Y-100538382D01*
X140999500Y-100543620D01*
X140999500Y-103200500D01*
X140985148Y-103235148D01*
X140950500Y-103249500D01*
X140024988Y-103249500D01*
X139922204Y-103260000D01*
X139755664Y-103315186D01*
X139606344Y-103407287D01*
X139482287Y-103531344D01*
X139390186Y-103680664D01*
X139335000Y-103847204D01*
X139324500Y-103949987D01*
X139324500Y-104950012D01*
X139335000Y-105052795D01*
X139335001Y-105052798D01*
X139390186Y-105219335D01*
X139482288Y-105368656D01*
X139606344Y-105492712D01*
X139755665Y-105584814D01*
X139922202Y-105639999D01*
X139973596Y-105645249D01*
X140024988Y-105650500D01*
X140024990Y-105650500D01*
X142975012Y-105650500D01*
X143016125Y-105646299D01*
X143077798Y-105639999D01*
X143244335Y-105584814D01*
X143393656Y-105492712D01*
X143465352Y-105421016D01*
X143500000Y-105406664D01*
X143534648Y-105421016D01*
X143606344Y-105492712D01*
X143755665Y-105584814D01*
X143922202Y-105639999D01*
X143973596Y-105645249D01*
X144024988Y-105650500D01*
X144024990Y-105650500D01*
X146975012Y-105650500D01*
X147016125Y-105646299D01*
X147077798Y-105639999D01*
X147244335Y-105584814D01*
X147393656Y-105492712D01*
X147415852Y-105470516D01*
X147450500Y-105456164D01*
X147485148Y-105470516D01*
X147499500Y-105505164D01*
X147499500Y-109494836D01*
X147485148Y-109529484D01*
X147450500Y-109543836D01*
X147415852Y-109529484D01*
X147393655Y-109507287D01*
X147244335Y-109415186D01*
X147077795Y-109360000D01*
X146975012Y-109349500D01*
X146975010Y-109349500D01*
X144024990Y-109349500D01*
X144024988Y-109349500D01*
X143922204Y-109360000D01*
X143755664Y-109415186D01*
X143606344Y-109507287D01*
X143534294Y-109579337D01*
X143499646Y-109593689D01*
X143464998Y-109579337D01*
X143393345Y-109507684D01*
X143244122Y-109415641D01*
X143244119Y-109415640D01*
X143077695Y-109360494D01*
X142974981Y-109350000D01*
X141750000Y-109350000D01*
X141750000Y-111749999D01*
X142974980Y-111749999D01*
X143077695Y-111739505D01*
X143244119Y-111684359D01*
X143244122Y-111684358D01*
X143393345Y-111592315D01*
X143464998Y-111520662D01*
X143499646Y-111506310D01*
X143534294Y-111520662D01*
X143606344Y-111592712D01*
X143755665Y-111684814D01*
X143922202Y-111739999D01*
X143959496Y-111743809D01*
X144024988Y-111750500D01*
X144024990Y-111750500D01*
X144216283Y-111750500D01*
X144250931Y-111764852D01*
X144265283Y-111799500D01*
X144250931Y-111834148D01*
X142762860Y-113322218D01*
X142653366Y-113486089D01*
X142620367Y-113565757D01*
X142605545Y-113601541D01*
X142582297Y-113657669D01*
X142579398Y-113664666D01*
X142577949Y-113668164D01*
X142577946Y-113668175D01*
X142539500Y-113861453D01*
X142539500Y-122647879D01*
X142545907Y-122707478D01*
X142545909Y-122707483D01*
X142596204Y-122842331D01*
X142682454Y-122957546D01*
X142746618Y-123005579D01*
X142797074Y-123043351D01*
X142797669Y-123043796D01*
X142931198Y-123093599D01*
X142932520Y-123094092D01*
X142976177Y-123098785D01*
X142992127Y-123100500D01*
X144087872Y-123100499D01*
X144087878Y-123100499D01*
X144147478Y-123094092D01*
X144147479Y-123094091D01*
X144147483Y-123094091D01*
X144282331Y-123043796D01*
X144397546Y-122957546D01*
X144483796Y-122842331D01*
X144534091Y-122707483D01*
X144534091Y-122707481D01*
X144534092Y-122707479D01*
X144540500Y-122647879D01*
X144540500Y-114394716D01*
X144554852Y-114360068D01*
X145403821Y-113511099D01*
X146277140Y-112637781D01*
X146386632Y-112473914D01*
X146462052Y-112291835D01*
X146500501Y-112098540D01*
X146500501Y-111901459D01*
X146500501Y-111899438D01*
X146500500Y-111899422D01*
X146500500Y-111799500D01*
X146514852Y-111764852D01*
X146549500Y-111750500D01*
X146975012Y-111750500D01*
X147016125Y-111746299D01*
X147077798Y-111739999D01*
X147244335Y-111684814D01*
X147294456Y-111653898D01*
X147331479Y-111647925D01*
X147361884Y-111669880D01*
X147367858Y-111706904D01*
X147354827Y-111730252D01*
X145222860Y-113862218D01*
X145113366Y-114026089D01*
X145037949Y-114208163D01*
X145037947Y-114208172D01*
X144999500Y-114401455D01*
X144999500Y-123450500D01*
X144985148Y-123485148D01*
X144950500Y-123499500D01*
X130934717Y-123499500D01*
X130900069Y-123485148D01*
X130514852Y-123099931D01*
X130500500Y-123065283D01*
X130500500Y-120922517D01*
X130500499Y-120922503D01*
X130500499Y-119402121D01*
X130500499Y-119402120D01*
X131039500Y-119402120D01*
X131039500Y-122647879D01*
X131045907Y-122707478D01*
X131045909Y-122707483D01*
X131096204Y-122842331D01*
X131182454Y-122957546D01*
X131246618Y-123005579D01*
X131297074Y-123043351D01*
X131297669Y-123043796D01*
X131431198Y-123093599D01*
X131432520Y-123094092D01*
X131476177Y-123098785D01*
X131492127Y-123100500D01*
X132587872Y-123100499D01*
X132587878Y-123100499D01*
X132647478Y-123094092D01*
X132647479Y-123094091D01*
X132647483Y-123094091D01*
X132782331Y-123043796D01*
X132897546Y-122957546D01*
X132983796Y-122842331D01*
X133034091Y-122707483D01*
X133034091Y-122707481D01*
X133034092Y-122707479D01*
X133040499Y-122647879D01*
X133040500Y-122647873D01*
X133040500Y-122647834D01*
X133580000Y-122647834D01*
X133586401Y-122707372D01*
X133586401Y-122707373D01*
X133636648Y-122842091D01*
X133722811Y-122957188D01*
X133837908Y-123043351D01*
X133972626Y-123093598D01*
X134032166Y-123100000D01*
X134330000Y-123100000D01*
X134830000Y-123100000D01*
X135127834Y-123100000D01*
X135187372Y-123093598D01*
X135187373Y-123093598D01*
X135322091Y-123043351D01*
X135437188Y-122957188D01*
X135523351Y-122842091D01*
X135573598Y-122707373D01*
X135573598Y-122707372D01*
X135580000Y-122647834D01*
X137460000Y-122647834D01*
X137466401Y-122707372D01*
X137466401Y-122707373D01*
X137516648Y-122842091D01*
X137602811Y-122957188D01*
X137717908Y-123043351D01*
X137852626Y-123093598D01*
X137912166Y-123100000D01*
X138210000Y-123100000D01*
X138710000Y-123100000D01*
X139007834Y-123100000D01*
X139067372Y-123093598D01*
X139067373Y-123093598D01*
X139202091Y-123043351D01*
X139317188Y-122957188D01*
X139403351Y-122842091D01*
X139453598Y-122707373D01*
X139453598Y-122707372D01*
X139460000Y-122647835D01*
X140000000Y-122647835D01*
X140006401Y-122707373D01*
X140006401Y-122707374D01*
X140056648Y-122842092D01*
X140142811Y-122957189D01*
X140257908Y-123043352D01*
X140392626Y-123093599D01*
X140452166Y-123100001D01*
X140750000Y-123100001D01*
X141250000Y-123100001D01*
X141547834Y-123100001D01*
X141607372Y-123093599D01*
X141607373Y-123093599D01*
X141742091Y-123043352D01*
X141857188Y-122957189D01*
X141943351Y-122842092D01*
X141993598Y-122707374D01*
X141993598Y-122707373D01*
X142000000Y-122647835D01*
X142000000Y-121275001D01*
X141250000Y-121275001D01*
X141250000Y-123100001D01*
X140750000Y-123100001D01*
X140750000Y-121275001D01*
X140000000Y-121275001D01*
X140000000Y-122647835D01*
X139460000Y-122647835D01*
X139460000Y-122647834D01*
X139460000Y-121275000D01*
X138710000Y-121275000D01*
X138710000Y-123100000D01*
X138210000Y-123100000D01*
X138210000Y-121275000D01*
X137460000Y-121275000D01*
X137460000Y-122647834D01*
X135580000Y-122647834D01*
X135580000Y-121275000D01*
X134830000Y-121275000D01*
X134830000Y-123100000D01*
X134330000Y-123100000D01*
X134330000Y-121275000D01*
X133580000Y-121275000D01*
X133580000Y-122647834D01*
X133040500Y-122647834D01*
X133040499Y-119402165D01*
X133580000Y-119402165D01*
X133580000Y-120775000D01*
X134330000Y-120775000D01*
X134830000Y-120775000D01*
X135580000Y-120775000D01*
X135580000Y-119402165D01*
X137460000Y-119402165D01*
X137460000Y-120775000D01*
X138210000Y-120775000D01*
X138710000Y-120775000D01*
X139460000Y-120775000D01*
X139460000Y-119402166D01*
X140000000Y-119402166D01*
X140000000Y-120775001D01*
X140750000Y-120775001D01*
X141250000Y-120775001D01*
X142000000Y-120775001D01*
X142000000Y-119402166D01*
X141993598Y-119342628D01*
X141993598Y-119342627D01*
X141943351Y-119207909D01*
X141857188Y-119092812D01*
X141742091Y-119006649D01*
X141607373Y-118956402D01*
X141547834Y-118950001D01*
X141250000Y-118950001D01*
X141250000Y-120775001D01*
X140750000Y-120775001D01*
X140750000Y-118950001D01*
X140452166Y-118950001D01*
X140392627Y-118956402D01*
X140392626Y-118956402D01*
X140257908Y-119006649D01*
X140142811Y-119092812D01*
X140056648Y-119207909D01*
X140006401Y-119342627D01*
X140006401Y-119342628D01*
X140000000Y-119402166D01*
X139460000Y-119402166D01*
X139460000Y-119402165D01*
X139453598Y-119342627D01*
X139453598Y-119342626D01*
X139403351Y-119207908D01*
X139317188Y-119092811D01*
X139202091Y-119006648D01*
X139067373Y-118956401D01*
X139007834Y-118950000D01*
X138710000Y-118950000D01*
X138710000Y-120775000D01*
X138210000Y-120775000D01*
X138210000Y-118950000D01*
X137912166Y-118950000D01*
X137852627Y-118956401D01*
X137852626Y-118956401D01*
X137717908Y-119006648D01*
X137602811Y-119092811D01*
X137516648Y-119207908D01*
X137466401Y-119342626D01*
X137466401Y-119342627D01*
X137460000Y-119402165D01*
X135580000Y-119402165D01*
X135573598Y-119342627D01*
X135573598Y-119342626D01*
X135523351Y-119207908D01*
X135437188Y-119092811D01*
X135322091Y-119006648D01*
X135187373Y-118956401D01*
X135127834Y-118950000D01*
X134830000Y-118950000D01*
X134830000Y-120775000D01*
X134330000Y-120775000D01*
X134330000Y-118950000D01*
X134032166Y-118950000D01*
X133972627Y-118956401D01*
X133972626Y-118956401D01*
X133837908Y-119006648D01*
X133722811Y-119092811D01*
X133636648Y-119207908D01*
X133586401Y-119342626D01*
X133586401Y-119342627D01*
X133580000Y-119402165D01*
X133040499Y-119402165D01*
X133040499Y-119402128D01*
X133040499Y-119402127D01*
X133040499Y-119402120D01*
X133034092Y-119342521D01*
X133034091Y-119342517D01*
X132983796Y-119207669D01*
X132897546Y-119092454D01*
X132828314Y-119040627D01*
X132782333Y-119006205D01*
X132782331Y-119006204D01*
X132737381Y-118989439D01*
X132647479Y-118955907D01*
X132587879Y-118949500D01*
X131492120Y-118949500D01*
X131432521Y-118955907D01*
X131297666Y-119006205D01*
X131182454Y-119092454D01*
X131096205Y-119207666D01*
X131045907Y-119342520D01*
X131039500Y-119402120D01*
X130500499Y-119402120D01*
X130494092Y-119342522D01*
X130494091Y-119342518D01*
X130443796Y-119207670D01*
X130357546Y-119092455D01*
X130288314Y-119040628D01*
X130242333Y-119006206D01*
X130242331Y-119006205D01*
X130197381Y-118989440D01*
X130107479Y-118955908D01*
X130047879Y-118949501D01*
X128952120Y-118949501D01*
X128892521Y-118955908D01*
X128757666Y-119006206D01*
X128642454Y-119092455D01*
X128556205Y-119207667D01*
X128505907Y-119342521D01*
X128499500Y-119402121D01*
X128499500Y-123466283D01*
X128485148Y-123500931D01*
X128450500Y-123515283D01*
X128415852Y-123500931D01*
X127974852Y-123059931D01*
X127960500Y-123025283D01*
X127960500Y-120922510D01*
X127960499Y-120922502D01*
X127960499Y-119402120D01*
X127954092Y-119342521D01*
X127954091Y-119342517D01*
X127903796Y-119207669D01*
X127817546Y-119092454D01*
X127748314Y-119040627D01*
X127702333Y-119006205D01*
X127702331Y-119006204D01*
X127657381Y-118989439D01*
X127567479Y-118955907D01*
X127507879Y-118949500D01*
X126412120Y-118949500D01*
X126352521Y-118955907D01*
X126217666Y-119006205D01*
X126102454Y-119092454D01*
X126016205Y-119207666D01*
X125965907Y-119342520D01*
X125959500Y-119402120D01*
X125959500Y-123426283D01*
X125945148Y-123460931D01*
X125910500Y-123475283D01*
X125875852Y-123460931D01*
X125434852Y-123019931D01*
X125420500Y-122985283D01*
X125420500Y-120922510D01*
X125420499Y-120922502D01*
X125420499Y-119402120D01*
X125414092Y-119342521D01*
X125414091Y-119342517D01*
X125363796Y-119207669D01*
X125277546Y-119092454D01*
X125208314Y-119040627D01*
X125162333Y-119006205D01*
X125162331Y-119006204D01*
X125117381Y-118989439D01*
X125027479Y-118955907D01*
X124967879Y-118949500D01*
X123872120Y-118949500D01*
X123812521Y-118955907D01*
X123677666Y-119006205D01*
X123562454Y-119092454D01*
X123476205Y-119207666D01*
X123425907Y-119342520D01*
X123419500Y-119402120D01*
X123419500Y-123518544D01*
X123457947Y-123711827D01*
X123457949Y-123711835D01*
X123533368Y-123893914D01*
X123606691Y-124003650D01*
X123642860Y-124057781D01*
X123785008Y-124199929D01*
X123785014Y-124199934D01*
X127500931Y-127915852D01*
X127515283Y-127950500D01*
X127500931Y-127985148D01*
X127466283Y-127999500D01*
X107049500Y-127999500D01*
X107014852Y-127985148D01*
X107000500Y-127950500D01*
X107000500Y-118500000D01*
X108895034Y-118500000D01*
X108914859Y-118726607D01*
X108914860Y-118726613D01*
X108973730Y-118946317D01*
X108973732Y-118946322D01*
X109069862Y-119152474D01*
X109069871Y-119152490D01*
X109120972Y-119225471D01*
X109120975Y-119225471D01*
X109800000Y-118546446D01*
X109800000Y-118552661D01*
X109827259Y-118654394D01*
X109879920Y-118745606D01*
X109954394Y-118820080D01*
X110045606Y-118872741D01*
X110147339Y-118900000D01*
X110153553Y-118900000D01*
X109474527Y-119579023D01*
X109474527Y-119579024D01*
X109547515Y-119630132D01*
X109547525Y-119630137D01*
X109753677Y-119726267D01*
X109753682Y-119726269D01*
X109973386Y-119785139D01*
X109973392Y-119785140D01*
X110200000Y-119804965D01*
X110426607Y-119785140D01*
X110426613Y-119785139D01*
X110646317Y-119726269D01*
X110646322Y-119726267D01*
X110852474Y-119630137D01*
X110852484Y-119630132D01*
X110925471Y-119579024D01*
X110925471Y-119579023D01*
X110246447Y-118900000D01*
X110252661Y-118900000D01*
X110354394Y-118872741D01*
X110445606Y-118820080D01*
X110520080Y-118745606D01*
X110572741Y-118654394D01*
X110600000Y-118552661D01*
X110600000Y-118546447D01*
X111279023Y-119225471D01*
X111279024Y-119225471D01*
X111330132Y-119152484D01*
X111330137Y-119152474D01*
X111426267Y-118946322D01*
X111426269Y-118946317D01*
X111485139Y-118726613D01*
X111485140Y-118726607D01*
X111504965Y-118500000D01*
X111485140Y-118273392D01*
X111485139Y-118273386D01*
X111426269Y-118053682D01*
X111426267Y-118053677D01*
X111330137Y-117847525D01*
X111330132Y-117847515D01*
X111279024Y-117774527D01*
X111279023Y-117774527D01*
X110600000Y-118453551D01*
X110600000Y-118447339D01*
X110572741Y-118345606D01*
X110520080Y-118254394D01*
X110445606Y-118179920D01*
X110354394Y-118127259D01*
X110252661Y-118100000D01*
X110246447Y-118100000D01*
X110925471Y-117420975D01*
X110925471Y-117420972D01*
X110852490Y-117369871D01*
X110852474Y-117369862D01*
X110646322Y-117273732D01*
X110646317Y-117273730D01*
X110426613Y-117214860D01*
X110426607Y-117214859D01*
X110200000Y-117195034D01*
X109973392Y-117214859D01*
X109973386Y-117214860D01*
X109753682Y-117273730D01*
X109753677Y-117273732D01*
X109547518Y-117369864D01*
X109547506Y-117369871D01*
X109474527Y-117420972D01*
X109474527Y-117420974D01*
X110153553Y-118100000D01*
X110147339Y-118100000D01*
X110045606Y-118127259D01*
X109954394Y-118179920D01*
X109879920Y-118254394D01*
X109827259Y-118345606D01*
X109800000Y-118447339D01*
X109800000Y-118453553D01*
X109120974Y-117774527D01*
X109120972Y-117774527D01*
X109069871Y-117847506D01*
X109069864Y-117847518D01*
X108973732Y-118053677D01*
X108973730Y-118053682D01*
X108914860Y-118273386D01*
X108914859Y-118273392D01*
X108895034Y-118500000D01*
X107000500Y-118500000D01*
X107000500Y-114500000D01*
X116395287Y-114500000D01*
X116414096Y-114702986D01*
X116414098Y-114702995D01*
X116469883Y-114899063D01*
X116469884Y-114899064D01*
X116560753Y-115081553D01*
X116560754Y-115081556D01*
X116562533Y-115083911D01*
X117146446Y-114500000D01*
X116562533Y-113916087D01*
X116560752Y-113918445D01*
X116469884Y-114100935D01*
X116469883Y-114100936D01*
X116414098Y-114297004D01*
X116414096Y-114297013D01*
X116395287Y-114500000D01*
X107000500Y-114500000D01*
X107000500Y-111049980D01*
X108825001Y-111049980D01*
X108835494Y-111152695D01*
X108890640Y-111319119D01*
X108890641Y-111319122D01*
X108982684Y-111468345D01*
X109106654Y-111592315D01*
X109255877Y-111684358D01*
X109255880Y-111684359D01*
X109422304Y-111739505D01*
X109525018Y-111749999D01*
X110750000Y-111749999D01*
X111250000Y-111749999D01*
X112474980Y-111749999D01*
X112577695Y-111739505D01*
X112744119Y-111684359D01*
X112744122Y-111684358D01*
X112893345Y-111592315D01*
X113017315Y-111468345D01*
X113109358Y-111319122D01*
X113109359Y-111319119D01*
X113164505Y-111152695D01*
X113175000Y-111049981D01*
X113175000Y-111049980D01*
X113325001Y-111049980D01*
X113335494Y-111152695D01*
X113390640Y-111319119D01*
X113390641Y-111319122D01*
X113482684Y-111468345D01*
X113606654Y-111592315D01*
X113755877Y-111684358D01*
X113755880Y-111684359D01*
X113922304Y-111739505D01*
X114025018Y-111749999D01*
X115250000Y-111749999D01*
X115750000Y-111749999D01*
X116974980Y-111749999D01*
X117077695Y-111739505D01*
X117244119Y-111684359D01*
X117244122Y-111684358D01*
X117393345Y-111592315D01*
X117517315Y-111468345D01*
X117589637Y-111351095D01*
X117950000Y-111351095D01*
X117952896Y-111393817D01*
X117998831Y-111578522D01*
X118083394Y-111749028D01*
X118083395Y-111749029D01*
X118202632Y-111897367D01*
X118350970Y-112016604D01*
X118350971Y-112016605D01*
X118521477Y-112101168D01*
X118706182Y-112147103D01*
X118748904Y-112150000D01*
X118950000Y-112150000D01*
X118950000Y-110900000D01*
X117950000Y-110900000D01*
X117950000Y-111351095D01*
X117589637Y-111351095D01*
X117609358Y-111319122D01*
X117609359Y-111319119D01*
X117664505Y-111152695D01*
X117675000Y-111049981D01*
X117675000Y-110800000D01*
X115750000Y-110800000D01*
X115750000Y-111749999D01*
X115250000Y-111749999D01*
X115250000Y-110800000D01*
X113325001Y-110800000D01*
X113325001Y-111049980D01*
X113175000Y-111049980D01*
X113175000Y-110800000D01*
X111250000Y-110800000D01*
X111250000Y-111749999D01*
X110750000Y-111749999D01*
X110750000Y-110800000D01*
X108825001Y-110800000D01*
X108825001Y-111049980D01*
X107000500Y-111049980D01*
X107000500Y-110050018D01*
X108825000Y-110050018D01*
X108825000Y-110300000D01*
X110750000Y-110300000D01*
X111250000Y-110300000D01*
X113174999Y-110300000D01*
X113174999Y-110050019D01*
X113174999Y-110050018D01*
X113325000Y-110050018D01*
X113325000Y-110300000D01*
X115250000Y-110300000D01*
X115750000Y-110300000D01*
X117674999Y-110300000D01*
X117674999Y-110050019D01*
X117664668Y-109948904D01*
X117950000Y-109948904D01*
X117950000Y-110400000D01*
X118950000Y-110400000D01*
X118950000Y-109150000D01*
X118748904Y-109150000D01*
X118706182Y-109152896D01*
X118521477Y-109198831D01*
X118350971Y-109283394D01*
X118350970Y-109283395D01*
X118202632Y-109402632D01*
X118083395Y-109550970D01*
X118083394Y-109550971D01*
X117998831Y-109721477D01*
X117952896Y-109906182D01*
X117950000Y-109948904D01*
X117664668Y-109948904D01*
X117664505Y-109947304D01*
X117609359Y-109780880D01*
X117609358Y-109780877D01*
X117517315Y-109631654D01*
X117393345Y-109507684D01*
X117244122Y-109415641D01*
X117244119Y-109415640D01*
X117077695Y-109360494D01*
X116974981Y-109350000D01*
X115750000Y-109350000D01*
X115750000Y-110300000D01*
X115250000Y-110300000D01*
X115250000Y-109350000D01*
X114025019Y-109350000D01*
X113922304Y-109360494D01*
X113755880Y-109415640D01*
X113755877Y-109415641D01*
X113606654Y-109507684D01*
X113482684Y-109631654D01*
X113390641Y-109780877D01*
X113390640Y-109780880D01*
X113335494Y-109947304D01*
X113325000Y-110050018D01*
X113174999Y-110050018D01*
X113164505Y-109947304D01*
X113109359Y-109780880D01*
X113109358Y-109780877D01*
X113017315Y-109631654D01*
X112893345Y-109507684D01*
X112744122Y-109415641D01*
X112744119Y-109415640D01*
X112577695Y-109360494D01*
X112474981Y-109350000D01*
X111250000Y-109350000D01*
X111250000Y-110300000D01*
X110750000Y-110300000D01*
X110750000Y-109350000D01*
X109525019Y-109350000D01*
X109422304Y-109360494D01*
X109255880Y-109415640D01*
X109255877Y-109415641D01*
X109106654Y-109507684D01*
X108982684Y-109631654D01*
X108890641Y-109780877D01*
X108890640Y-109780880D01*
X108835494Y-109947304D01*
X108825000Y-110050018D01*
X107000500Y-110050018D01*
X107000500Y-88047834D01*
X108000000Y-88047834D01*
X108006401Y-88107372D01*
X108006401Y-88107373D01*
X108056648Y-88242091D01*
X108142811Y-88357188D01*
X108257908Y-88443351D01*
X108392626Y-88493598D01*
X108452166Y-88500000D01*
X109250000Y-88500000D01*
X109250000Y-87250000D01*
X108000000Y-87250000D01*
X108000000Y-88047834D01*
X107000500Y-88047834D01*
X107000500Y-85952165D01*
X108000000Y-85952165D01*
X108000000Y-86750000D01*
X109250000Y-86750000D01*
X109250000Y-85500000D01*
X108452166Y-85500000D01*
X108392627Y-85506401D01*
X108392626Y-85506401D01*
X108257908Y-85556648D01*
X108142811Y-85642811D01*
X108056648Y-85757908D01*
X108006401Y-85892626D01*
X108006401Y-85892627D01*
X108000000Y-85952165D01*
X107000500Y-85952165D01*
X107000500Y-81547834D01*
X108000000Y-81547834D01*
X108006401Y-81607372D01*
X108006401Y-81607373D01*
X108056648Y-81742091D01*
X108142811Y-81857188D01*
X108257908Y-81943351D01*
X108392626Y-81993598D01*
X108452166Y-82000000D01*
X109250000Y-82000000D01*
X109750000Y-82000000D01*
X110547834Y-82000000D01*
X110607372Y-81993598D01*
X110607373Y-81993598D01*
X110742091Y-81943351D01*
X110857188Y-81857188D01*
X110943351Y-81742091D01*
X110993598Y-81607373D01*
X110993598Y-81607372D01*
X111000000Y-81547834D01*
X111000000Y-80750000D01*
X109750000Y-80750000D01*
X109750000Y-82000000D01*
X109250000Y-82000000D01*
X109250000Y-80750000D01*
X108000000Y-80750000D01*
X108000000Y-81547834D01*
X107000500Y-81547834D01*
X107000500Y-79452165D01*
X108000000Y-79452165D01*
X108000000Y-80250000D01*
X109250000Y-80250000D01*
X109750000Y-80250000D01*
X111000000Y-80250000D01*
X111000000Y-79452165D01*
X110993598Y-79392627D01*
X110993598Y-79392626D01*
X110943351Y-79257908D01*
X110857188Y-79142811D01*
X110742091Y-79056648D01*
X110607373Y-79006401D01*
X110547834Y-79000000D01*
X109750000Y-79000000D01*
X109750000Y-80250000D01*
X109250000Y-80250000D01*
X109250000Y-79000000D01*
X108452166Y-79000000D01*
X108392627Y-79006401D01*
X108392626Y-79006401D01*
X108257908Y-79056648D01*
X108142811Y-79142811D01*
X108056648Y-79257908D01*
X108006401Y-79392626D01*
X108006401Y-79392627D01*
X108000000Y-79452165D01*
X107000500Y-79452165D01*
X107000500Y-75049500D01*
X107014852Y-75014852D01*
X107049500Y-75000500D01*
X123052233Y-75000500D01*
X123086881Y-75014852D01*
G37*
%TD.AperFunction*%
%TA.AperFunction,Conductor*%
G36*
X117818905Y-114465352D02*
G01*
X117833257Y-114500000D01*
X117818905Y-114534648D01*
X117794854Y-114558698D01*
X117800000Y-114539496D01*
X117800000Y-114460504D01*
X117794854Y-114441301D01*
X117818905Y-114465352D01*
G37*
%TD.AperFunction*%
%TD*%
%TA.AperFunction,NonConductor*%
G36*
X123865648Y-77118568D02*
G01*
X123880000Y-77153216D01*
X123880000Y-83446783D01*
X123865648Y-83481431D01*
X123831000Y-83495783D01*
X123796352Y-83481431D01*
X123514852Y-83199931D01*
X123500500Y-83165283D01*
X123500500Y-77434716D01*
X123514852Y-77400068D01*
X123796352Y-77118568D01*
X123831000Y-77104216D01*
X123865648Y-77118568D01*
G37*
%TD.AperFunction*%
%TA.AperFunction,NonConductor*%
G36*
X122869508Y-90514852D02*
G01*
X122883860Y-90549500D01*
X122869508Y-90584148D01*
X122864225Y-90588726D01*
X122792454Y-90642454D01*
X122706205Y-90757666D01*
X122655907Y-90892520D01*
X122649500Y-90952120D01*
X122649500Y-91966284D01*
X122635148Y-92000932D01*
X122600500Y-92015284D01*
X122565853Y-92000932D01*
X121929933Y-91365013D01*
X121929932Y-91365011D01*
X121787781Y-91222860D01*
X121733650Y-91186691D01*
X121623914Y-91113368D01*
X121623911Y-91113366D01*
X121623910Y-91113366D01*
X121468988Y-91049196D01*
X121441836Y-91037949D01*
X121345188Y-91018724D01*
X121248546Y-90999500D01*
X121248541Y-90999500D01*
X120549482Y-90999500D01*
X120514834Y-90985148D01*
X120500692Y-90953426D01*
X120500640Y-90953432D01*
X120500622Y-90953269D01*
X120500552Y-90953111D01*
X120500499Y-90952122D01*
X120494092Y-90892521D01*
X120494091Y-90892517D01*
X120443796Y-90757669D01*
X120357546Y-90642454D01*
X120285775Y-90588726D01*
X120266639Y-90556473D01*
X120275914Y-90520135D01*
X120308167Y-90500999D01*
X120315140Y-90500500D01*
X122834860Y-90500500D01*
X122869508Y-90514852D01*
G37*
%TD.AperFunction*%
%TA.AperFunction,NonConductor*%
G36*
X141599932Y-88514852D02*
G01*
X141985148Y-88900068D01*
X141999500Y-88934716D01*
X141999500Y-91477226D01*
X142018724Y-91573868D01*
X142037949Y-91670515D01*
X142053544Y-91708165D01*
X142053544Y-91708166D01*
X142091554Y-91799931D01*
X142113368Y-91852594D01*
X142186691Y-91962330D01*
X142222860Y-92016461D01*
X142365008Y-92158609D01*
X142365014Y-92158614D01*
X142622252Y-92415852D01*
X142636604Y-92450500D01*
X142622252Y-92485148D01*
X142587604Y-92499500D01*
X141165140Y-92499500D01*
X141130492Y-92485148D01*
X141116140Y-92450500D01*
X141130492Y-92415852D01*
X141135775Y-92411274D01*
X141143062Y-92405818D01*
X141207546Y-92357546D01*
X141293796Y-92242331D01*
X141344091Y-92107483D01*
X141344091Y-92107481D01*
X141344092Y-92107479D01*
X141350499Y-92047879D01*
X141350500Y-92047873D01*
X141350499Y-90952128D01*
X141350499Y-90952127D01*
X141350499Y-90952120D01*
X141344092Y-90892521D01*
X141344091Y-90892517D01*
X141293796Y-90757669D01*
X141207546Y-90642454D01*
X141135775Y-90588726D01*
X141092332Y-90556204D01*
X141092330Y-90556203D01*
X141064731Y-90545909D01*
X141037284Y-90520354D01*
X141035946Y-90482874D01*
X141061501Y-90455427D01*
X141064709Y-90454098D01*
X141092331Y-90443796D01*
X141207546Y-90357546D01*
X141293796Y-90242331D01*
X141344091Y-90107483D01*
X141344091Y-90107481D01*
X141344092Y-90107479D01*
X141350499Y-90047879D01*
X141350500Y-90047873D01*
X141350499Y-88952128D01*
X141350499Y-88952127D01*
X141350499Y-88952120D01*
X141344092Y-88892521D01*
X141332790Y-88862218D01*
X141293796Y-88757669D01*
X141207546Y-88642454D01*
X141135775Y-88588726D01*
X141116639Y-88556473D01*
X141125914Y-88520135D01*
X141158167Y-88500999D01*
X141165140Y-88500500D01*
X141565284Y-88500500D01*
X141599932Y-88514852D01*
G37*
%TD.AperFunction*%
%TA.AperFunction,NonConductor*%
G36*
X117485148Y-91549067D02*
G01*
X117499500Y-91583715D01*
X117499500Y-93047879D01*
X117505907Y-93107478D01*
X117505909Y-93107483D01*
X117556204Y-93242331D01*
X117642454Y-93357546D01*
X117757669Y-93443796D01*
X117892517Y-93494091D01*
X117892520Y-93494092D01*
X117936177Y-93498785D01*
X117952127Y-93500500D01*
X120047872Y-93500499D01*
X120047878Y-93500499D01*
X120107478Y-93494092D01*
X120107479Y-93494091D01*
X120107483Y-93494091D01*
X120242331Y-93443796D01*
X120357546Y-93357546D01*
X120443796Y-93242331D01*
X120494091Y-93107483D01*
X120494091Y-93107481D01*
X120494092Y-93107479D01*
X120500500Y-93047875D01*
X120500553Y-93046890D01*
X120500621Y-93046745D01*
X120500641Y-93046568D01*
X120500703Y-93046574D01*
X120516729Y-93013055D01*
X120549483Y-93000500D01*
X120715284Y-93000500D01*
X120749932Y-93014852D01*
X121650931Y-93915852D01*
X121665283Y-93950500D01*
X121650931Y-93985148D01*
X121616283Y-93999500D01*
X116605164Y-93999500D01*
X116570516Y-93985148D01*
X116556164Y-93950500D01*
X116570516Y-93915852D01*
X116592712Y-93893656D01*
X116684814Y-93744335D01*
X116739999Y-93577798D01*
X116750500Y-93475010D01*
X116750500Y-92234715D01*
X116764851Y-92200068D01*
X117415852Y-91549066D01*
X117450500Y-91534715D01*
X117485148Y-91549067D01*
G37*
%TD.AperFunction*%
%TA.AperFunction,NonConductor*%
G36*
X151985148Y-75014852D02*
G01*
X151999500Y-75049500D01*
X151999500Y-94602323D01*
X151985148Y-94636971D01*
X151950500Y-94651323D01*
X151915852Y-94636971D01*
X147014852Y-89735971D01*
X147000500Y-89701323D01*
X147000500Y-86901459D01*
X147000499Y-86901455D01*
X146971897Y-86757666D01*
X146962051Y-86708165D01*
X146886632Y-86526086D01*
X146777139Y-86362218D01*
X146637782Y-86222861D01*
X146637781Y-86222860D01*
X143014852Y-82599931D01*
X143000500Y-82565283D01*
X143000500Y-77100971D01*
X143000501Y-77100950D01*
X143000501Y-76901460D01*
X143000500Y-76901454D01*
X142962054Y-76708176D01*
X142962053Y-76708172D01*
X142962052Y-76708165D01*
X142886632Y-76526086D01*
X142777140Y-76362219D01*
X141779933Y-75365013D01*
X141779932Y-75365011D01*
X141637781Y-75222860D01*
X141597228Y-75195763D01*
X141473914Y-75113368D01*
X141473910Y-75113366D01*
X141473908Y-75113365D01*
X141429016Y-75094770D01*
X141402497Y-75068251D01*
X141402497Y-75030749D01*
X141429016Y-75004230D01*
X141447767Y-75000500D01*
X151950500Y-75000500D01*
X151985148Y-75014852D01*
G37*
%TD.AperFunction*%
%TA.AperFunction,NonConductor*%
G36*
X142599932Y-94514852D02*
G01*
X145500932Y-97415852D01*
X145515284Y-97450500D01*
X145500932Y-97485148D01*
X145466284Y-97499500D01*
X145395058Y-97499500D01*
X145360410Y-97485148D01*
X145354316Y-97477723D01*
X145277139Y-97362217D01*
X145136568Y-97221646D01*
X145136537Y-97221617D01*
X142778854Y-94863934D01*
X142778850Y-94863929D01*
X142637781Y-94722860D01*
X142583650Y-94686691D01*
X142473914Y-94613368D01*
X142473911Y-94613366D01*
X142473910Y-94613366D01*
X142429014Y-94594770D01*
X142402495Y-94568252D01*
X142402495Y-94530749D01*
X142429013Y-94504230D01*
X142447765Y-94500500D01*
X142565284Y-94500500D01*
X142599932Y-94514852D01*
G37*
%TD.AperFunction*%
%TA.AperFunction,NonConductor*%
G36*
X143084148Y-100280491D02*
G01*
X143088721Y-100285769D01*
X143142454Y-100357546D01*
X143257669Y-100443796D01*
X143392517Y-100494091D01*
X143392520Y-100494092D01*
X143436177Y-100498785D01*
X143452127Y-100500500D01*
X145547872Y-100500499D01*
X145547878Y-100500499D01*
X145607478Y-100494092D01*
X145607479Y-100494091D01*
X145607483Y-100494091D01*
X145742331Y-100443796D01*
X145857546Y-100357546D01*
X145911274Y-100285773D01*
X145943527Y-100266638D01*
X145979865Y-100275913D01*
X145999001Y-100308166D01*
X145999500Y-100315139D01*
X145999500Y-102515283D01*
X145985148Y-102549931D01*
X145299932Y-103235148D01*
X145265284Y-103249500D01*
X144024988Y-103249500D01*
X143922204Y-103260000D01*
X143755664Y-103315186D01*
X143606344Y-103407287D01*
X143534648Y-103478984D01*
X143500000Y-103493336D01*
X143465352Y-103478984D01*
X143393655Y-103407287D01*
X143244335Y-103315186D01*
X143077798Y-103260001D01*
X143056544Y-103257829D01*
X143044519Y-103256601D01*
X143011509Y-103238802D01*
X143000500Y-103207855D01*
X143000500Y-100315139D01*
X143014852Y-100280491D01*
X143049500Y-100266139D01*
X143084148Y-100280491D01*
G37*
%TD.AperFunction*%
%TA.AperFunction,NonConductor*%
G36*
X121599932Y-96014852D02*
G01*
X121721617Y-96136537D01*
X121721646Y-96136568D01*
X121792745Y-96207666D01*
X121862218Y-96277139D01*
X122026086Y-96386632D01*
X122046783Y-96395205D01*
X122070985Y-96405230D01*
X122097504Y-96431749D01*
X122097504Y-96469251D01*
X122070985Y-96495770D01*
X122052234Y-96499500D01*
X120930717Y-96499500D01*
X120896069Y-96485148D01*
X120884807Y-96467625D01*
X120843796Y-96357669D01*
X120757546Y-96242454D01*
X120655476Y-96166044D01*
X120642333Y-96156205D01*
X120642331Y-96156204D01*
X120589601Y-96136537D01*
X120507479Y-96105907D01*
X120447879Y-96099500D01*
X118552120Y-96099500D01*
X118492521Y-96105907D01*
X118357666Y-96156205D01*
X118242454Y-96242454D01*
X118156205Y-96357666D01*
X118105907Y-96492520D01*
X118099500Y-96552120D01*
X118099500Y-98447879D01*
X118105907Y-98507478D01*
X118115193Y-98532376D01*
X118156204Y-98642331D01*
X118242454Y-98757546D01*
X118357669Y-98843796D01*
X118488592Y-98892627D01*
X118492520Y-98894092D01*
X118547392Y-98899991D01*
X118580308Y-98917964D01*
X118590874Y-98953947D01*
X118572901Y-98986863D01*
X118572253Y-98987377D01*
X118548213Y-99006088D01*
X118532015Y-99023686D01*
X118497990Y-99039458D01*
X118495964Y-99039500D01*
X117861453Y-99039500D01*
X117668172Y-99077946D01*
X117668165Y-99077948D01*
X117640278Y-99089500D01*
X117640277Y-99089500D01*
X117486089Y-99153366D01*
X117322218Y-99262860D01*
X114722860Y-101862218D01*
X114613366Y-102026089D01*
X114577691Y-102112218D01*
X114577691Y-102112219D01*
X114537950Y-102208160D01*
X114537948Y-102208166D01*
X114532061Y-102237763D01*
X114524229Y-102277139D01*
X114499500Y-102401455D01*
X114499500Y-103200500D01*
X114485148Y-103235148D01*
X114450500Y-103249500D01*
X114024988Y-103249500D01*
X113922204Y-103260000D01*
X113755664Y-103315186D01*
X113606344Y-103407287D01*
X113482287Y-103531344D01*
X113390186Y-103680664D01*
X113335000Y-103847204D01*
X113324500Y-103949987D01*
X113324500Y-104950012D01*
X113335000Y-105052795D01*
X113335001Y-105052798D01*
X113390186Y-105219335D01*
X113482288Y-105368656D01*
X113606344Y-105492712D01*
X113755665Y-105584814D01*
X113922202Y-105639999D01*
X113973596Y-105645249D01*
X114024988Y-105650500D01*
X114024990Y-105650500D01*
X116975012Y-105650500D01*
X117016125Y-105646299D01*
X117077798Y-105639999D01*
X117244335Y-105584814D01*
X117393656Y-105492712D01*
X117517712Y-105368656D01*
X117609814Y-105219335D01*
X117664999Y-105052798D01*
X117675500Y-104950010D01*
X117675500Y-103949990D01*
X117664999Y-103847202D01*
X117609814Y-103680665D01*
X117517712Y-103531344D01*
X117393656Y-103407288D01*
X117393655Y-103407287D01*
X117244335Y-103315186D01*
X117077795Y-103260000D01*
X116975012Y-103249500D01*
X116975010Y-103249500D01*
X116549500Y-103249500D01*
X116514852Y-103235148D01*
X116500500Y-103200500D01*
X116500500Y-102934716D01*
X116514852Y-102900068D01*
X118360069Y-101054852D01*
X118394717Y-101040500D01*
X118495964Y-101040500D01*
X118530612Y-101054852D01*
X118532012Y-101056311D01*
X118548216Y-101073913D01*
X118731374Y-101216470D01*
X118731381Y-101216474D01*
X118731383Y-101216475D01*
X118935489Y-101326932D01*
X118935491Y-101326932D01*
X118935497Y-101326936D01*
X119155019Y-101402298D01*
X119383951Y-101440500D01*
X119383954Y-101440500D01*
X119616046Y-101440500D01*
X119616049Y-101440500D01*
X119844981Y-101402298D01*
X120064503Y-101326936D01*
X120268626Y-101216470D01*
X120451784Y-101073913D01*
X120608979Y-100903153D01*
X120735924Y-100708849D01*
X120829157Y-100496300D01*
X120886134Y-100271305D01*
X120905300Y-100040000D01*
X120886134Y-99808695D01*
X120829157Y-99583700D01*
X120735924Y-99371151D01*
X120735922Y-99371148D01*
X120735918Y-99371141D01*
X120608982Y-99176851D01*
X120608980Y-99176849D01*
X120608979Y-99176847D01*
X120451784Y-99006087D01*
X120427744Y-98987376D01*
X120409218Y-98954770D01*
X120419174Y-98918612D01*
X120451781Y-98900085D01*
X120452591Y-98899991D01*
X120463109Y-98898861D01*
X120507478Y-98894092D01*
X120507479Y-98894091D01*
X120507483Y-98894091D01*
X120642331Y-98843796D01*
X120757546Y-98757546D01*
X120843796Y-98642331D01*
X120884806Y-98532375D01*
X120910361Y-98504928D01*
X120930717Y-98500500D01*
X122834860Y-98500500D01*
X122869508Y-98514852D01*
X122883860Y-98549500D01*
X122869508Y-98584148D01*
X122864225Y-98588726D01*
X122792454Y-98642454D01*
X122706205Y-98757666D01*
X122655907Y-98892520D01*
X122649500Y-98952120D01*
X122649500Y-100047879D01*
X122655907Y-100107478D01*
X122706205Y-100242333D01*
X122734771Y-100280491D01*
X122792454Y-100357546D01*
X122907669Y-100443796D01*
X123042517Y-100494091D01*
X123042520Y-100494092D01*
X123086177Y-100498785D01*
X123102127Y-100500500D01*
X123316284Y-100500499D01*
X123350932Y-100514851D01*
X123365284Y-100549499D01*
X123350932Y-100584147D01*
X121099930Y-102835149D01*
X121065282Y-102849501D01*
X120041957Y-102849501D01*
X120041952Y-102849502D01*
X119922588Y-102860114D01*
X119922582Y-102860114D01*
X119922582Y-102860115D01*
X119922581Y-102860115D01*
X119922577Y-102860116D01*
X119726956Y-102916089D01*
X119546591Y-103010304D01*
X119388891Y-103138892D01*
X119260303Y-103296592D01*
X119166088Y-103476957D01*
X119110113Y-103672584D01*
X119099500Y-103791954D01*
X119099500Y-104908043D01*
X119099501Y-104908048D01*
X119110113Y-105027412D01*
X119110115Y-105027423D01*
X119166088Y-105223044D01*
X119166090Y-105223049D01*
X119166091Y-105223050D01*
X119260302Y-105403408D01*
X119388891Y-105561110D01*
X119546593Y-105689699D01*
X119726951Y-105783910D01*
X119726953Y-105783910D01*
X119726956Y-105783912D01*
X119824517Y-105811827D01*
X119922582Y-105839887D01*
X119922581Y-105839887D01*
X119950685Y-105842385D01*
X120041963Y-105850501D01*
X120450500Y-105850500D01*
X120485148Y-105864852D01*
X120499500Y-105899500D01*
X120499500Y-106450500D01*
X120485148Y-106485148D01*
X120450500Y-106499500D01*
X109934716Y-106499500D01*
X109900068Y-106485148D01*
X109339852Y-105924932D01*
X109325500Y-105890284D01*
X109325500Y-105675812D01*
X109339852Y-105641164D01*
X109374500Y-105626812D01*
X109389910Y-105629298D01*
X109422202Y-105639999D01*
X109473596Y-105645249D01*
X109524988Y-105650500D01*
X109524990Y-105650500D01*
X112475012Y-105650500D01*
X112516125Y-105646299D01*
X112577798Y-105639999D01*
X112744335Y-105584814D01*
X112893656Y-105492712D01*
X113017712Y-105368656D01*
X113109814Y-105219335D01*
X113164999Y-105052798D01*
X113175500Y-104950010D01*
X113175500Y-103949990D01*
X113164999Y-103847202D01*
X113109814Y-103680665D01*
X113017712Y-103531344D01*
X112893656Y-103407288D01*
X112893655Y-103407287D01*
X112744335Y-103315186D01*
X112577795Y-103260000D01*
X112475012Y-103249500D01*
X112475010Y-103249500D01*
X112283716Y-103249500D01*
X112249068Y-103235148D01*
X112234716Y-103200500D01*
X112249068Y-103165852D01*
X112706755Y-102708165D01*
X113277139Y-102137782D01*
X113386631Y-101973915D01*
X113386632Y-101973914D01*
X113462051Y-101791835D01*
X113500500Y-101598541D01*
X113500500Y-101040113D01*
X113513448Y-101006927D01*
X113608979Y-100903153D01*
X113735924Y-100708849D01*
X113829157Y-100496300D01*
X113886134Y-100271305D01*
X113905300Y-100040000D01*
X113886134Y-99808695D01*
X113829157Y-99583700D01*
X113735924Y-99371151D01*
X113735922Y-99371148D01*
X113735918Y-99371141D01*
X113608982Y-99176851D01*
X113608980Y-99176849D01*
X113608979Y-99176847D01*
X113451784Y-99006087D01*
X113427744Y-98987376D01*
X113409218Y-98954770D01*
X113419174Y-98918612D01*
X113451781Y-98900085D01*
X113452591Y-98899991D01*
X113463109Y-98898861D01*
X113507478Y-98894092D01*
X113507479Y-98894091D01*
X113507483Y-98894091D01*
X113642331Y-98843796D01*
X113757546Y-98757546D01*
X113843796Y-98642331D01*
X113894091Y-98507483D01*
X113894091Y-98507481D01*
X113894092Y-98507479D01*
X113900499Y-98447879D01*
X113900500Y-98447873D01*
X113900499Y-96552128D01*
X113900499Y-96552127D01*
X113900499Y-96552120D01*
X113894092Y-96492521D01*
X113894091Y-96492517D01*
X113843796Y-96357669D01*
X113757546Y-96242454D01*
X113754156Y-96239916D01*
X113735022Y-96207666D01*
X113744296Y-96171327D01*
X113748867Y-96166052D01*
X113900069Y-96014852D01*
X113934717Y-96000500D01*
X121565284Y-96000500D01*
X121599932Y-96014852D01*
G37*
%TD.AperFunction*%
%TA.AperFunction,NonConductor*%
G36*
X151985148Y-114241708D02*
G01*
X151999500Y-114276356D01*
X151999500Y-127950500D01*
X151985148Y-127985148D01*
X151950500Y-127999500D01*
X147776356Y-127999500D01*
X147741708Y-127985148D01*
X147727356Y-127950500D01*
X147741708Y-127915852D01*
X147818356Y-127839203D01*
X149634988Y-126022570D01*
X149634995Y-126022565D01*
X149637780Y-126019780D01*
X149637782Y-126019779D01*
X149777139Y-125880422D01*
X149886632Y-125716554D01*
X149962051Y-125534475D01*
X150000500Y-125341181D01*
X150000500Y-116177356D01*
X150014852Y-116142708D01*
X151915852Y-114241708D01*
X151950500Y-114227356D01*
X151985148Y-114241708D01*
G37*
%TD.AperFunction*%
M02*
