  0
SECTION
  2
HEADER
  9
$ANGBASE
  50
0.0
  9
$ANGDIR
  70
1
  9
$MEASUREMENT
  70
1
  0
ENDSEC
  0
SECTION
  2
TABLES
  0
TABLE
  2
LTYPE
  70
4
  0
LTYPE
  5
40F
  2
CONTINUOUS
  70
0
  3
Solid line
  72
65
  73
0
  40
0.0
  0
LTYPE
  5
410
  2
DASHDOT
 70
0
  3
Dash Dot ____ _ ____ _
 72
65
 73
4
 40
2.0
 49
1.25
 49
-0.25
 49
0.25
 49
-0.25
  0
LTYPE
  5
411
  2
DASHED
 70
0
  3
Dashed __ __ __ __ __
 72
65
 73
2
 40
0.75
 49
0.5
 49
-0.25
  0
LTYPE
  5
43B
  2
DOTTED
 70
0
  3
Dotted .  .  .  .
 72
65
 73
2
 40
0.2
 49
0.0
 49
-0.2
  0
ENDTAB
  0
TABLE
  2
STYLE
  70
4
  0
STYLE
  2
KICAD
  70
0
  40
0
  41
1
  42
1
  50
0
  71
0
  3
isocp.shx
  0
STYLE
  2
KICADB
  70
0
  40
0
  41
1
  42
1
  50
0
  71
0
  3
isocp.shx
  0
STYLE
  2
KICADI
  70
0
  40
0
  41
1
  42
1
  50
15
  71
0
  3
isocp.shx
  0
STYLE
  2
KICADBI
  70
0
  40
0
  41
1
  42
1
  50
15
  71
0
  3
isocp.shx
  0
ENDTAB
  0
TABLE
  2
LAYER
  70
1
  0
LAYER
  2
BLACK
  70
0
  62
7
  6
CONTINUOUS
  0
ENDTAB
  0
ENDSEC
  0
SECTION
  2
ENTITIES
0
LINE
8
BLACK
6
CONTINUOUS
10
140.8499999999999943
20
-95.
11
152.5
21
-95.
0
LINE
8
BLACK
6
CONTINUOUS
10
152.5
20
-95.
11
152.5652479999999969
21
-95.0042770000000019
0
LINE
8
BLACK
6
CONTINUOUS
10
152.5652479999999969
20
-95.0042770000000019
11
152.5652629999999874
21
-95.0042770000000019
0
LINE
8
BLACK
6
CONTINUOUS
10
152.5652629999999874
20
-95.0042770000000019
11
152.6913419999999917
21
-95.0380600000000015
0
LINE
8
BLACK
6
CONTINUOUS
10
152.6913419999999917
20
-95.0380600000000015
11
152.8043810000000065
21
-95.103322999999989
0
LINE
8
BLACK
6
CONTINUOUS
10
152.8043810000000065
20
-95.103322999999989
11
152.804395999999997
21
-95.1033379999999937
0
LINE
8
BLACK
6
CONTINUOUS
10
152.804395999999997
20
-95.1033379999999937
11
152.8535530000000051
21
-95.1464469999999949
0
LINE
8
BLACK
6
CONTINUOUS
10
152.8535530000000051
20
-95.1464469999999949
11
154.3535530000000051
21
-96.6464459999999974
0
LINE
8
BLACK
6
CONTINUOUS
10
154.3535530000000051
20
-96.6464459999999974
11
154.3966680000000053
21
-96.6956100000000021
0
LINE
8
BLACK
6
CONTINUOUS
10
154.3966680000000053
20
-96.6956100000000021
11
154.3966769999999826
21
-96.6956189999999935
0
LINE
8
BLACK
6
CONTINUOUS
10
154.3966769999999826
20
-96.6956189999999935
11
154.4619399999999985
21
-96.8086579999999941
0
LINE
8
BLACK
6
CONTINUOUS
10
154.4619399999999985
20
-96.8086579999999941
11
154.4957229999999981
21
-96.9347369999999984
0
LINE
8
BLACK
6
CONTINUOUS
10
154.4957229999999981
20
-96.9347369999999984
11
154.4957229999999981
21
-96.9347519999999889
0
LINE
8
BLACK
6
CONTINUOUS
10
154.4957229999999981
20
-96.9347519999999889
11
154.5
21
-97.
0
LINE
8
BLACK
6
CONTINUOUS
10
154.5
20
-97.
11
154.5
21
-110.
0
LINE
8
BLACK
6
CONTINUOUS
10
154.5
20
-110.
11
154.4957229999999981
21
-110.0652469999999994
0
LINE
8
BLACK
6
CONTINUOUS
10
154.4957229999999981
20
-110.0652469999999994
11
154.4957229999999981
21
-110.0652630000000016
0
LINE
8
BLACK
6
CONTINUOUS
10
154.4957229999999981
20
-110.0652630000000016
11
154.4658569999999997
21
-110.1767249999999905
0
LINE
8
BLACK
6
CONTINUOUS
10
154.4658569999999997
20
-110.1767249999999905
11
154.4619399999999985
21
-110.1913419999999917
0
LINE
8
BLACK
6
CONTINUOUS
10
154.4619399999999985
20
-110.1913419999999917
11
154.3966769999999826
21
-110.3043809999999922
0
LINE
8
BLACK
6
CONTINUOUS
10
154.3966769999999826
20
-110.3043809999999922
11
154.3966680000000053
21
-110.3043890000000005
0
LINE
8
BLACK
6
CONTINUOUS
10
154.3966680000000053
20
-110.3043890000000005
11
154.3535530000000051
21
-110.3535539999999884
0
LINE
8
BLACK
6
CONTINUOUS
10
154.3535530000000051
20
-110.3535539999999884
11
148.
21
-116.707105999999996
0
LINE
8
BLACK
6
CONTINUOUS
10
148.
20
-116.707105999999996
11
148.
21
-120.5
0
LINE
8
BLACK
6
CONTINUOUS
10
148.
20
-120.5
11
147.9957229999999981
21
-120.5652469999999994
0
LINE
8
BLACK
6
CONTINUOUS
10
147.9957229999999981
20
-120.5652469999999994
11
147.9957229999999981
21
-120.5652630000000016
0
LINE
8
BLACK
6
CONTINUOUS
10
147.9957229999999981
20
-120.5652630000000016
11
147.9637099999999919
21
-120.6847369999999984
0
LINE
8
BLACK
6
CONTINUOUS
10
147.9637099999999919
20
-120.6847369999999984
11
147.9619399999999985
21
-120.6913419999999917
0
LINE
8
BLACK
6
CONTINUOUS
10
147.9619399999999985
20
-120.6913419999999917
11
147.8966769999999826
21
-120.8043809999999922
0
LINE
8
BLACK
6
CONTINUOUS
10
147.8966769999999826
20
-120.8043809999999922
11
147.8966680000000053
21
-120.8043890000000005
0
LINE
8
BLACK
6
CONTINUOUS
10
147.8966680000000053
20
-120.8043890000000005
11
147.8535530000000051
21
-120.8535539999999884
0
LINE
8
BLACK
6
CONTINUOUS
10
147.8535530000000051
20
-120.8535539999999884
11
144.3535530000000051
21
-124.3535529999999909
0
LINE
8
BLACK
6
CONTINUOUS
10
144.3535530000000051
20
-124.3535529999999909
11
144.304395999999997
21
-124.3966609999999946
0
LINE
8
BLACK
6
CONTINUOUS
10
144.304395999999997
20
-124.3966609999999946
11
144.3043810000000065
21
-124.3966769999999968
0
LINE
8
BLACK
6
CONTINUOUS
10
144.3043810000000065
20
-124.3966769999999968
11
144.1913419999999917
21
-124.4619399999999985
0
LINE
8
BLACK
6
CONTINUOUS
10
144.1913419999999917
20
-124.4619399999999985
11
144.0652629999999874
21
-124.4957229999999981
0
LINE
8
BLACK
6
CONTINUOUS
10
144.0652629999999874
20
-124.4957229999999981
11
144.0652479999999969
21
-124.4957229999999981
0
LINE
8
BLACK
6
CONTINUOUS
10
144.0652479999999969
20
-124.4957229999999981
11
144.
21
-124.5
0
LINE
8
BLACK
6
CONTINUOUS
10
144.
20
-124.5
11
138.2071070000000077
21
-124.5
0
LINE
8
BLACK
6
CONTINUOUS
10
138.2071070000000077
20
-124.5
11
136.8535530000000051
21
-125.8535529999999909
0
LINE
8
BLACK
6
CONTINUOUS
10
136.8535530000000051
20
-125.8535529999999909
11
136.804395999999997
21
-125.8966609999999946
0
LINE
8
BLACK
6
CONTINUOUS
10
136.804395999999997
20
-125.8966609999999946
11
136.8043810000000065
21
-125.8966769999999968
0
LINE
8
BLACK
6
CONTINUOUS
10
136.8043810000000065
20
-125.8966769999999968
11
136.6913419999999917
21
-125.9619399999999985
0
LINE
8
BLACK
6
CONTINUOUS
10
136.6913419999999917
20
-125.9619399999999985
11
136.5652629999999874
21
-125.9957229999999981
0
LINE
8
BLACK
6
CONTINUOUS
10
136.5652629999999874
20
-125.9957229999999981
11
136.5652479999999969
21
-125.9957229999999981
0
LINE
8
BLACK
6
CONTINUOUS
10
136.5652479999999969
20
-125.9957229999999981
11
136.5
21
-126.
0
LINE
8
BLACK
6
CONTINUOUS
10
136.5
20
-126.
11
125.25
21
-126.
0
LINE
8
BLACK
6
CONTINUOUS
10
125.25
20
-126.
11
125.1847519999999889
21
-125.9957229999999981
0
LINE
8
BLACK
6
CONTINUOUS
10
125.1847519999999889
20
-125.9957229999999981
11
125.1847369999999984
21
-125.9957229999999981
0
LINE
8
BLACK
6
CONTINUOUS
10
125.1847369999999984
20
-125.9957229999999981
11
125.0586579999999941
21
-125.9619399999999985
0
LINE
8
BLACK
6
CONTINUOUS
10
125.0586579999999941
20
-125.9619399999999985
11
124.9456189999999935
21
-125.8966769999999968
0
LINE
8
BLACK
6
CONTINUOUS
10
124.9456189999999935
20
-125.8966769999999968
11
124.9456029999999913
21
-125.8966609999999946
0
LINE
8
BLACK
6
CONTINUOUS
10
124.9456029999999913
20
-125.8966609999999946
11
124.8964469999999949
21
-125.8535529999999909
0
LINE
8
BLACK
6
CONTINUOUS
10
124.8964469999999949
20
-125.8535529999999909
11
116.6464469999999949
21
-117.6035529999999909
0
LINE
8
BLACK
6
CONTINUOUS
10
116.6464469999999949
20
-117.6035529999999909
11
116.6033379999999937
21
-117.554395999999997
0
LINE
8
BLACK
6
CONTINUOUS
10
116.6033379999999937
20
-117.554395999999997
11
116.603322999999989
21
-117.5543809999999922
0
LINE
8
BLACK
6
CONTINUOUS
10
116.603322999999989
20
-117.5543809999999922
11
116.5380600000000015
21
-117.4413419999999917
0
LINE
8
BLACK
6
CONTINUOUS
10
116.5380600000000015
20
-117.4413419999999917
11
116.5362899999999939
21
-117.4347369999999984
0
LINE
8
BLACK
6
CONTINUOUS
10
116.5362899999999939
20
-117.4347369999999984
11
116.5042769999999877
21
-117.3152630000000016
0
LINE
8
BLACK
6
CONTINUOUS
10
116.5042769999999877
20
-117.3152630000000016
11
116.5042769999999877
21
-117.3152469999999994
0
LINE
8
BLACK
6
CONTINUOUS
10
116.5042769999999877
20
-117.3152469999999994
11
116.5
21
-117.25
0
LINE
8
BLACK
6
CONTINUOUS
10
116.5
20
-117.25
11
116.5
21
-114.207105999999996
0
LINE
8
BLACK
6
CONTINUOUS
10
116.5
20
-114.207105999999996
11
112.1864470000000011
21
-109.8935529999999972
0
LINE
8
BLACK
6
CONTINUOUS
10
112.1864470000000011
20
-109.8935529999999972
11
112.143338
21
-109.844395999999989
0
LINE
8
BLACK
6
CONTINUOUS
10
112.143338
20
-109.844395999999989
11
112.1433229999999952
21
-109.8443809999999985
0
LINE
8
BLACK
6
CONTINUOUS
10
112.1433229999999952
20
-109.8443809999999985
11
112.0780599999999936
21
-109.7313419999999979
0
LINE
8
BLACK
6
CONTINUOUS
10
112.0780599999999936
20
-109.7313419999999979
11
112.0442769999999939
21
-109.6052629999999937
0
LINE
8
BLACK
6
CONTINUOUS
10
112.0442769999999939
20
-109.6052629999999937
11
112.0442769999999939
21
-109.6052469999999914
0
LINE
8
BLACK
6
CONTINUOUS
10
112.0442769999999939
20
-109.6052469999999914
11
112.039999999999992
21
-109.539999999999992
0
LINE
8
BLACK
6
CONTINUOUS
10
112.039999999999992
20
-109.539999999999992
11
112.039999999999992
21
-107.6816309999999959
0
LINE
8
BLACK
6
CONTINUOUS
10
112.039999999999992
20
-107.6816309999999959
11
111.9712389999999971
21
-107.6316729999999922
0
LINE
8
BLACK
6
CONTINUOUS
10
111.9712389999999971
20
-107.6316729999999922
11
111.852335999999994
21
-107.4996170000000006
0
LINE
8
BLACK
6
CONTINUOUS
10
111.852335999999994
20
-107.4996170000000006
11
111.7634860000000003
21
-107.3457259999999991
0
LINE
8
BLACK
6
CONTINUOUS
10
111.7634860000000003
20
-107.3457259999999991
11
111.7085749999999962
21
-107.1767249999999905
0
LINE
8
BLACK
6
CONTINUOUS
10
111.7085749999999962
20
-107.1767249999999905
11
111.6899999999999977
21
-107.
0
LINE
8
BLACK
6
CONTINUOUS
10
111.6899999999999977
20
-107.
11
111.7085749999999962
21
-106.8232749999999953
0
LINE
8
BLACK
6
CONTINUOUS
10
111.7085749999999962
20
-106.8232749999999953
11
111.7634860000000003
21
-106.6542740000000009
0
LINE
8
BLACK
6
CONTINUOUS
10
111.7634860000000003
20
-106.6542740000000009
11
111.852335999999994
21
-106.5003829999999994
0
LINE
8
BLACK
6
CONTINUOUS
10
111.852335999999994
20
-106.5003829999999994
11
111.9712389999999971
21
-106.3683269999999936
0
LINE
8
BLACK
6
CONTINUOUS
10
111.9712389999999971
20
-106.3683269999999936
11
112.1149999999999949
21
-106.2638779999999912
0
LINE
8
BLACK
6
CONTINUOUS
10
112.1149999999999949
20
-106.2638779999999912
11
112.2773359999999911
21
-106.1916019999999889
0
LINE
8
BLACK
6
CONTINUOUS
10
112.2773359999999911
20
-106.1916019999999889
11
112.4511509999999959
21
-106.1546559999999886
0
LINE
8
BLACK
6
CONTINUOUS
10
112.4511509999999959
20
-106.1546559999999886
11
112.6288489999999882
21
-106.1546559999999886
0
LINE
8
BLACK
6
CONTINUOUS
10
112.6288489999999882
20
-106.1546559999999886
11
112.8026639999999929
21
-106.1916019999999889
0
LINE
8
BLACK
6
CONTINUOUS
10
112.8026639999999929
20
-106.1916019999999889
11
112.9649999999999892
21
-106.2638779999999912
0
LINE
8
BLACK
6
CONTINUOUS
10
112.9649999999999892
20
-106.2638779999999912
11
113.1087610000000012
21
-106.3683269999999936
0
LINE
8
BLACK
6
CONTINUOUS
10
113.1087610000000012
20
-106.3683269999999936
11
113.2276639999999901
21
-106.5003829999999994
0
LINE
8
BLACK
6
CONTINUOUS
10
113.2276639999999901
20
-106.5003829999999994
11
113.316513999999998
21
-106.6542740000000009
0
LINE
8
BLACK
6
CONTINUOUS
10
113.316513999999998
20
-106.6542740000000009
11
113.3714249999999879
21
-106.8232749999999953
0
LINE
8
BLACK
6
CONTINUOUS
10
113.3714249999999879
20
-106.8232749999999953
11
113.3900000000000006
21
-107.
0
LINE
8
BLACK
6
CONTINUOUS
10
113.3900000000000006
20
-107.
11
113.3714249999999879
21
-107.1767249999999905
0
LINE
8
BLACK
6
CONTINUOUS
10
113.3714249999999879
20
-107.1767249999999905
11
113.316513999999998
21
-107.3457259999999991
0
LINE
8
BLACK
6
CONTINUOUS
10
113.316513999999998
20
-107.3457259999999991
11
113.2276639999999901
21
-107.4996170000000006
0
LINE
8
BLACK
6
CONTINUOUS
10
113.2276639999999901
20
-107.4996170000000006
11
113.1087610000000012
21
-107.6316729999999922
0
LINE
8
BLACK
6
CONTINUOUS
10
113.1087610000000012
20
-107.6316729999999922
11
113.039999999999992
21
-107.6816309999999959
0
LINE
8
BLACK
6
CONTINUOUS
10
113.039999999999992
20
-107.6816309999999959
11
113.039999999999992
21
-109.3328929999999986
0
LINE
8
BLACK
6
CONTINUOUS
10
113.039999999999992
20
-109.3328929999999986
11
117.3535529999999909
21
-113.6464459999999974
0
LINE
8
BLACK
6
CONTINUOUS
10
117.3535529999999909
20
-113.6464459999999974
11
117.3966679999999911
21
-113.6956099999999878
0
LINE
8
BLACK
6
CONTINUOUS
10
117.3966679999999911
20
-113.6956099999999878
11
117.3966769999999968
21
-113.6956189999999935
0
LINE
8
BLACK
6
CONTINUOUS
10
117.3966769999999968
20
-113.6956189999999935
11
117.4619399999999985
21
-113.8086579999999941
0
LINE
8
BLACK
6
CONTINUOUS
10
117.4619399999999985
20
-113.8086579999999941
11
117.4957229999999981
21
-113.9347369999999984
0
LINE
8
BLACK
6
CONTINUOUS
10
117.4957229999999981
20
-113.9347369999999984
11
117.4957229999999981
21
-113.9347519999999889
0
LINE
8
BLACK
6
CONTINUOUS
10
117.4957229999999981
20
-113.9347519999999889
11
117.5
21
-114.
0
LINE
8
BLACK
6
CONTINUOUS
10
117.5
20
-114.
11
117.5
21
-117.0428939999999898
0
LINE
8
BLACK
6
CONTINUOUS
10
117.5
20
-117.0428939999999898
11
125.457105999999996
21
-125.
0
LINE
8
BLACK
6
CONTINUOUS
10
125.457105999999996
20
-125.
11
136.2928939999999898
21
-125.
0
LINE
8
BLACK
6
CONTINUOUS
10
136.2928939999999898
20
-125.
11
137.6464459999999974
21
-123.6464469999999949
0
LINE
8
BLACK
6
CONTINUOUS
10
137.6464459999999974
20
-123.6464469999999949
11
137.6956099999999878
21
-123.6033309999999972
0
LINE
8
BLACK
6
CONTINUOUS
10
137.6956099999999878
20
-123.6033309999999972
11
137.6956189999999935
21
-123.603322999999989
0
LINE
8
BLACK
6
CONTINUOUS
10
137.6956189999999935
20
-123.603322999999989
11
137.8086579999999799
21
-123.5380599999999873
0
LINE
8
BLACK
6
CONTINUOUS
10
137.8086579999999799
20
-123.5380599999999873
11
137.9347369999999842
21
-123.5042769999999877
0
LINE
8
BLACK
6
CONTINUOUS
10
137.9347369999999842
20
-123.5042769999999877
11
137.9347520000000031
21
-123.5042769999999877
0
LINE
8
BLACK
6
CONTINUOUS
10
137.9347520000000031
20
-123.5042769999999877
11
138.
21
-123.5
0
LINE
8
BLACK
6
CONTINUOUS
10
138.
20
-123.5
11
143.7928939999999898
21
-123.5
0
LINE
8
BLACK
6
CONTINUOUS
10
143.7928939999999898
20
-123.5
11
147.
21
-120.2928929999999923
0
LINE
8
BLACK
6
CONTINUOUS
10
147.
20
-120.2928929999999923
11
147.
21
-116.5
0
LINE
8
BLACK
6
CONTINUOUS
10
147.
20
-116.5
11
147.0042770000000019
21
-116.4347519999999889
0
LINE
8
BLACK
6
CONTINUOUS
10
147.0042770000000019
20
-116.4347519999999889
11
147.0042770000000019
21
-116.4347369999999984
0
LINE
8
BLACK
6
CONTINUOUS
10
147.0042770000000019
20
-116.4347369999999984
11
147.0380600000000015
21
-116.3086579999999941
0
LINE
8
BLACK
6
CONTINUOUS
10
147.0380600000000015
20
-116.3086579999999941
11
147.103322999999989
21
-116.1956189999999935
0
LINE
8
BLACK
6
CONTINUOUS
10
147.103322999999989
20
-116.1956189999999935
11
147.1033379999999795
21
-116.1956029999999913
0
LINE
8
BLACK
6
CONTINUOUS
10
147.1033379999999795
20
-116.1956029999999913
11
147.1464469999999949
21
-116.1464469999999949
0
LINE
8
BLACK
6
CONTINUOUS
10
147.1464469999999949
20
-116.1464469999999949
11
153.5
21
-109.7928929999999923
0
LINE
8
BLACK
6
CONTINUOUS
10
153.5
20
-109.7928929999999923
11
153.5
21
-97.207105999999996
0
LINE
8
BLACK
6
CONTINUOUS
10
153.5
20
-97.207105999999996
11
152.2928939999999898
21
-96.
0
LINE
8
BLACK
6
CONTINUOUS
10
152.2928939999999898
20
-96.
11
139.5999999999999943
21
-96.
0
LINE
8
BLACK
6
CONTINUOUS
10
139.5999999999999943
20
-96.
11
138.3499999999999943
21
-96.
0
LINE
8
BLACK
6
CONTINUOUS
10
138.3499999999999943
20
-96.
11
138.3499999999999943
21
-95.
0
LINE
8
BLACK
6
CONTINUOUS
10
138.3499999999999943
20
-95.
11
140.8499999999999943
21
-95.
0
LINE
8
BLACK
6
CONTINUOUS
10
113.4956710000000015
20
-82.3440299999999894
11
113.5767769999999928
21
-82.3982230000000015
0
LINE
8
BLACK
6
CONTINUOUS
10
113.5767769999999928
20
-82.3982230000000015
11
113.6309699999999907
21
-82.4793289999999928
0
LINE
8
BLACK
6
CONTINUOUS
10
113.6309699999999907
20
-82.4793289999999928
11
113.649998999999994
21
-82.5750000000000028
0
LINE
8
BLACK
6
CONTINUOUS
10
113.649998999999994
20
-82.5750000000000028
11
113.6499999999999915
21
-85.4250009999999946
0
LINE
8
BLACK
6
CONTINUOUS
10
113.6499999999999915
20
-85.4250009999999946
11
113.6309699999999907
21
-85.520670999999993
0
LINE
8
BLACK
6
CONTINUOUS
10
113.6309699999999907
20
-85.520670999999993
11
113.5767769999999928
21
-85.6017769999999985
0
LINE
8
BLACK
6
CONTINUOUS
10
113.5767769999999928
20
-85.6017769999999985
11
113.4956710000000015
21
-85.6559699999999964
0
LINE
8
BLACK
6
CONTINUOUS
10
113.4956710000000015
20
-85.6559699999999964
11
113.3999999999999915
21
-85.6749989999999997
0
LINE
8
BLACK
6
CONTINUOUS
10
113.3999999999999915
20
-85.6749989999999997
11
112.4999989999999883
21
-85.6749999999999972
0
LINE
8
BLACK
6
CONTINUOUS
10
112.4999989999999883
20
-85.6749999999999972
11
112.4043289999999899
21
-85.6559699999999964
0
LINE
8
BLACK
6
CONTINUOUS
10
112.4043289999999899
20
-85.6559699999999964
11
112.3232229999999987
21
-85.6017769999999985
0
LINE
8
BLACK
6
CONTINUOUS
10
112.3232229999999987
20
-85.6017769999999985
11
112.2690300000000008
21
-85.520670999999993
0
LINE
8
BLACK
6
CONTINUOUS
10
112.2690300000000008
20
-85.520670999999993
11
112.2500009999999975
21
-85.4249999999999972
0
LINE
8
BLACK
6
CONTINUOUS
10
112.2500009999999975
20
-85.4249999999999972
11
112.2500009999999975
21
-84.5
0
LINE
8
BLACK
6
CONTINUOUS
10
112.2500009999999975
20
-84.5
11
111.7071069999999935
21
-84.5
0
LINE
8
BLACK
6
CONTINUOUS
10
111.7071069999999935
20
-84.5
11
111.5
21
-84.707105999999996
0
LINE
8
BLACK
6
CONTINUOUS
10
111.5
20
-84.707105999999996
11
111.5
21
-99.2928929999999923
0
LINE
8
BLACK
6
CONTINUOUS
10
111.5
20
-99.2928929999999923
11
113.8571069999999992
21
-101.6499999999999915
0
LINE
8
BLACK
6
CONTINUOUS
10
113.8571069999999992
20
-101.6499999999999915
11
115.3499999999999943
21
-101.6499999999999915
0
LINE
8
BLACK
6
CONTINUOUS
10
115.3499999999999943
20
-101.6499999999999915
11
115.3499999999999943
21
-102.6428930000000008
0
LINE
8
BLACK
6
CONTINUOUS
10
115.3499999999999943
20
-102.6428930000000008
11
115.4335519999999917
21
-102.7264449999999982
0
LINE
8
BLACK
6
CONTINUOUS
10
115.4335519999999917
20
-102.7264449999999982
11
115.476666999999992
21
-102.7756089999999887
0
LINE
8
BLACK
6
CONTINUOUS
10
115.476666999999992
20
-102.7756089999999887
11
115.4766759999999977
21
-102.7756179999999944
0
LINE
8
BLACK
6
CONTINUOUS
10
115.4766759999999977
20
-102.7756179999999944
11
115.5216719999999953
21
-102.8535539999999884
0
LINE
8
BLACK
6
CONTINUOUS
10
115.5216719999999953
20
-102.8535539999999884
11
115.5419389999999993
21
-102.8886569999999949
0
LINE
8
BLACK
6
CONTINUOUS
10
115.5419389999999993
20
-102.8886569999999949
11
115.575721999999999
21
-103.0147359999999992
0
LINE
8
BLACK
6
CONTINUOUS
10
115.575721999999999
20
-103.0147359999999992
11
115.575721999999999
21
-103.0147509999999897
0
LINE
8
BLACK
6
CONTINUOUS
10
115.575721999999999
20
-103.0147509999999897
11
115.5799990000000008
21
-103.0799990000000008
0
LINE
8
BLACK
6
CONTINUOUS
10
115.5799990000000008
20
-103.0799990000000008
11
115.5799990000000008
21
-106.3183679999999924
0
LINE
8
BLACK
6
CONTINUOUS
10
115.5799990000000008
20
-106.3183679999999924
11
115.6487599999999958
21
-106.3683269999999936
0
LINE
8
BLACK
6
CONTINUOUS
10
115.6487599999999958
20
-106.3683269999999936
11
115.7676629999999989
21
-106.5003829999999994
0
LINE
8
BLACK
6
CONTINUOUS
10
115.7676629999999989
20
-106.5003829999999994
11
115.8565129999999925
21
-106.6542740000000009
0
LINE
8
BLACK
6
CONTINUOUS
10
115.8565129999999925
20
-106.6542740000000009
11
115.9114239999999967
21
-106.8232749999999953
0
LINE
8
BLACK
6
CONTINUOUS
10
115.9114239999999967
20
-106.8232749999999953
11
115.9299989999999951
21
-107.
0
LINE
8
BLACK
6
CONTINUOUS
10
115.9299989999999951
20
-107.
11
115.9114239999999967
21
-107.1767249999999905
0
LINE
8
BLACK
6
CONTINUOUS
10
115.9114239999999967
20
-107.1767249999999905
11
115.8565129999999925
21
-107.3457259999999991
0
LINE
8
BLACK
6
CONTINUOUS
10
115.8565129999999925
20
-107.3457259999999991
11
115.7676629999999989
21
-107.4996170000000006
0
LINE
8
BLACK
6
CONTINUOUS
10
115.7676629999999989
20
-107.4996170000000006
11
115.6487599999999958
21
-107.6316729999999922
0
LINE
8
BLACK
6
CONTINUOUS
10
115.6487599999999958
20
-107.6316729999999922
11
115.504998999999998
21
-107.7361219999999946
0
LINE
8
BLACK
6
CONTINUOUS
10
115.504998999999998
20
-107.7361219999999946
11
115.5
21
-107.7383469999999903
0
LINE
8
BLACK
6
CONTINUOUS
10
115.5
20
-107.7383469999999903
11
115.5
21
-108.7928929999999923
0
LINE
8
BLACK
6
CONTINUOUS
10
115.5
20
-108.7928929999999923
11
119.3535529999999909
21
-112.6464459999999974
0
LINE
8
BLACK
6
CONTINUOUS
10
119.3535529999999909
20
-112.6464459999999974
11
119.3966679999999911
21
-112.6956099999999878
0
LINE
8
BLACK
6
CONTINUOUS
10
119.3966679999999911
20
-112.6956099999999878
11
119.3966769999999968
21
-112.6956189999999935
0
LINE
8
BLACK
6
CONTINUOUS
10
119.3966769999999968
20
-112.6956189999999935
11
119.4492489999999947
21
-112.7866769999999974
0
LINE
8
BLACK
6
CONTINUOUS
10
119.4492489999999947
20
-112.7866769999999974
11
119.4619399999999985
21
-112.8086579999999941
0
LINE
8
BLACK
6
CONTINUOUS
10
119.4619399999999985
20
-112.8086579999999941
11
119.4957229999999981
21
-112.9347369999999984
0
LINE
8
BLACK
6
CONTINUOUS
10
119.4957229999999981
20
-112.9347369999999984
11
119.4957229999999981
21
-112.9347519999999889
0
LINE
8
BLACK
6
CONTINUOUS
10
119.4957229999999981
20
-112.9347519999999889
11
119.5
21
-113.
0
LINE
8
BLACK
6
CONTINUOUS
10
119.5
20
-113.
11
119.5
21
-116.2928939999999898
0
LINE
8
BLACK
6
CONTINUOUS
10
119.5
20
-116.2928939999999898
11
126.207105999999996
21
-123.
0
LINE
8
BLACK
6
CONTINUOUS
10
126.207105999999996
20
-123.
11
135.2928939999999898
21
-123.
0
LINE
8
BLACK
6
CONTINUOUS
10
135.2928939999999898
20
-123.
11
136.6464459999999974
21
-121.6464469999999949
0
LINE
8
BLACK
6
CONTINUOUS
10
136.6464459999999974
20
-121.6464469999999949
11
136.6956099999999878
21
-121.6033309999999972
0
LINE
8
BLACK
6
CONTINUOUS
10
136.6956099999999878
20
-121.6033309999999972
11
136.6956189999999935
21
-121.603322999999989
0
LINE
8
BLACK
6
CONTINUOUS
10
136.6956189999999935
20
-121.603322999999989
11
136.8086579999999799
21
-121.5380600000000015
0
LINE
8
BLACK
6
CONTINUOUS
10
136.8086579999999799
20
-121.5380600000000015
11
136.9347369999999842
21
-121.5042769999999877
0
LINE
8
BLACK
6
CONTINUOUS
10
136.9347369999999842
20
-121.5042769999999877
11
136.9347520000000031
21
-121.5042769999999877
0
LINE
8
BLACK
6
CONTINUOUS
10
136.9347520000000031
20
-121.5042769999999877
11
137.
21
-121.5
0
LINE
8
BLACK
6
CONTINUOUS
10
137.
20
-121.5
11
142.6500000000000057
21
-121.5
0
LINE
8
BLACK
6
CONTINUOUS
10
142.6500000000000057
20
-121.5
11
142.6500000000000057
21
-120.5499999999999972
0
LINE
8
BLACK
6
CONTINUOUS
10
142.6500000000000057
20
-120.5499999999999972
11
142.5250000000000057
21
-120.5499999999999972
0
LINE
8
BLACK
6
CONTINUOUS
10
142.5250000000000057
20
-120.5499999999999972
11
142.4179989999999805
21
-120.5344099999999941
0
LINE
8
BLACK
6
CONTINUOUS
10
142.4179989999999805
20
-120.5344099999999941
11
142.3070960000000014
21
-120.4801929999999999
0
LINE
8
BLACK
6
CONTINUOUS
10
142.3070960000000014
20
-120.4801929999999999
11
142.219807000000003
21
-120.3929040000000015
0
LINE
8
BLACK
6
CONTINUOUS
10
142.219807000000003
20
-120.3929040000000015
11
142.1655899999999804
21
-120.282000999999994
0
LINE
8
BLACK
6
CONTINUOUS
10
142.1655899999999804
20
-120.282000999999994
11
142.1500000000000057
21
-120.1749999999999972
0
LINE
8
BLACK
6
CONTINUOUS
10
142.1500000000000057
20
-120.1749999999999972
11
142.1500000000000057
21
-119.4249999999999972
0
LINE
8
BLACK
6
CONTINUOUS
10
142.1500000000000057
20
-119.4249999999999972
11
142.1655899999999804
21
-119.3179990000000004
0
LINE
8
BLACK
6
CONTINUOUS
10
142.1655899999999804
20
-119.3179990000000004
11
142.219807000000003
21
-119.2070959999999928
0
LINE
8
BLACK
6
CONTINUOUS
10
142.219807000000003
20
-119.2070959999999928
11
142.3070960000000014
21
-119.1198069999999944
0
LINE
8
BLACK
6
CONTINUOUS
10
142.3070960000000014
20
-119.1198069999999944
11
142.4179989999999805
21
-119.0655900000000003
0
LINE
8
BLACK
6
CONTINUOUS
10
142.4179989999999805
20
-119.0655900000000003
11
142.5250000000000057
21
-119.0499999999999972
0
LINE
8
BLACK
6
CONTINUOUS
10
142.5250000000000057
20
-119.0499999999999972
11
143.7750000000000057
21
-119.0499999999999972
0
LINE
8
BLACK
6
CONTINUOUS
10
143.7750000000000057
20
-119.0499999999999972
11
143.8820010000000025
21
-119.0655900000000003
0
LINE
8
BLACK
6
CONTINUOUS
10
143.8820010000000025
20
-119.0655900000000003
11
143.9929039999999816
21
-119.1198069999999944
0
LINE
8
BLACK
6
CONTINUOUS
10
143.9929039999999816
20
-119.1198069999999944
11
144.08019299999998
21
-119.2070959999999928
0
LINE
8
BLACK
6
CONTINUOUS
10
144.08019299999998
20
-119.2070959999999928
11
144.1256109999999921
21
-119.2999999999999972
0
LINE
8
BLACK
6
CONTINUOUS
10
144.1256109999999921
20
-119.2999999999999972
11
144.4928940000000068
21
-119.2999999999999972
0
LINE
8
BLACK
6
CONTINUOUS
10
144.4928940000000068
20
-119.2999999999999972
11
145.
21
-118.7928939999999898
0
LINE
8
BLACK
6
CONTINUOUS
10
145.
20
-118.7928939999999898
11
145.
21
-115.5
0
LINE
8
BLACK
6
CONTINUOUS
10
145.
20
-115.5
11
145.0042770000000019
21
-115.4347519999999889
0
LINE
8
BLACK
6
CONTINUOUS
10
145.0042770000000019
20
-115.4347519999999889
11
145.0042770000000019
21
-115.4347369999999984
0
LINE
8
BLACK
6
CONTINUOUS
10
145.0042770000000019
20
-115.4347369999999984
11
145.0380600000000015
21
-115.3086579999999941
0
LINE
8
BLACK
6
CONTINUOUS
10
145.0380600000000015
20
-115.3086579999999941
11
145.103322999999989
21
-115.1956189999999935
0
LINE
8
BLACK
6
CONTINUOUS
10
145.103322999999989
20
-115.1956189999999935
11
145.1033379999999795
21
-115.1956029999999913
0
LINE
8
BLACK
6
CONTINUOUS
10
145.1033379999999795
20
-115.1956029999999913
11
145.1464469999999949
21
-115.1464469999999949
0
LINE
8
BLACK
6
CONTINUOUS
10
145.1464469999999949
20
-115.1464469999999949
11
148.
21
-112.2928929999999923
0
LINE
8
BLACK
6
CONTINUOUS
10
148.
20
-112.2928929999999923
11
148.
21
-110.8499999999999943
0
LINE
8
BLACK
6
CONTINUOUS
10
148.
20
-110.8499999999999943
11
147.6500000000000057
21
-110.8499999999999943
0
LINE
8
BLACK
6
CONTINUOUS
10
147.6500000000000057
20
-110.8499999999999943
11
147.6500000000000057
21
-109.1499999999999915
0
LINE
8
BLACK
6
CONTINUOUS
10
147.6500000000000057
20
-109.1499999999999915
11
148.
21
-109.1499999999999915
0
LINE
8
BLACK
6
CONTINUOUS
10
148.
20
-109.1499999999999915
11
148.
21
-107.
0
LINE
8
BLACK
6
CONTINUOUS
10
148.
20
-107.
11
146.3299999999999841
21
-107.
0
LINE
8
BLACK
6
CONTINUOUS
10
146.3299999999999841
20
-107.
11
145.039999999999992
21
-107.
0
LINE
8
BLACK
6
CONTINUOUS
10
145.039999999999992
20
-107.
11
145.039999999999992
21
-106.
0
LINE
8
BLACK
6
CONTINUOUS
10
145.039999999999992
20
-106.
11
147.6200000000000045
21
-106.
0
LINE
8
BLACK
6
CONTINUOUS
10
147.6200000000000045
20
-106.
11
148.
21
-106.
0
LINE
8
BLACK
6
CONTINUOUS
10
148.
20
-106.
11
148.
21
-105.
0
LINE
8
BLACK
6
CONTINUOUS
10
148.
20
-105.
11
146.3299989999999866
21
-105.
0
LINE
8
BLACK
6
CONTINUOUS
10
146.3299989999999866
20
-105.
11
145.039999999999992
21
-105.
0
LINE
8
BLACK
6
CONTINUOUS
10
145.039999999999992
20
-105.
11
144.5
21
-105.
0
LINE
8
BLACK
6
CONTINUOUS
10
144.5
20
-105.
11
144.4347520000000031
21
-104.9957229999999981
0
LINE
8
BLACK
6
CONTINUOUS
10
144.4347520000000031
20
-104.9957229999999981
11
144.4347369999999842
21
-104.9957229999999981
0
LINE
8
BLACK
6
CONTINUOUS
10
144.4347369999999842
20
-104.9957229999999981
11
144.3086579999999799
21
-104.9619399999999985
0
LINE
8
BLACK
6
CONTINUOUS
10
144.3086579999999799
20
-104.9619399999999985
11
144.1956189999999935
21
-104.8966769999999968
0
LINE
8
BLACK
6
CONTINUOUS
10
144.1956189999999935
20
-104.8966769999999968
11
144.1956030000000055
21
-104.8966609999999946
0
LINE
8
BLACK
6
CONTINUOUS
10
144.1956030000000055
20
-104.8966609999999946
11
144.1464469999999949
21
-104.8535529999999909
0
LINE
8
BLACK
6
CONTINUOUS
10
144.1464469999999949
20
-104.8535529999999909
11
141.6464469999999949
21
-102.3535529999999909
0
LINE
8
BLACK
6
CONTINUOUS
10
141.6464469999999949
20
-102.3535529999999909
11
141.6033379999999795
21
-102.304395999999997
0
LINE
8
BLACK
6
CONTINUOUS
10
141.6033379999999795
20
-102.304395999999997
11
141.603322999999989
21
-102.3043809999999922
0
LINE
8
BLACK
6
CONTINUOUS
10
141.603322999999989
20
-102.3043809999999922
11
141.5380600000000015
21
-102.1913419999999917
0
LINE
8
BLACK
6
CONTINUOUS
10
141.5380600000000015
20
-102.1913419999999917
11
141.5281279999999811
21
-102.1542740000000009
0
LINE
8
BLACK
6
CONTINUOUS
10
141.5281279999999811
20
-102.1542740000000009
11
141.5042770000000019
21
-102.0652630000000016
0
LINE
8
BLACK
6
CONTINUOUS
10
141.5042770000000019
20
-102.0652630000000016
11
141.5042770000000019
21
-102.0652469999999994
0
LINE
8
BLACK
6
CONTINUOUS
10
141.5042770000000019
20
-102.0652469999999994
11
141.5
21
-102.
0
LINE
8
BLACK
6
CONTINUOUS
10
141.5
20
-102.
11
141.5
21
-100.
0
LINE
8
BLACK
6
CONTINUOUS
10
141.5
20
-100.
11
139.5999999999999943
21
-100.
0
LINE
8
BLACK
6
CONTINUOUS
10
139.5999999999999943
20
-100.
11
138.3499999999999943
21
-100.
0
LINE
8
BLACK
6
CONTINUOUS
10
138.3499999999999943
20
-100.
11
138.3499999999999943
21
-99.
0
LINE
8
BLACK
6
CONTINUOUS
10
138.3499999999999943
20
-99.
11
140.8499999999999943
21
-99.
0
LINE
8
BLACK
6
CONTINUOUS
10
140.8499999999999943
20
-99.
11
142.
21
-99.
0
LINE
8
BLACK
6
CONTINUOUS
10
142.
20
-99.
11
142.0652629999999874
21
-99.0042779999999993
0
LINE
8
BLACK
6
CONTINUOUS
10
142.0652629999999874
20
-99.0042779999999993
11
142.1913419999999917
21
-99.0380600000000015
0
LINE
8
BLACK
6
CONTINUOUS
10
142.1913419999999917
20
-99.0380600000000015
11
142.3043810000000065
21
-99.103322999999989
0
LINE
8
BLACK
6
CONTINUOUS
10
142.3043810000000065
20
-99.103322999999989
11
142.3966769999999826
21
-99.1956189999999935
0
LINE
8
BLACK
6
CONTINUOUS
10
142.3966769999999826
20
-99.1956189999999935
11
142.4619399999999985
21
-99.3086579999999941
0
LINE
8
BLACK
6
CONTINUOUS
10
142.4619399999999985
20
-99.3086579999999941
11
142.4957220000000007
21
-99.4347369999999984
0
LINE
8
BLACK
6
CONTINUOUS
10
142.4957220000000007
20
-99.4347369999999984
11
142.5
21
-99.5
0
LINE
8
BLACK
6
CONTINUOUS
10
142.5
20
-99.5
11
142.5
21
-101.7928939999999898
0
LINE
8
BLACK
6
CONTINUOUS
10
142.5
20
-101.7928939999999898
11
144.7071059999999818
21
-104.
0
LINE
8
BLACK
6
CONTINUOUS
10
144.7071059999999818
20
-104.
11
146.3299989999999866
21
-104.
0
LINE
8
BLACK
6
CONTINUOUS
10
146.3299989999999866
20
-104.
11
147.6200000000000045
21
-104.
0
LINE
8
BLACK
6
CONTINUOUS
10
147.6200000000000045
20
-104.
11
148.5
21
-104.
0
LINE
8
BLACK
6
CONTINUOUS
10
148.5
20
-104.
11
150.5000009999999975
21
-104.
0
LINE
8
BLACK
6
CONTINUOUS
10
150.5000009999999975
20
-104.
11
151.789999999999992
21
-104.
0
LINE
8
BLACK
6
CONTINUOUS
10
151.789999999999992
20
-104.
11
151.789999999999992
21
-105.
0
LINE
8
BLACK
6
CONTINUOUS
10
151.789999999999992
20
-105.
11
149.2099999999999795
21
-105.
0
LINE
8
BLACK
6
CONTINUOUS
10
149.2099999999999795
20
-105.
11
149.
21
-105.
0
LINE
8
BLACK
6
CONTINUOUS
10
149.
20
-105.
11
149.
21
-106.
0
LINE
8
BLACK
6
CONTINUOUS
10
149.
20
-106.
11
150.5
21
-106.
0
LINE
8
BLACK
6
CONTINUOUS
10
150.5
20
-106.
11
151.789999999999992
21
-106.
0
LINE
8
BLACK
6
CONTINUOUS
10
151.789999999999992
20
-106.
11
151.789999999999992
21
-107.
0
LINE
8
BLACK
6
CONTINUOUS
10
151.789999999999992
20
-107.
11
149.2099999999999795
21
-107.
0
LINE
8
BLACK
6
CONTINUOUS
10
149.2099999999999795
20
-107.
11
149.
21
-107.
0
LINE
8
BLACK
6
CONTINUOUS
10
149.
20
-107.
11
149.
21
-109.1499999999999915
0
LINE
8
BLACK
6
CONTINUOUS
10
149.
20
-109.1499999999999915
11
149.3499999999999943
21
-109.1499999999999915
0
LINE
8
BLACK
6
CONTINUOUS
10
149.3499999999999943
20
-109.1499999999999915
11
149.3499999999999943
21
-110.8499999999999943
0
LINE
8
BLACK
6
CONTINUOUS
10
149.3499999999999943
20
-110.8499999999999943
11
149.
21
-110.8499999999999943
0
LINE
8
BLACK
6
CONTINUOUS
10
149.
20
-110.8499999999999943
11
149.
21
-112.5
0
LINE
8
BLACK
6
CONTINUOUS
10
149.
20
-112.5
11
148.9957229999999981
21
-112.5652469999999994
0
LINE
8
BLACK
6
CONTINUOUS
10
148.9957229999999981
20
-112.5652469999999994
11
148.9957229999999981
21
-112.5652630000000016
0
LINE
8
BLACK
6
CONTINUOUS
10
148.9957229999999981
20
-112.5652630000000016
11
148.97396999999998
21
-112.6464459999999974
0
LINE
8
BLACK
6
CONTINUOUS
10
148.97396999999998
20
-112.6464459999999974
11
148.9619399999999985
21
-112.6913419999999917
0
LINE
8
BLACK
6
CONTINUOUS
10
148.9619399999999985
20
-112.6913419999999917
11
148.8966769999999826
21
-112.8043809999999922
0
LINE
8
BLACK
6
CONTINUOUS
10
148.8966769999999826
20
-112.8043809999999922
11
148.8966690000000028
21
-112.8043879999999888
0
LINE
8
BLACK
6
CONTINUOUS
10
148.8966690000000028
20
-112.8043879999999888
11
148.8535540000000026
21
-112.8535529999999909
0
LINE
8
BLACK
6
CONTINUOUS
10
148.8535540000000026
20
-112.8535529999999909
11
146.
21
-115.707105999999996
0
LINE
8
BLACK
6
CONTINUOUS
10
146.
20
-115.707105999999996
11
146.
21
-119.
0
LINE
8
BLACK
6
CONTINUOUS
10
146.
20
-119.
11
145.9957229999999981
21
-119.0652469999999994
0
LINE
8
BLACK
6
CONTINUOUS
10
145.9957229999999981
20
-119.0652469999999994
11
145.9957229999999981
21
-119.0652630000000016
0
LINE
8
BLACK
6
CONTINUOUS
10
145.9957229999999981
20
-119.0652630000000016
11
145.9619399999999985
21
-119.1913419999999917
0
LINE
8
BLACK
6
CONTINUOUS
10
145.9619399999999985
20
-119.1913419999999917
11
145.8966769999999826
21
-119.3043809999999922
0
LINE
8
BLACK
6
CONTINUOUS
10
145.8966769999999826
20
-119.3043809999999922
11
145.8966609999999946
21
-119.304395999999997
0
LINE
8
BLACK
6
CONTINUOUS
10
145.8966609999999946
20
-119.304395999999997
11
145.8535530000000051
21
-119.3535529999999909
0
LINE
8
BLACK
6
CONTINUOUS
10
145.8535530000000051
20
-119.3535529999999909
11
145.0535529999999937
21
-120.1535529999999881
0
LINE
8
BLACK
6
CONTINUOUS
10
145.0535529999999937
20
-120.1535529999999881
11
145.0043959999999856
21
-120.1966609999999918
0
LINE
8
BLACK
6
CONTINUOUS
10
145.0043959999999856
20
-120.1966609999999918
11
145.0043809999999951
21
-120.196676999999994
0
LINE
8
BLACK
6
CONTINUOUS
10
145.0043809999999951
20
-120.196676999999994
11
144.9046129999999835
21
-120.2542779999999993
0
LINE
8
BLACK
6
CONTINUOUS
10
144.9046129999999835
20
-120.2542779999999993
11
144.8913419999999803
21
-120.2619399999999956
0
LINE
8
BLACK
6
CONTINUOUS
10
144.8913419999999803
20
-120.2619399999999956
11
144.7652630000000045
21
-120.2957229999999953
0
LINE
8
BLACK
6
CONTINUOUS
10
144.7652630000000045
20
-120.2957229999999953
11
144.7652479999999855
21
-120.2957229999999953
0
LINE
8
BLACK
6
CONTINUOUS
10
144.7652479999999855
20
-120.2957229999999953
11
144.6999999999999886
21
-120.2999999999999972
0
LINE
8
BLACK
6
CONTINUOUS
10
144.6999999999999886
20
-120.2999999999999972
11
144.1256109999999921
21
-120.2999999999999972
0
LINE
8
BLACK
6
CONTINUOUS
10
144.1256109999999921
20
-120.2999999999999972
11
144.08019299999998
21
-120.3929040000000015
0
LINE
8
BLACK
6
CONTINUOUS
10
144.08019299999998
20
-120.3929040000000015
11
143.9929039999999816
21
-120.4801929999999999
0
LINE
8
BLACK
6
CONTINUOUS
10
143.9929039999999816
20
-120.4801929999999999
11
143.8820010000000025
21
-120.5344099999999941
0
LINE
8
BLACK
6
CONTINUOUS
10
143.8820010000000025
20
-120.5344099999999941
11
143.7750000000000057
21
-120.5499999999999972
0
LINE
8
BLACK
6
CONTINUOUS
10
143.7750000000000057
20
-120.5499999999999972
11
143.6500000000000057
21
-120.5499999999999972
0
LINE
8
BLACK
6
CONTINUOUS
10
143.6500000000000057
20
-120.5499999999999972
11
143.6500000000000057
21
-121.8499999999999943
0
LINE
8
BLACK
6
CONTINUOUS
10
143.6500000000000057
20
-121.8499999999999943
11
143.6457230000000038
21
-121.9152469999999937
0
LINE
8
BLACK
6
CONTINUOUS
10
143.6457230000000038
20
-121.9152469999999937
11
143.6457230000000038
21
-121.9152629999999959
0
LINE
8
BLACK
6
CONTINUOUS
10
143.6457230000000038
20
-121.9152629999999959
11
143.6119400000000041
21
-122.0413420000000002
0
LINE
8
BLACK
6
CONTINUOUS
10
143.6119400000000041
20
-122.0413420000000002
11
143.5466769999999883
21
-122.1543810000000008
0
LINE
8
BLACK
6
CONTINUOUS
10
143.5466769999999883
20
-122.1543810000000008
11
143.5466679999999826
21
-122.1543889999999948
0
LINE
8
BLACK
6
CONTINUOUS
10
143.5466679999999826
20
-122.1543889999999948
11
143.5035529999999824
21
-122.2035529999999994
0
LINE
8
BLACK
6
CONTINUOUS
10
143.5035529999999824
20
-122.2035529999999994
11
143.3535530000000051
21
-122.3535529999999909
0
LINE
8
BLACK
6
CONTINUOUS
10
143.3535530000000051
20
-122.3535529999999909
11
143.304395999999997
21
-122.3966609999999946
0
LINE
8
BLACK
6
CONTINUOUS
10
143.304395999999997
20
-122.3966609999999946
11
143.3043810000000065
21
-122.3966769999999968
0
LINE
8
BLACK
6
CONTINUOUS
10
143.3043810000000065
20
-122.3966769999999968
11
143.1913419999999917
21
-122.4619399999999985
0
LINE
8
BLACK
6
CONTINUOUS
10
143.1913419999999917
20
-122.4619399999999985
11
143.0652629999999874
21
-122.4957229999999981
0
LINE
8
BLACK
6
CONTINUOUS
10
143.0652629999999874
20
-122.4957229999999981
11
143.0652479999999969
21
-122.4957229999999981
0
LINE
8
BLACK
6
CONTINUOUS
10
143.0652479999999969
20
-122.4957229999999981
11
143.
21
-122.5
0
LINE
8
BLACK
6
CONTINUOUS
10
143.
20
-122.5
11
137.2071070000000077
21
-122.5
0
LINE
8
BLACK
6
CONTINUOUS
10
137.2071070000000077
20
-122.5
11
135.8535530000000051
21
-123.8535529999999909
0
LINE
8
BLACK
6
CONTINUOUS
10
135.8535530000000051
20
-123.8535529999999909
11
135.804395999999997
21
-123.8966609999999946
0
LINE
8
BLACK
6
CONTINUOUS
10
135.804395999999997
20
-123.8966609999999946
11
135.8043810000000065
21
-123.8966769999999968
0
LINE
8
BLACK
6
CONTINUOUS
10
135.8043810000000065
20
-123.8966769999999968
11
135.6913419999999917
21
-123.9619399999999985
0
LINE
8
BLACK
6
CONTINUOUS
10
135.6913419999999917
20
-123.9619399999999985
11
135.5652629999999874
21
-123.9957229999999981
0
LINE
8
BLACK
6
CONTINUOUS
10
135.5652629999999874
20
-123.9957229999999981
11
135.5652479999999969
21
-123.9957229999999981
0
LINE
8
BLACK
6
CONTINUOUS
10
135.5652479999999969
20
-123.9957229999999981
11
135.5
21
-124.
0
LINE
8
BLACK
6
CONTINUOUS
10
135.5
20
-124.
11
126.
21
-124.
0
LINE
8
BLACK
6
CONTINUOUS
10
126.
20
-124.
11
125.9347519999999889
21
-123.9957229999999981
0
LINE
8
BLACK
6
CONTINUOUS
10
125.9347519999999889
20
-123.9957229999999981
11
125.9347369999999984
21
-123.9957229999999981
0
LINE
8
BLACK
6
CONTINUOUS
10
125.9347369999999984
20
-123.9957229999999981
11
125.8086579999999941
21
-123.9619399999999985
0
LINE
8
BLACK
6
CONTINUOUS
10
125.8086579999999941
20
-123.9619399999999985
11
125.6956189999999935
21
-123.8966769999999968
0
LINE
8
BLACK
6
CONTINUOUS
10
125.6956189999999935
20
-123.8966769999999968
11
125.6956029999999913
21
-123.8966609999999946
0
LINE
8
BLACK
6
CONTINUOUS
10
125.6956029999999913
20
-123.8966609999999946
11
125.6464469999999949
21
-123.8535529999999909
0
LINE
8
BLACK
6
CONTINUOUS
10
125.6464469999999949
20
-123.8535529999999909
11
118.6464469999999949
21
-116.8535529999999909
0
LINE
8
BLACK
6
CONTINUOUS
10
118.6464469999999949
20
-116.8535529999999909
11
118.6033379999999937
21
-116.804395999999997
0
LINE
8
BLACK
6
CONTINUOUS
10
118.6033379999999937
20
-116.804395999999997
11
118.603322999999989
21
-116.8043809999999922
0
LINE
8
BLACK
6
CONTINUOUS
10
118.603322999999989
20
-116.8043809999999922
11
118.5380600000000015
21
-116.6913419999999917
0
LINE
8
BLACK
6
CONTINUOUS
10
118.5380600000000015
20
-116.6913419999999917
11
118.5260919999999913
21
-116.6466759999999994
0
LINE
8
BLACK
6
CONTINUOUS
10
118.5260919999999913
20
-116.6466759999999994
11
118.5042769999999877
21
-116.5652630000000016
0
LINE
8
BLACK
6
CONTINUOUS
10
118.5042769999999877
20
-116.5652630000000016
11
118.5042769999999877
21
-116.5652469999999994
0
LINE
8
BLACK
6
CONTINUOUS
10
118.5042769999999877
20
-116.5652469999999994
11
118.5
21
-116.5
0
LINE
8
BLACK
6
CONTINUOUS
10
118.5
20
-116.5
11
118.5
21
-113.207105999999996
0
LINE
8
BLACK
6
CONTINUOUS
10
118.5
20
-113.207105999999996
11
114.6464469999999949
21
-109.3535529999999909
0
LINE
8
BLACK
6
CONTINUOUS
10
114.6464469999999949
20
-109.3535529999999909
11
114.6033379999999937
21
-109.304395999999997
0
LINE
8
BLACK
6
CONTINUOUS
10
114.6033379999999937
20
-109.304395999999997
11
114.603322999999989
21
-109.3043809999999922
0
LINE
8
BLACK
6
CONTINUOUS
10
114.603322999999989
20
-109.3043809999999922
11
114.5380600000000015
21
-109.1913419999999917
0
LINE
8
BLACK
6
CONTINUOUS
10
114.5380600000000015
20
-109.1913419999999917
11
114.5282299999999935
21
-109.1546559999999886
0
LINE
8
BLACK
6
CONTINUOUS
10
114.5282299999999935
20
-109.1546559999999886
11
114.5042770000000019
21
-109.0652630000000016
0
LINE
8
BLACK
6
CONTINUOUS
10
114.5042770000000019
20
-109.0652630000000016
11
114.5042770000000019
21
-109.0652469999999994
0
LINE
8
BLACK
6
CONTINUOUS
10
114.5042770000000019
20
-109.0652469999999994
11
114.5
21
-109.
0
LINE
8
BLACK
6
CONTINUOUS
10
114.5
20
-109.
11
114.5
21
-107.6191910000000007
0
LINE
8
BLACK
6
CONTINUOUS
10
114.5
20
-107.6191910000000007
11
114.3923349999999886
21
-107.4996170000000006
0
LINE
8
BLACK
6
CONTINUOUS
10
114.3923349999999886
20
-107.4996170000000006
11
114.3034849999999949
21
-107.3457259999999991
0
LINE
8
BLACK
6
CONTINUOUS
10
114.3034849999999949
20
-107.3457259999999991
11
114.2485739999999907
21
-107.1767249999999905
0
LINE
8
BLACK
6
CONTINUOUS
10
114.2485739999999907
20
-107.1767249999999905
11
114.2299989999999923
21
-107.
0
LINE
8
BLACK
6
CONTINUOUS
10
114.2299989999999923
20
-107.
11
114.2485739999999907
21
-106.8232749999999953
0
LINE
8
BLACK
6
CONTINUOUS
10
114.2485739999999907
20
-106.8232749999999953
11
114.3034849999999949
21
-106.6542740000000009
0
LINE
8
BLACK
6
CONTINUOUS
10
114.3034849999999949
20
-106.6542740000000009
11
114.3923349999999886
21
-106.5003829999999994
0
LINE
8
BLACK
6
CONTINUOUS
10
114.3923349999999886
20
-106.5003829999999994
11
114.5112379999999916
21
-106.3683269999999936
0
LINE
8
BLACK
6
CONTINUOUS
10
114.5112379999999916
20
-106.3683269999999936
11
114.5799990000000008
21
-106.3183679999999924
0
LINE
8
BLACK
6
CONTINUOUS
10
114.5799990000000008
20
-106.3183679999999924
11
114.5799990000000008
21
-103.3499999999999943
0
LINE
8
BLACK
6
CONTINUOUS
10
114.5799990000000008
20
-103.3499999999999943
11
113.6499999999999915
21
-103.3499999999999943
0
LINE
8
BLACK
6
CONTINUOUS
10
113.6499999999999915
20
-103.3499999999999943
11
113.6499999999999915
21
-102.8566689999999966
0
LINE
8
BLACK
6
CONTINUOUS
10
113.6499999999999915
20
-102.8566689999999966
11
113.6464469999999949
21
-102.8535539999999884
0
LINE
8
BLACK
6
CONTINUOUS
10
113.6464469999999949
20
-102.8535539999999884
11
110.6464469999999949
21
-99.8535529999999909
0
LINE
8
BLACK
6
CONTINUOUS
10
110.6464469999999949
20
-99.8535529999999909
11
110.6033379999999937
21
-99.804395999999997
0
LINE
8
BLACK
6
CONTINUOUS
10
110.6033379999999937
20
-99.804395999999997
11
110.603322999999989
21
-99.8043809999999922
0
LINE
8
BLACK
6
CONTINUOUS
10
110.603322999999989
20
-99.8043809999999922
11
110.5380600000000015
21
-99.6913419999999917
0
LINE
8
BLACK
6
CONTINUOUS
10
110.5380600000000015
20
-99.6913419999999917
11
110.5042770000000019
21
-99.5652630000000016
0
LINE
8
BLACK
6
CONTINUOUS
10
110.5042770000000019
20
-99.5652630000000016
11
110.5042770000000019
21
-99.5652469999999994
0
LINE
8
BLACK
6
CONTINUOUS
10
110.5042770000000019
20
-99.5652469999999994
11
110.5
21
-99.5
0
LINE
8
BLACK
6
CONTINUOUS
10
110.5
20
-99.5
11
110.5
21
-84.5
0
LINE
8
BLACK
6
CONTINUOUS
10
110.5
20
-84.5
11
110.5042770000000019
21
-84.4347520000000031
0
LINE
8
BLACK
6
CONTINUOUS
10
110.5042770000000019
20
-84.4347520000000031
11
110.5042770000000019
21
-84.4347369999999984
0
LINE
8
BLACK
6
CONTINUOUS
10
110.5042770000000019
20
-84.4347369999999984
11
110.5380600000000015
21
-84.3086579999999941
0
LINE
8
BLACK
6
CONTINUOUS
10
110.5380600000000015
20
-84.3086579999999941
11
110.5405299999999897
21
-84.3043799999999948
0
LINE
8
BLACK
6
CONTINUOUS
10
110.5405299999999897
20
-84.3043799999999948
11
110.603322999999989
21
-84.1956189999999935
0
LINE
8
BLACK
6
CONTINUOUS
10
110.603322999999989
20
-84.1956189999999935
11
110.6033379999999937
21
-84.1956029999999913
0
LINE
8
BLACK
6
CONTINUOUS
10
110.6033379999999937
20
-84.1956029999999913
11
110.6464469999999949
21
-84.1464469999999949
0
LINE
8
BLACK
6
CONTINUOUS
10
110.6464469999999949
20
-84.1464469999999949
11
111.1464469999999949
21
-83.6464459999999974
0
LINE
8
BLACK
6
CONTINUOUS
10
111.1464469999999949
20
-83.6464459999999974
11
111.1956029999999913
21
-83.6033379999999937
0
LINE
8
BLACK
6
CONTINUOUS
10
111.1956029999999913
20
-83.6033379999999937
11
111.1956189999999935
21
-83.6033230000000032
0
LINE
8
BLACK
6
CONTINUOUS
10
111.1956189999999935
20
-83.6033230000000032
11
111.3086579999999941
21
-83.5380600000000015
0
LINE
8
BLACK
6
CONTINUOUS
10
111.3086579999999941
20
-83.5380600000000015
11
111.4347369999999984
21
-83.5042770000000019
0
LINE
8
BLACK
6
CONTINUOUS
10
111.4347369999999984
20
-83.5042770000000019
11
111.4347519999999889
21
-83.5042770000000019
0
LINE
8
BLACK
6
CONTINUOUS
10
111.4347519999999889
20
-83.5042770000000019
11
111.5
21
-83.5
0
LINE
8
BLACK
6
CONTINUOUS
10
111.5
20
-83.5
11
112.25
21
-83.5
0
LINE
8
BLACK
6
CONTINUOUS
10
112.25
20
-83.5
11
112.25
21
-82.5749989999999912
0
LINE
8
BLACK
6
CONTINUOUS
10
112.25
20
-82.5749989999999912
11
112.2690300000000008
21
-82.4793289999999928
0
LINE
8
BLACK
6
CONTINUOUS
10
112.2690300000000008
20
-82.4793289999999928
11
112.3232229999999987
21
-82.3982230000000015
0
LINE
8
BLACK
6
CONTINUOUS
10
112.3232229999999987
20
-82.3982230000000015
11
112.4043289999999899
21
-82.3440299999999894
0
LINE
8
BLACK
6
CONTINUOUS
10
112.4043289999999899
20
-82.3440299999999894
11
112.5
21
-82.3250010000000003
0
LINE
8
BLACK
6
CONTINUOUS
10
112.5
20
-82.3250010000000003
11
113.4000009999999889
21
-82.3250000000000028
0
LINE
8
BLACK
6
CONTINUOUS
10
113.4000009999999889
20
-82.3250000000000028
11
113.4956710000000015
21
-82.3440299999999894
0
LINE
8
BLACK
6
CONTINUOUS
10
117.520670999999993
20
-97.4190299999999922
11
117.6017769999999985
21
-97.4732229999999902
0
LINE
8
BLACK
6
CONTINUOUS
10
117.6017769999999985
20
-97.4732229999999902
11
117.6559699999999964
21
-97.5543289999999956
0
LINE
8
BLACK
6
CONTINUOUS
10
117.6559699999999964
20
-97.5543289999999956
11
117.6650539999999978
21
-97.5999999999999943
0
LINE
8
BLACK
6
CONTINUOUS
10
117.6650539999999978
20
-97.5999999999999943
11
120.0999999999999943
21
-97.5999999999999943
0
LINE
8
BLACK
6
CONTINUOUS
10
120.0999999999999943
20
-97.5999999999999943
11
120.1652479999999912
21
-97.6042769999999962
0
LINE
8
BLACK
6
CONTINUOUS
10
120.1652479999999912
20
-97.6042769999999962
11
120.1652629999999959
21
-97.6042769999999962
0
LINE
8
BLACK
6
CONTINUOUS
10
120.1652629999999959
20
-97.6042769999999962
11
120.2913420000000002
21
-97.6380599999999959
0
LINE
8
BLACK
6
CONTINUOUS
10
120.2913420000000002
20
-97.6380599999999959
11
120.4043810000000008
21
-97.7033229999999975
0
LINE
8
BLACK
6
CONTINUOUS
10
120.4043810000000008
20
-97.7033229999999975
11
120.4043959999999913
21
-97.7033380000000022
0
LINE
8
BLACK
6
CONTINUOUS
10
120.4043959999999913
20
-97.7033380000000022
11
120.4535529999999994
21
-97.7464469999999892
0
LINE
8
BLACK
6
CONTINUOUS
10
120.4535529999999994
20
-97.7464469999999892
11
121.707105999999996
21
-99.
0
LINE
8
BLACK
6
CONTINUOUS
10
121.707105999999996
20
-99.
11
122.
21
-99.
0
LINE
8
BLACK
6
CONTINUOUS
10
122.
20
-99.
11
124.3999999999999915
21
-99.
0
LINE
8
BLACK
6
CONTINUOUS
10
124.3999999999999915
20
-99.
11
125.6499999999999915
21
-99.
0
LINE
8
BLACK
6
CONTINUOUS
10
125.6499999999999915
20
-99.
11
125.6499999999999915
21
-100.
0
LINE
8
BLACK
6
CONTINUOUS
10
125.6499999999999915
20
-100.
11
123.1499999999999915
21
-100.
0
LINE
8
BLACK
6
CONTINUOUS
10
123.1499999999999915
20
-100.
11
122.2071069999999935
21
-100.
0
LINE
8
BLACK
6
CONTINUOUS
10
122.2071069999999935
20
-100.
11
120.2387899999999945
21
-101.9683149999999898
0
LINE
8
BLACK
6
CONTINUOUS
10
120.2387899999999945
20
-101.9683149999999898
11
120.2676639999999963
21
-102.0003829999999994
0
LINE
8
BLACK
6
CONTINUOUS
10
120.2676639999999963
20
-102.0003829999999994
11
120.35651399999999
21
-102.1542740000000009
0
LINE
8
BLACK
6
CONTINUOUS
10
120.35651399999999
20
-102.1542740000000009
11
120.4114249999999942
21
-102.3232749999999953
0
LINE
8
BLACK
6
CONTINUOUS
10
120.4114249999999942
20
-102.3232749999999953
11
120.4299999999999926
21
-102.5
0
LINE
8
BLACK
6
CONTINUOUS
10
120.4299999999999926
20
-102.5
11
120.4114249999999942
21
-102.6767249999999905
0
LINE
8
BLACK
6
CONTINUOUS
10
120.4114249999999942
20
-102.6767249999999905
11
120.35651399999999
21
-102.8457259999999991
0
LINE
8
BLACK
6
CONTINUOUS
10
120.35651399999999
20
-102.8457259999999991
11
120.2676639999999963
21
-102.9996170000000006
0
LINE
8
BLACK
6
CONTINUOUS
10
120.2676639999999963
20
-102.9996170000000006
11
120.1487609999999933
21
-103.1316729999999922
0
LINE
8
BLACK
6
CONTINUOUS
10
120.1487609999999933
20
-103.1316729999999922
11
120.0799999999999983
21
-103.1816309999999959
0
LINE
8
BLACK
6
CONTINUOUS
10
120.0799999999999983
20
-103.1816309999999959
11
120.0799999999999983
21
-104.
0
LINE
8
BLACK
6
CONTINUOUS
10
120.0799999999999983
20
-104.
11
120.0757229999999964
21
-104.0652469999999994
0
LINE
8
BLACK
6
CONTINUOUS
10
120.0757229999999964
20
-104.0652469999999994
11
120.0757229999999964
21
-104.0652630000000016
0
LINE
8
BLACK
6
CONTINUOUS
10
120.0757229999999964
20
-104.0652630000000016
11
120.053968999999995
21
-104.1464469999999949
0
LINE
8
BLACK
6
CONTINUOUS
10
120.053968999999995
20
-104.1464469999999949
11
120.0419399999999968
21
-104.1913419999999917
0
LINE
8
BLACK
6
CONTINUOUS
10
120.0419399999999968
20
-104.1913419999999917
11
119.9766769999999951
21
-104.3043809999999922
0
LINE
8
BLACK
6
CONTINUOUS
10
119.9766769999999951
20
-104.3043809999999922
11
119.9766690000000011
21
-104.3043879999999888
0
LINE
8
BLACK
6
CONTINUOUS
10
119.9766690000000011
20
-104.3043879999999888
11
119.9335540000000009
21
-104.3535529999999909
0
LINE
8
BLACK
6
CONTINUOUS
10
119.9335540000000009
20
-104.3535529999999909
11
118.1199999999999903
21
-106.1671059999999898
0
LINE
8
BLACK
6
CONTINUOUS
10
118.1199999999999903
20
-106.1671059999999898
11
118.1199999999999903
21
-106.3183679999999924
0
LINE
8
BLACK
6
CONTINUOUS
10
118.1199999999999903
20
-106.3183679999999924
11
118.1887609999999995
21
-106.3683269999999936
0
LINE
8
BLACK
6
CONTINUOUS
10
118.1887609999999995
20
-106.3683269999999936
11
118.3076639999999884
21
-106.5003829999999994
0
LINE
8
BLACK
6
CONTINUOUS
10
118.3076639999999884
20
-106.5003829999999994
11
118.3965139999999963
21
-106.6542740000000009
0
LINE
8
BLACK
6
CONTINUOUS
10
118.3965139999999963
20
-106.6542740000000009
11
118.4514250000000004
21
-106.8232749999999953
0
LINE
8
BLACK
6
CONTINUOUS
10
118.4514250000000004
20
-106.8232749999999953
11
118.4699999999999989
21
-107.
0
LINE
8
BLACK
6
CONTINUOUS
10
118.4699999999999989
20
-107.
11
118.4514250000000004
21
-107.1767249999999905
0
LINE
8
BLACK
6
CONTINUOUS
10
118.4514250000000004
20
-107.1767249999999905
11
118.3965139999999963
21
-107.3457259999999991
0
LINE
8
BLACK
6
CONTINUOUS
10
118.3965139999999963
20
-107.3457259999999991
11
118.3076639999999884
21
-107.4996170000000006
0
LINE
8
BLACK
6
CONTINUOUS
10
118.3076639999999884
20
-107.4996170000000006
11
118.1887609999999995
21
-107.6316729999999922
0
LINE
8
BLACK
6
CONTINUOUS
10
118.1887609999999995
20
-107.6316729999999922
11
118.1199999999999903
21
-107.6816309999999959
0
LINE
8
BLACK
6
CONTINUOUS
10
118.1199999999999903
20
-107.6816309999999959
11
118.1199999999999903
21
-108.4128929999999968
0
LINE
8
BLACK
6
CONTINUOUS
10
118.1199999999999903
20
-108.4128929999999968
11
120.4126100000000008
21
-110.7055029999999931
0
LINE
8
BLACK
6
CONTINUOUS
10
120.4126100000000008
20
-110.7055029999999931
11
120.4185299999999899
21
-110.694429999999997
0
LINE
8
BLACK
6
CONTINUOUS
10
120.4185299999999899
20
-110.694429999999997
11
120.5428929999999923
21
-110.5428929999999923
0
LINE
8
BLACK
6
CONTINUOUS
10
120.5428929999999923
20
-110.5428929999999923
11
120.694429999999997
21
-110.4185299999999899
0
LINE
8
BLACK
6
CONTINUOUS
10
120.694429999999997
20
-110.4185299999999899
11
120.8673169999999999
21
-110.3261199999999889
0
LINE
8
BLACK
6
CONTINUOUS
10
120.8673169999999999
20
-110.3261199999999889
11
121.0549099999999925
21
-110.2692149999999884
0
LINE
8
BLACK
6
CONTINUOUS
10
121.0549099999999925
20
-110.2692149999999884
11
121.25
21
-110.25
0
LINE
8
BLACK
6
CONTINUOUS
10
121.25
20
-110.25
11
121.4450899999999933
21
-110.2692149999999884
0
LINE
8
BLACK
6
CONTINUOUS
10
121.4450899999999933
20
-110.2692149999999884
11
121.6326830000000001
21
-110.3261199999999889
0
LINE
8
BLACK
6
CONTINUOUS
10
121.6326830000000001
20
-110.3261199999999889
11
121.8055699999999888
21
-110.4185299999999899
0
LINE
8
BLACK
6
CONTINUOUS
10
121.8055699999999888
20
-110.4185299999999899
11
121.9571069999999935
21
-110.5428929999999923
0
LINE
8
BLACK
6
CONTINUOUS
10
121.9571069999999935
20
-110.5428929999999923
11
122.0814699999999959
21
-110.694429999999997
0
LINE
8
BLACK
6
CONTINUOUS
10
122.0814699999999959
20
-110.694429999999997
11
122.1111729999999937
21
-110.75
0
LINE
8
BLACK
6
CONTINUOUS
10
122.1111729999999937
20
-110.75
11
126.888826999999992
21
-110.75
0
LINE
8
BLACK
6
CONTINUOUS
10
126.888826999999992
20
-110.75
11
126.9185299999999899
21
-110.694429999999997
0
LINE
8
BLACK
6
CONTINUOUS
10
126.9185299999999899
20
-110.694429999999997
11
127.0428929999999923
21
-110.5428929999999923
0
LINE
8
BLACK
6
CONTINUOUS
10
127.0428929999999923
20
-110.5428929999999923
11
127.194429999999997
21
-110.4185299999999899
0
LINE
8
BLACK
6
CONTINUOUS
10
127.194429999999997
20
-110.4185299999999899
11
127.3673169999999999
21
-110.3261199999999889
0
LINE
8
BLACK
6
CONTINUOUS
10
127.3673169999999999
20
-110.3261199999999889
11
127.5549099999999925
21
-110.2692149999999884
0
LINE
8
BLACK
6
CONTINUOUS
10
127.5549099999999925
20
-110.2692149999999884
11
127.75
21
-110.25
0
LINE
8
BLACK
6
CONTINUOUS
10
127.75
20
-110.25
11
127.9450899999999933
21
-110.2692149999999884
0
LINE
8
BLACK
6
CONTINUOUS
10
127.9450899999999933
20
-110.2692149999999884
11
128.1326829999999859
21
-110.3261199999999889
0
LINE
8
BLACK
6
CONTINUOUS
10
128.1326829999999859
20
-110.3261199999999889
11
128.3055699999999888
21
-110.4185299999999899
0
LINE
8
BLACK
6
CONTINUOUS
10
128.3055699999999888
20
-110.4185299999999899
11
128.4571070000000077
21
-110.5428929999999923
0
LINE
8
BLACK
6
CONTINUOUS
10
128.4571070000000077
20
-110.5428929999999923
11
128.5814699999999959
21
-110.694429999999997
0
LINE
8
BLACK
6
CONTINUOUS
10
128.5814699999999959
20
-110.694429999999997
11
128.6738799999999969
21
-110.8673169999999999
0
LINE
8
BLACK
6
CONTINUOUS
10
128.6738799999999969
20
-110.8673169999999999
11
128.7307849999999974
21
-111.0549099999999925
0
LINE
8
BLACK
6
CONTINUOUS
10
128.7307849999999974
20
-111.0549099999999925
11
128.75
21
-111.25
0
LINE
8
BLACK
6
CONTINUOUS
10
128.75
20
-111.25
11
128.7307849999999974
21
-111.4450899999999933
0
LINE
8
BLACK
6
CONTINUOUS
10
128.7307849999999974
20
-111.4450899999999933
11
128.6738799999999969
21
-111.6326830000000001
0
LINE
8
BLACK
6
CONTINUOUS
10
128.6738799999999969
20
-111.6326830000000001
11
128.5814699999999959
21
-111.8055699999999888
0
LINE
8
BLACK
6
CONTINUOUS
10
128.5814699999999959
20
-111.8055699999999888
11
128.4571070000000077
21
-111.9571069999999935
0
LINE
8
BLACK
6
CONTINUOUS
10
128.4571070000000077
20
-111.9571069999999935
11
128.3055699999999888
21
-112.0814699999999959
0
LINE
8
BLACK
6
CONTINUOUS
10
128.3055699999999888
20
-112.0814699999999959
11
128.1326829999999859
21
-112.1738799999999969
0
LINE
8
BLACK
6
CONTINUOUS
10
128.1326829999999859
20
-112.1738799999999969
11
127.9450899999999933
21
-112.2307849999999974
0
LINE
8
BLACK
6
CONTINUOUS
10
127.9450899999999933
20
-112.2307849999999974
11
127.75
21
-112.25
0
LINE
8
BLACK
6
CONTINUOUS
10
127.75
20
-112.25
11
127.5549099999999925
21
-112.2307849999999974
0
LINE
8
BLACK
6
CONTINUOUS
10
127.5549099999999925
20
-112.2307849999999974
11
127.3673169999999999
21
-112.1738799999999969
0
LINE
8
BLACK
6
CONTINUOUS
10
127.3673169999999999
20
-112.1738799999999969
11
127.194429999999997
21
-112.0814699999999959
0
LINE
8
BLACK
6
CONTINUOUS
10
127.194429999999997
20
-112.0814699999999959
11
127.0428929999999923
21
-111.9571069999999935
0
LINE
8
BLACK
6
CONTINUOUS
10
127.0428929999999923
20
-111.9571069999999935
11
126.9185299999999899
21
-111.8055699999999888
0
LINE
8
BLACK
6
CONTINUOUS
10
126.9185299999999899
20
-111.8055699999999888
11
126.888826999999992
21
-111.75
0
LINE
8
BLACK
6
CONTINUOUS
10
126.888826999999992
20
-111.75
11
122.1111729999999937
21
-111.75
0
LINE
8
BLACK
6
CONTINUOUS
10
122.1111729999999937
20
-111.75
11
122.0814699999999959
21
-111.8055699999999888
0
LINE
8
BLACK
6
CONTINUOUS
10
122.0814699999999959
20
-111.8055699999999888
11
121.9571069999999935
21
-111.9571069999999935
0
LINE
8
BLACK
6
CONTINUOUS
10
121.9571069999999935
20
-111.9571069999999935
11
121.8055699999999888
21
-112.0814699999999959
0
LINE
8
BLACK
6
CONTINUOUS
10
121.8055699999999888
20
-112.0814699999999959
11
121.75
21
-112.1111719999999963
0
LINE
8
BLACK
6
CONTINUOUS
10
121.75
20
-112.1111719999999963
11
121.75
21
-115.5428929999999923
0
LINE
8
BLACK
6
CONTINUOUS
10
121.75
20
-115.5428929999999923
11
126.4126100000000008
21
-120.2055029999999931
0
LINE
8
BLACK
6
CONTINUOUS
10
126.4126100000000008
20
-120.2055029999999931
11
126.4185299999999899
21
-120.194429999999997
0
LINE
8
BLACK
6
CONTINUOUS
10
126.4185299999999899
20
-120.194429999999997
11
126.5428929999999923
21
-120.0428929999999923
0
LINE
8
BLACK
6
CONTINUOUS
10
126.5428929999999923
20
-120.0428929999999923
11
126.694429999999997
21
-119.9185299999999899
0
LINE
8
BLACK
6
CONTINUOUS
10
126.694429999999997
20
-119.9185299999999899
11
126.8673169999999999
21
-119.8261199999999889
0
LINE
8
BLACK
6
CONTINUOUS
10
126.8673169999999999
20
-119.8261199999999889
11
127.0549099999999925
21
-119.7692149999999884
0
LINE
8
BLACK
6
CONTINUOUS
10
127.0549099999999925
20
-119.7692149999999884
11
127.25
21
-119.75
0
LINE
8
BLACK
6
CONTINUOUS
10
127.25
20
-119.75
11
127.4450899999999933
21
-119.7692149999999884
0
LINE
8
BLACK
6
CONTINUOUS
10
127.4450899999999933
20
-119.7692149999999884
11
127.6326830000000001
21
-119.8261199999999889
0
LINE
8
BLACK
6
CONTINUOUS
10
127.6326830000000001
20
-119.8261199999999889
11
127.8055699999999888
21
-119.9185299999999899
0
LINE
8
BLACK
6
CONTINUOUS
10
127.8055699999999888
20
-119.9185299999999899
11
127.9571069999999935
21
-120.0428929999999923
0
LINE
8
BLACK
6
CONTINUOUS
10
127.9571069999999935
20
-120.0428929999999923
11
128.0814699999999959
21
-120.194429999999997
0
LINE
8
BLACK
6
CONTINUOUS
10
128.0814699999999959
20
-120.194429999999997
11
128.111173000000008
21
-120.25
0
LINE
8
BLACK
6
CONTINUOUS
10
128.111173000000008
20
-120.25
11
132.888826999999992
21
-120.25
0
LINE
8
BLACK
6
CONTINUOUS
10
132.888826999999992
20
-120.25
11
132.9185300000000041
21
-120.194429999999997
0
LINE
8
BLACK
6
CONTINUOUS
10
132.9185300000000041
20
-120.194429999999997
11
133.0428929999999923
21
-120.0428929999999923
0
LINE
8
BLACK
6
CONTINUOUS
10
133.0428929999999923
20
-120.0428929999999923
11
133.1944299999999828
21
-119.9185299999999899
0
LINE
8
BLACK
6
CONTINUOUS
10
133.1944299999999828
20
-119.9185299999999899
11
133.3673169999999857
21
-119.8261199999999889
0
LINE
8
BLACK
6
CONTINUOUS
10
133.3673169999999857
20
-119.8261199999999889
11
133.5549100000000067
21
-119.7692149999999884
0
LINE
8
BLACK
6
CONTINUOUS
10
133.5549100000000067
20
-119.7692149999999884
11
133.75
21
-119.75
0
LINE
8
BLACK
6
CONTINUOUS
10
133.75
20
-119.75
11
133.8800819999999874
21
-119.7628119999999967
0
LINE
8
BLACK
6
CONTINUOUS
10
133.8800819999999874
20
-119.7628119999999967
11
135.8500009999999918
21
-117.7928929999999923
0
LINE
8
BLACK
6
CONTINUOUS
10
135.8500009999999918
20
-117.7928929999999923
11
135.8500009999999918
21
-116.0999999999999943
0
LINE
8
BLACK
6
CONTINUOUS
10
135.8500009999999918
20
-116.0999999999999943
11
135.8614279999999894
21
-115.9937169999999895
0
LINE
8
BLACK
6
CONTINUOUS
10
135.8614279999999894
20
-115.9937169999999895
11
135.9111619999999903
21
-115.860375999999988
0
LINE
8
BLACK
6
CONTINUOUS
10
135.9111619999999903
20
-115.860375999999988
11
135.9964479999999867
21
-115.7464469999999892
0
LINE
8
BLACK
6
CONTINUOUS
10
135.9964479999999867
20
-115.7464469999999892
11
136.1103769999999997
21
-115.6611609999999928
0
LINE
8
BLACK
6
CONTINUOUS
10
136.1103769999999997
20
-115.6611609999999928
11
136.2437180000000012
21
-115.6114269999999919
0
LINE
8
BLACK
6
CONTINUOUS
10
136.2437180000000012
20
-115.6114269999999919
11
136.3500009999999918
21
-115.5999999999999943
0
LINE
8
BLACK
6
CONTINUOUS
10
136.3500009999999918
20
-115.5999999999999943
11
136.3500009999999918
21
-111.75
0
LINE
8
BLACK
6
CONTINUOUS
10
136.3500009999999918
20
-111.75
11
134.111173000000008
21
-111.75
0
LINE
8
BLACK
6
CONTINUOUS
10
134.111173000000008
20
-111.75
11
134.0814699999999959
21
-111.8055699999999888
0
LINE
8
BLACK
6
CONTINUOUS
10
134.0814699999999959
20
-111.8055699999999888
11
133.9571070000000077
21
-111.9571069999999935
0
LINE
8
BLACK
6
CONTINUOUS
10
133.9571070000000077
20
-111.9571069999999935
11
133.8055699999999888
21
-112.0814699999999959
0
LINE
8
BLACK
6
CONTINUOUS
10
133.8055699999999888
20
-112.0814699999999959
11
133.6326829999999859
21
-112.1738799999999969
0
LINE
8
BLACK
6
CONTINUOUS
10
133.6326829999999859
20
-112.1738799999999969
11
133.4450899999999933
21
-112.2307849999999974
0
LINE
8
BLACK
6
CONTINUOUS
10
133.4450899999999933
20
-112.2307849999999974
11
133.25
21
-112.25
0
LINE
8
BLACK
6
CONTINUOUS
10
133.25
20
-112.25
11
133.0549100000000067
21
-112.2307849999999974
0
LINE
8
BLACK
6
CONTINUOUS
10
133.0549100000000067
20
-112.2307849999999974
11
132.8673169999999857
21
-112.1738799999999969
0
LINE
8
BLACK
6
CONTINUOUS
10
132.8673169999999857
20
-112.1738799999999969
11
132.6944299999999828
21
-112.0814699999999959
0
LINE
8
BLACK
6
CONTINUOUS
10
132.6944299999999828
20
-112.0814699999999959
11
132.5428929999999923
21
-111.9571069999999935
0
LINE
8
BLACK
6
CONTINUOUS
10
132.5428929999999923
20
-111.9571069999999935
11
132.4185300000000041
21
-111.8055699999999888
0
LINE
8
BLACK
6
CONTINUOUS
10
132.4185300000000041
20
-111.8055699999999888
11
132.3261200000000031
21
-111.6326830000000001
0
LINE
8
BLACK
6
CONTINUOUS
10
132.3261200000000031
20
-111.6326830000000001
11
132.2692150000000026
21
-111.4450899999999933
0
LINE
8
BLACK
6
CONTINUOUS
10
132.2692150000000026
20
-111.4450899999999933
11
132.25
21
-111.25
0
LINE
8
BLACK
6
CONTINUOUS
10
132.25
20
-111.25
11
132.2692150000000026
21
-111.0549099999999925
0
LINE
8
BLACK
6
CONTINUOUS
10
132.2692150000000026
20
-111.0549099999999925
11
132.3261200000000031
21
-110.8673169999999999
0
LINE
8
BLACK
6
CONTINUOUS
10
132.3261200000000031
20
-110.8673169999999999
11
132.4185300000000041
21
-110.694429999999997
0
LINE
8
BLACK
6
CONTINUOUS
10
132.4185300000000041
20
-110.694429999999997
11
132.5428929999999923
21
-110.5428929999999923
0
LINE
8
BLACK
6
CONTINUOUS
10
132.5428929999999923
20
-110.5428929999999923
11
132.6944299999999828
21
-110.4185299999999899
0
LINE
8
BLACK
6
CONTINUOUS
10
132.6944299999999828
20
-110.4185299999999899
11
132.8673169999999857
21
-110.3261199999999889
0
LINE
8
BLACK
6
CONTINUOUS
10
132.8673169999999857
20
-110.3261199999999889
11
133.0549100000000067
21
-110.2692149999999884
0
LINE
8
BLACK
6
CONTINUOUS
10
133.0549100000000067
20
-110.2692149999999884
11
133.25
21
-110.25
0
LINE
8
BLACK
6
CONTINUOUS
10
133.25
20
-110.25
11
133.4450899999999933
21
-110.2692149999999884
0
LINE
8
BLACK
6
CONTINUOUS
10
133.4450899999999933
20
-110.2692149999999884
11
133.6326829999999859
21
-110.3261199999999889
0
LINE
8
BLACK
6
CONTINUOUS
10
133.6326829999999859
20
-110.3261199999999889
11
133.8055699999999888
21
-110.4185299999999899
0
LINE
8
BLACK
6
CONTINUOUS
10
133.8055699999999888
20
-110.4185299999999899
11
133.9571070000000077
21
-110.5428929999999923
0
LINE
8
BLACK
6
CONTINUOUS
10
133.9571070000000077
20
-110.5428929999999923
11
134.0814699999999959
21
-110.694429999999997
0
LINE
8
BLACK
6
CONTINUOUS
10
134.0814699999999959
20
-110.694429999999997
11
134.111173000000008
21
-110.75
0
LINE
8
BLACK
6
CONTINUOUS
10
134.111173000000008
20
-110.75
11
137.
21
-110.75
0
LINE
8
BLACK
6
CONTINUOUS
10
137.
20
-110.75
11
138.888826999999992
21
-110.75
0
LINE
8
BLACK
6
CONTINUOUS
10
138.888826999999992
20
-110.75
11
138.9185300000000041
21
-110.694429999999997
0
LINE
8
BLACK
6
CONTINUOUS
10
138.9185300000000041
20
-110.694429999999997
11
139.0428929999999923
21
-110.5428929999999923
0
LINE
8
BLACK
6
CONTINUOUS
10
139.0428929999999923
20
-110.5428929999999923
11
139.1944299999999828
21
-110.4185299999999899
0
LINE
8
BLACK
6
CONTINUOUS
10
139.1944299999999828
20
-110.4185299999999899
11
139.3673169999999857
21
-110.3261199999999889
0
LINE
8
BLACK
6
CONTINUOUS
10
139.3673169999999857
20
-110.3261199999999889
11
139.5549100000000067
21
-110.2692149999999884
0
LINE
8
BLACK
6
CONTINUOUS
10
139.5549100000000067
20
-110.2692149999999884
11
139.75
21
-110.25
0
LINE
8
BLACK
6
CONTINUOUS
10
139.75
20
-110.25
11
139.9450899999999933
21
-110.2692149999999884
0
LINE
8
BLACK
6
CONTINUOUS
10
139.9450899999999933
20
-110.2692149999999884
11
140.1326829999999859
21
-110.3261199999999889
0
LINE
8
BLACK
6
CONTINUOUS
10
140.1326829999999859
20
-110.3261199999999889
11
140.3055699999999888
21
-110.4185299999999899
0
LINE
8
BLACK
6
CONTINUOUS
10
140.3055699999999888
20
-110.4185299999999899
11
140.4571070000000077
21
-110.5428929999999923
0
LINE
8
BLACK
6
CONTINUOUS
10
140.4571070000000077
20
-110.5428929999999923
11
140.5814699999999959
21
-110.694429999999997
0
LINE
8
BLACK
6
CONTINUOUS
10
140.5814699999999959
20
-110.694429999999997
11
140.6738799999999969
21
-110.8673169999999999
0
LINE
8
BLACK
6
CONTINUOUS
10
140.6738799999999969
20
-110.8673169999999999
11
140.7307849999999974
21
-111.0549099999999925
0
LINE
8
BLACK
6
CONTINUOUS
10
140.7307849999999974
20
-111.0549099999999925
11
140.75
21
-111.25
0
LINE
8
BLACK
6
CONTINUOUS
10
140.75
20
-111.25
11
140.7307849999999974
21
-111.4450899999999933
0
LINE
8
BLACK
6
CONTINUOUS
10
140.7307849999999974
20
-111.4450899999999933
11
140.6738799999999969
21
-111.6326830000000001
0
LINE
8
BLACK
6
CONTINUOUS
10
140.6738799999999969
20
-111.6326830000000001
11
140.5814699999999959
21
-111.8055699999999888
0
LINE
8
BLACK
6
CONTINUOUS
10
140.5814699999999959
20
-111.8055699999999888
11
140.4571070000000077
21
-111.9571069999999935
0
LINE
8
BLACK
6
CONTINUOUS
10
140.4571070000000077
20
-111.9571069999999935
11
140.3055699999999888
21
-112.0814699999999959
0
LINE
8
BLACK
6
CONTINUOUS
10
140.3055699999999888
20
-112.0814699999999959
11
140.1326829999999859
21
-112.1738799999999969
0
LINE
8
BLACK
6
CONTINUOUS
10
140.1326829999999859
20
-112.1738799999999969
11
139.9450899999999933
21
-112.2307849999999974
0
LINE
8
BLACK
6
CONTINUOUS
10
139.9450899999999933
20
-112.2307849999999974
11
139.75
21
-112.25
0
LINE
8
BLACK
6
CONTINUOUS
10
139.75
20
-112.25
11
139.5549100000000067
21
-112.2307849999999974
0
LINE
8
BLACK
6
CONTINUOUS
10
139.5549100000000067
20
-112.2307849999999974
11
139.3673169999999857
21
-112.1738799999999969
0
LINE
8
BLACK
6
CONTINUOUS
10
139.3673169999999857
20
-112.1738799999999969
11
139.1944299999999828
21
-112.0814699999999959
0
LINE
8
BLACK
6
CONTINUOUS
10
139.1944299999999828
20
-112.0814699999999959
11
139.0428929999999923
21
-111.9571069999999935
0
LINE
8
BLACK
6
CONTINUOUS
10
139.0428929999999923
20
-111.9571069999999935
11
138.9185300000000041
21
-111.8055699999999888
0
LINE
8
BLACK
6
CONTINUOUS
10
138.9185300000000041
20
-111.8055699999999888
11
138.888826999999992
21
-111.75
0
LINE
8
BLACK
6
CONTINUOUS
10
138.888826999999992
20
-111.75
11
137.3500009999999918
21
-111.75
0
LINE
8
BLACK
6
CONTINUOUS
10
137.3500009999999918
20
-111.75
11
137.3500009999999918
21
-115.5999999999999943
0
LINE
8
BLACK
6
CONTINUOUS
10
137.3500009999999918
20
-115.5999999999999943
11
137.4562839999999824
21
-115.6114269999999919
0
LINE
8
BLACK
6
CONTINUOUS
10
137.4562839999999824
20
-115.6114269999999919
11
137.5896249999999839
21
-115.6611609999999928
0
LINE
8
BLACK
6
CONTINUOUS
10
137.5896249999999839
20
-115.6611609999999928
11
137.7035539999999969
21
-115.7464469999999892
0
LINE
8
BLACK
6
CONTINUOUS
10
137.7035539999999969
20
-115.7464469999999892
11
137.7888399999999933
21
-115.860375999999988
0
LINE
8
BLACK
6
CONTINUOUS
10
137.7888399999999933
20
-115.860375999999988
11
137.8385739999999942
21
-115.9937169999999895
0
LINE
8
BLACK
6
CONTINUOUS
10
137.8385739999999942
20
-115.9937169999999895
11
137.8500009999999918
21
-116.0999999999999943
0
LINE
8
BLACK
6
CONTINUOUS
10
137.8500009999999918
20
-116.0999999999999943
11
137.8500009999999918
21
-117.
0
LINE
8
BLACK
6
CONTINUOUS
10
137.8500009999999918
20
-117.
11
142.1743879999999933
21
-117.
0
LINE
8
BLACK
6
CONTINUOUS
10
142.1743879999999933
20
-117.
11
142.2198060000000055
21
-116.9070959999999957
0
LINE
8
BLACK
6
CONTINUOUS
10
142.2198060000000055
20
-116.9070959999999957
11
142.3070950000000039
21
-116.8198069999999973
0
LINE
8
BLACK
6
CONTINUOUS
10
142.3070950000000039
20
-116.8198069999999973
11
142.417997999999983
21
-116.7655899999999889
0
LINE
8
BLACK
6
CONTINUOUS
10
142.417997999999983
20
-116.7655899999999889
11
142.5249989999999798
21
-116.75
0
LINE
8
BLACK
6
CONTINUOUS
10
142.5249989999999798
20
-116.75
11
143.7749989999999798
21
-116.75
0
LINE
8
BLACK
6
CONTINUOUS
10
143.7749989999999798
20
-116.75
11
143.882000000000005
21
-116.7655899999999889
0
LINE
8
BLACK
6
CONTINUOUS
10
143.882000000000005
20
-116.7655899999999889
11
143.9929029999999841
21
-116.8198069999999973
0
LINE
8
BLACK
6
CONTINUOUS
10
143.9929029999999841
20
-116.8198069999999973
11
144.0801919999999825
21
-116.9070959999999957
0
LINE
8
BLACK
6
CONTINUOUS
10
144.0801919999999825
20
-116.9070959999999957
11
144.1344090000000051
21
-117.017998999999989
0
LINE
8
BLACK
6
CONTINUOUS
10
144.1344090000000051
20
-117.017998999999989
11
144.1499989999999798
21
-117.125
0
LINE
8
BLACK
6
CONTINUOUS
10
144.1499989999999798
20
-117.125
11
144.1499989999999798
21
-117.875
0
LINE
8
BLACK
6
CONTINUOUS
10
144.1499989999999798
20
-117.875
11
144.1344090000000051
21
-117.9820009999999968
0
LINE
8
BLACK
6
CONTINUOUS
10
144.1344090000000051
20
-117.9820009999999968
11
144.0801919999999825
21
-118.0929039999999901
0
LINE
8
BLACK
6
CONTINUOUS
10
144.0801919999999825
20
-118.0929039999999901
11
143.9929029999999841
21
-118.1801929999999885
0
LINE
8
BLACK
6
CONTINUOUS
10
143.9929029999999841
20
-118.1801929999999885
11
143.882000000000005
21
-118.2344099999999969
0
LINE
8
BLACK
6
CONTINUOUS
10
143.882000000000005
20
-118.2344099999999969
11
143.7749989999999798
21
-118.25
0
LINE
8
BLACK
6
CONTINUOUS
10
143.7749989999999798
20
-118.25
11
142.5249989999999798
21
-118.25
0
LINE
8
BLACK
6
CONTINUOUS
10
142.5249989999999798
20
-118.25
11
142.417997999999983
21
-118.2344099999999969
0
LINE
8
BLACK
6
CONTINUOUS
10
142.417997999999983
20
-118.2344099999999969
11
142.3070950000000039
21
-118.1801929999999885
0
LINE
8
BLACK
6
CONTINUOUS
10
142.3070950000000039
20
-118.1801929999999885
11
142.2198060000000055
21
-118.0929039999999901
0
LINE
8
BLACK
6
CONTINUOUS
10
142.2198060000000055
20
-118.0929039999999901
11
142.1743879999999933
21
-118.
0
LINE
8
BLACK
6
CONTINUOUS
10
142.1743879999999933
20
-118.
11
137.8500009999999918
21
-118.
0
LINE
8
BLACK
6
CONTINUOUS
10
137.8500009999999918
20
-118.
11
137.8500009999999918
21
-118.8999999999999915
0
LINE
8
BLACK
6
CONTINUOUS
10
137.8500009999999918
20
-118.8999999999999915
11
137.8385739999999942
21
-119.0062829999999963
0
LINE
8
BLACK
6
CONTINUOUS
10
137.8385739999999942
20
-119.0062829999999963
11
137.7888399999999933
21
-119.1396239999999977
0
LINE
8
BLACK
6
CONTINUOUS
10
137.7888399999999933
20
-119.1396239999999977
11
137.7035539999999969
21
-119.2535529999999966
0
LINE
8
BLACK
6
CONTINUOUS
10
137.7035539999999969
20
-119.2535529999999966
11
137.5896249999999839
21
-119.338838999999993
0
LINE
8
BLACK
6
CONTINUOUS
10
137.5896249999999839
20
-119.338838999999993
11
137.4562839999999824
21
-119.3885729999999938
0
LINE
8
BLACK
6
CONTINUOUS
10
137.4562839999999824
20
-119.3885729999999938
11
137.3500009999999918
21
-119.3999999999999915
0
LINE
8
BLACK
6
CONTINUOUS
10
137.3500009999999918
20
-119.3999999999999915
11
136.3500009999999918
21
-119.3999999999999915
0
LINE
8
BLACK
6
CONTINUOUS
10
136.3500009999999918
20
-119.3999999999999915
11
136.2437180000000012
21
-119.3885729999999938
0
LINE
8
BLACK
6
CONTINUOUS
10
136.2437180000000012
20
-119.3885729999999938
11
136.1103769999999997
21
-119.338838999999993
0
LINE
8
BLACK
6
CONTINUOUS
10
136.1103769999999997
20
-119.338838999999993
11
135.9964479999999867
21
-119.2535529999999966
0
LINE
8
BLACK
6
CONTINUOUS
10
135.9964479999999867
20
-119.2535529999999966
11
135.9138680000000079
21
-119.1432389999999941
0
LINE
8
BLACK
6
CONTINUOUS
10
135.9138680000000079
20
-119.1432389999999941
11
134.677582000000001
21
-120.3795239999999893
0
LINE
8
BLACK
6
CONTINUOUS
10
134.677582000000001
20
-120.3795239999999893
11
134.7307849999999974
21
-120.5549099999999925
0
LINE
8
BLACK
6
CONTINUOUS
10
134.7307849999999974
20
-120.5549099999999925
11
134.75
21
-120.75
0
LINE
8
BLACK
6
CONTINUOUS
10
134.75
20
-120.75
11
134.7307849999999974
21
-120.9450899999999933
0
LINE
8
BLACK
6
CONTINUOUS
10
134.7307849999999974
20
-120.9450899999999933
11
134.6738799999999969
21
-121.1326830000000001
0
LINE
8
BLACK
6
CONTINUOUS
10
134.6738799999999969
20
-121.1326830000000001
11
134.5814699999999959
21
-121.3055699999999888
0
LINE
8
BLACK
6
CONTINUOUS
10
134.5814699999999959
20
-121.3055699999999888
11
134.4571070000000077
21
-121.4571069999999935
0
LINE
8
BLACK
6
CONTINUOUS
10
134.4571070000000077
20
-121.4571069999999935
11
134.3055699999999888
21
-121.5814699999999959
0
LINE
8
BLACK
6
CONTINUOUS
10
134.3055699999999888
20
-121.5814699999999959
11
134.1326829999999859
21
-121.6738799999999969
0
LINE
8
BLACK
6
CONTINUOUS
10
134.1326829999999859
20
-121.6738799999999969
11
133.9450899999999933
21
-121.7307849999999974
0
LINE
8
BLACK
6
CONTINUOUS
10
133.9450899999999933
20
-121.7307849999999974
11
133.75
21
-121.75
0
LINE
8
BLACK
6
CONTINUOUS
10
133.75
20
-121.75
11
133.5549100000000067
21
-121.7307849999999974
0
LINE
8
BLACK
6
CONTINUOUS
10
133.5549100000000067
20
-121.7307849999999974
11
133.3673169999999857
21
-121.6738799999999969
0
LINE
8
BLACK
6
CONTINUOUS
10
133.3673169999999857
20
-121.6738799999999969
11
133.1944299999999828
21
-121.5814699999999959
0
LINE
8
BLACK
6
CONTINUOUS
10
133.1944299999999828
20
-121.5814699999999959
11
133.0428929999999923
21
-121.4571069999999935
0
LINE
8
BLACK
6
CONTINUOUS
10
133.0428929999999923
20
-121.4571069999999935
11
132.9185300000000041
21
-121.3055699999999888
0
LINE
8
BLACK
6
CONTINUOUS
10
132.9185300000000041
20
-121.3055699999999888
11
132.888826999999992
21
-121.25
0
LINE
8
BLACK
6
CONTINUOUS
10
132.888826999999992
20
-121.25
11
128.111173000000008
21
-121.25
0
LINE
8
BLACK
6
CONTINUOUS
10
128.111173000000008
20
-121.25
11
128.0814699999999959
21
-121.3055699999999888
0
LINE
8
BLACK
6
CONTINUOUS
10
128.0814699999999959
20
-121.3055699999999888
11
127.9571069999999935
21
-121.4571069999999935
0
LINE
8
BLACK
6
CONTINUOUS
10
127.9571069999999935
20
-121.4571069999999935
11
127.8055699999999888
21
-121.5814699999999959
0
LINE
8
BLACK
6
CONTINUOUS
10
127.8055699999999888
20
-121.5814699999999959
11
127.6326830000000001
21
-121.6738799999999969
0
LINE
8
BLACK
6
CONTINUOUS
10
127.6326830000000001
20
-121.6738799999999969
11
127.4450899999999933
21
-121.7307849999999974
0
LINE
8
BLACK
6
CONTINUOUS
10
127.4450899999999933
20
-121.7307849999999974
11
127.25
21
-121.75
0
LINE
8
BLACK
6
CONTINUOUS
10
127.25
20
-121.75
11
127.0549099999999925
21
-121.7307849999999974
0
LINE
8
BLACK
6
CONTINUOUS
10
127.0549099999999925
20
-121.7307849999999974
11
126.8673169999999999
21
-121.6738799999999969
0
LINE
8
BLACK
6
CONTINUOUS
10
126.8673169999999999
20
-121.6738799999999969
11
126.694429999999997
21
-121.5814699999999959
0
LINE
8
BLACK
6
CONTINUOUS
10
126.694429999999997
20
-121.5814699999999959
11
126.5428929999999923
21
-121.4571069999999935
0
LINE
8
BLACK
6
CONTINUOUS
10
126.5428929999999923
20
-121.4571069999999935
11
126.4185299999999899
21
-121.3055699999999888
0
LINE
8
BLACK
6
CONTINUOUS
10
126.4185299999999899
20
-121.3055699999999888
11
126.388826999999992
21
-121.25
0
LINE
8
BLACK
6
CONTINUOUS
10
126.388826999999992
20
-121.25
11
126.25
21
-121.25
0
LINE
8
BLACK
6
CONTINUOUS
10
126.25
20
-121.25
11
126.1847519999999889
21
-121.2457229999999981
0
LINE
8
BLACK
6
CONTINUOUS
10
126.1847519999999889
20
-121.2457229999999981
11
126.1847369999999984
21
-121.2457229999999981
0
LINE
8
BLACK
6
CONTINUOUS
10
126.1847369999999984
20
-121.2457229999999981
11
126.0586579999999941
21
-121.2119399999999985
0
LINE
8
BLACK
6
CONTINUOUS
10
126.0586579999999941
20
-121.2119399999999985
11
125.9456189999999935
21
-121.1466769999999968
0
LINE
8
BLACK
6
CONTINUOUS
10
125.9456189999999935
20
-121.1466769999999968
11
125.9456029999999913
21
-121.1466609999999946
0
LINE
8
BLACK
6
CONTINUOUS
10
125.9456029999999913
20
-121.1466609999999946
11
125.8964469999999949
21
-121.1035539999999884
0
LINE
8
BLACK
6
CONTINUOUS
10
125.8964469999999949
20
-121.1035539999999884
11
120.8964469999999949
21
-116.1035529999999909
0
LINE
8
BLACK
6
CONTINUOUS
10
120.8964469999999949
20
-116.1035529999999909
11
120.8533379999999937
21
-116.054395999999997
0
LINE
8
BLACK
6
CONTINUOUS
10
120.8533379999999937
20
-116.054395999999997
11
120.853322999999989
21
-116.0543809999999922
0
LINE
8
BLACK
6
CONTINUOUS
10
120.853322999999989
20
-116.0543809999999922
11
120.7880600000000015
21
-115.9413419999999917
0
LINE
8
BLACK
6
CONTINUOUS
10
120.7880600000000015
20
-115.9413419999999917
11
120.7760919999999913
21
-115.8966759999999994
0
LINE
8
BLACK
6
CONTINUOUS
10
120.7760919999999913
20
-115.8966759999999994
11
120.7542769999999877
21
-115.8152630000000016
0
LINE
8
BLACK
6
CONTINUOUS
10
120.7542769999999877
20
-115.8152630000000016
11
120.7542769999999877
21
-115.8152469999999994
0
LINE
8
BLACK
6
CONTINUOUS
10
120.7542769999999877
20
-115.8152469999999994
11
120.75
21
-115.75
0
LINE
8
BLACK
6
CONTINUOUS
10
120.75
20
-115.75
11
120.75
21
-112.1111719999999963
0
LINE
8
BLACK
6
CONTINUOUS
10
120.75
20
-112.1111719999999963
11
120.694429999999997
21
-112.0814699999999959
0
LINE
8
BLACK
6
CONTINUOUS
10
120.694429999999997
20
-112.0814699999999959
11
120.5428929999999923
21
-111.9571069999999935
0
LINE
8
BLACK
6
CONTINUOUS
10
120.5428929999999923
20
-111.9571069999999935
11
120.4185299999999899
21
-111.8055699999999888
0
LINE
8
BLACK
6
CONTINUOUS
10
120.4185299999999899
20
-111.8055699999999888
11
120.388826999999992
21
-111.75
0
LINE
8
BLACK
6
CONTINUOUS
10
120.388826999999992
20
-111.75
11
120.25
21
-111.75
0
LINE
8
BLACK
6
CONTINUOUS
10
120.25
20
-111.75
11
120.1847519999999889
21
-111.7457229999999981
0
LINE
8
BLACK
6
CONTINUOUS
10
120.1847519999999889
20
-111.7457229999999981
11
120.1847369999999984
21
-111.7457229999999981
0
LINE
8
BLACK
6
CONTINUOUS
10
120.1847369999999984
20
-111.7457229999999981
11
120.0853010000000012
21
-111.7190789999999936
0
LINE
8
BLACK
6
CONTINUOUS
10
120.0853010000000012
20
-111.7190789999999936
11
120.0586579999999941
21
-111.7119399999999985
0
LINE
8
BLACK
6
CONTINUOUS
10
120.0586579999999941
20
-111.7119399999999985
11
119.9456189999999935
21
-111.6466769999999968
0
LINE
8
BLACK
6
CONTINUOUS
10
119.9456189999999935
20
-111.6466769999999968
11
119.9456109999999995
21
-111.6466689999999886
0
LINE
8
BLACK
6
CONTINUOUS
10
119.9456109999999995
20
-111.6466689999999886
11
119.8964469999999949
21
-111.6035539999999884
0
LINE
8
BLACK
6
CONTINUOUS
10
119.8964469999999949
20
-111.6035539999999884
11
117.2664469999999994
21
-108.9735529999999954
0
LINE
8
BLACK
6
CONTINUOUS
10
117.2664469999999994
20
-108.9735529999999954
11
117.2233379999999983
21
-108.9243960000000015
0
LINE
8
BLACK
6
CONTINUOUS
10
117.2233379999999983
20
-108.9243960000000015
11
117.2233229999999935
21
-108.9243809999999968
0
LINE
8
BLACK
6
CONTINUOUS
10
117.2233229999999935
20
-108.9243809999999968
11
117.1580599999999919
21
-108.8113419999999962
0
LINE
8
BLACK
6
CONTINUOUS
10
117.1580599999999919
20
-108.8113419999999962
11
117.1484880000000004
21
-108.7756189999999918
0
LINE
8
BLACK
6
CONTINUOUS
10
117.1484880000000004
20
-108.7756189999999918
11
117.1242769999999922
21
-108.685262999999992
0
LINE
8
BLACK
6
CONTINUOUS
10
117.1242769999999922
20
-108.685262999999992
11
117.1242769999999922
21
-108.6852469999999897
0
LINE
8
BLACK
6
CONTINUOUS
10
117.1242769999999922
20
-108.6852469999999897
11
117.1199999999999903
21
-108.6199999999999903
0
LINE
8
BLACK
6
CONTINUOUS
10
117.1199999999999903
20
-108.6199999999999903
11
117.1199999999999903
21
-107.6816309999999959
0
LINE
8
BLACK
6
CONTINUOUS
10
117.1199999999999903
20
-107.6816309999999959
11
117.0512389999999954
21
-107.6316729999999922
0
LINE
8
BLACK
6
CONTINUOUS
10
117.0512389999999954
20
-107.6316729999999922
11
116.9323359999999923
21
-107.4996170000000006
0
LINE
8
BLACK
6
CONTINUOUS
10
116.9323359999999923
20
-107.4996170000000006
11
116.8434859999999986
21
-107.3457259999999991
0
LINE
8
BLACK
6
CONTINUOUS
10
116.8434859999999986
20
-107.3457259999999991
11
116.7885749999999945
21
-107.1767249999999905
0
LINE
8
BLACK
6
CONTINUOUS
10
116.7885749999999945
20
-107.1767249999999905
11
116.769999999999996
21
-107.
0
LINE
8
BLACK
6
CONTINUOUS
10
116.769999999999996
20
-107.
11
116.7885749999999945
21
-106.8232749999999953
0
LINE
8
BLACK
6
CONTINUOUS
10
116.7885749999999945
20
-106.8232749999999953
11
116.8434859999999986
21
-106.6542740000000009
0
LINE
8
BLACK
6
CONTINUOUS
10
116.8434859999999986
20
-106.6542740000000009
11
116.9323359999999923
21
-106.5003829999999994
0
LINE
8
BLACK
6
CONTINUOUS
10
116.9323359999999923
20
-106.5003829999999994
11
117.0512389999999954
21
-106.3683269999999936
0
LINE
8
BLACK
6
CONTINUOUS
10
117.0512389999999954
20
-106.3683269999999936
11
117.1199999999999903
21
-106.3183679999999924
0
LINE
8
BLACK
6
CONTINUOUS
10
117.1199999999999903
20
-106.3183679999999924
11
117.1199999999999903
21
-105.9599999999999937
0
LINE
8
BLACK
6
CONTINUOUS
10
117.1199999999999903
20
-105.9599999999999937
11
117.1242769999999922
21
-105.8947519999999969
0
LINE
8
BLACK
6
CONTINUOUS
10
117.1242769999999922
20
-105.8947519999999969
11
117.1242769999999922
21
-105.8947369999999921
0
LINE
8
BLACK
6
CONTINUOUS
10
117.1242769999999922
20
-105.8947369999999921
11
117.1580599999999919
21
-105.7686580000000021
0
LINE
8
BLACK
6
CONTINUOUS
10
117.1580599999999919
20
-105.7686580000000021
11
117.1688329999999922
21
-105.7499989999999883
0
LINE
8
BLACK
6
CONTINUOUS
10
117.1688329999999922
20
-105.7499989999999883
11
117.2233229999999935
21
-105.6556190000000015
0
LINE
8
BLACK
6
CONTINUOUS
10
117.2233229999999935
20
-105.6556190000000015
11
117.2233379999999983
21
-105.6556029999999993
0
LINE
8
BLACK
6
CONTINUOUS
10
117.2233379999999983
20
-105.6556029999999993
11
117.2664469999999994
21
-105.6064469999999886
0
LINE
8
BLACK
6
CONTINUOUS
10
117.2664469999999994
20
-105.6064469999999886
11
119.0799999999999983
21
-103.7928929999999923
0
LINE
8
BLACK
6
CONTINUOUS
10
119.0799999999999983
20
-103.7928929999999923
11
119.0799999999999983
21
-103.1816309999999959
0
LINE
8
BLACK
6
CONTINUOUS
10
119.0799999999999983
20
-103.1816309999999959
11
119.0112389999999891
21
-103.1316729999999922
0
LINE
8
BLACK
6
CONTINUOUS
10
119.0112389999999891
20
-103.1316729999999922
11
118.8923360000000002
21
-102.9996170000000006
0
LINE
8
BLACK
6
CONTINUOUS
10
118.8923360000000002
20
-102.9996170000000006
11
118.8034859999999924
21
-102.8457259999999991
0
LINE
8
BLACK
6
CONTINUOUS
10
118.8034859999999924
20
-102.8457259999999991
11
118.7485749999999882
21
-102.6767249999999905
0
LINE
8
BLACK
6
CONTINUOUS
10
118.7485749999999882
20
-102.6767249999999905
11
118.7299999999999898
21
-102.5
0
LINE
8
BLACK
6
CONTINUOUS
10
118.7299999999999898
20
-102.5
11
118.7485749999999882
21
-102.3232749999999953
0
LINE
8
BLACK
6
CONTINUOUS
10
118.7485749999999882
20
-102.3232749999999953
11
118.8034859999999924
21
-102.1542740000000009
0
LINE
8
BLACK
6
CONTINUOUS
10
118.8034859999999924
20
-102.1542740000000009
11
118.8923360000000002
21
-102.0003829999999994
0
LINE
8
BLACK
6
CONTINUOUS
10
118.8923360000000002
20
-102.0003829999999994
11
119.0112389999999891
21
-101.8683269999999936
0
LINE
8
BLACK
6
CONTINUOUS
10
119.0112389999999891
20
-101.8683269999999936
11
119.0974109999999939
21
-101.8057179999999988
0
LINE
8
BLACK
6
CONTINUOUS
10
119.0974109999999939
20
-101.8057179999999988
11
119.1180599999999998
21
-101.7286579999999958
0
LINE
8
BLACK
6
CONTINUOUS
10
119.1180599999999998
20
-101.7286579999999958
11
119.1833230000000015
21
-101.6156189999999953
0
LINE
8
BLACK
6
CONTINUOUS
10
119.1833230000000015
20
-101.6156189999999953
11
119.183337999999992
21
-101.615602999999993
0
LINE
8
BLACK
6
CONTINUOUS
10
119.183337999999992
20
-101.615602999999993
11
119.2264469999999932
21
-101.5664469999999966
0
LINE
8
BLACK
6
CONTINUOUS
10
119.2264469999999932
20
-101.5664469999999966
11
121.0428929999999923
21
-99.7499990000000025
0
LINE
8
BLACK
6
CONTINUOUS
10
121.0428929999999923
20
-99.7499990000000025
11
119.8928939999999983
21
-98.5999999999999943
0
LINE
8
BLACK
6
CONTINUOUS
10
119.8928939999999983
20
-98.5999999999999943
11
117.6650549999999953
21
-98.5999999999999943
0
LINE
8
BLACK
6
CONTINUOUS
10
117.6650549999999953
20
-98.5999999999999943
11
117.6559699999999964
21
-98.645670999999993
0
LINE
8
BLACK
6
CONTINUOUS
10
117.6559699999999964
20
-98.645670999999993
11
117.6017769999999985
21
-98.7267769999999985
0
LINE
8
BLACK
6
CONTINUOUS
10
117.6017769999999985
20
-98.7267769999999985
11
117.520670999999993
21
-98.7809699999999964
0
LINE
8
BLACK
6
CONTINUOUS
10
117.520670999999993
20
-98.7809699999999964
11
117.4249999999999972
21
-98.7999989999999997
0
LINE
8
BLACK
6
CONTINUOUS
10
117.4249999999999972
20
-98.7999989999999997
11
114.5749989999999912
21
-98.7999999999999972
0
LINE
8
BLACK
6
CONTINUOUS
10
114.5749989999999912
20
-98.7999999999999972
11
114.4793289999999928
21
-98.7809699999999964
0
LINE
8
BLACK
6
CONTINUOUS
10
114.4793289999999928
20
-98.7809699999999964
11
114.3982230000000015
21
-98.7267769999999985
0
LINE
8
BLACK
6
CONTINUOUS
10
114.3982230000000015
20
-98.7267769999999985
11
114.3440299999999894
21
-98.645670999999993
0
LINE
8
BLACK
6
CONTINUOUS
10
114.3440299999999894
20
-98.645670999999993
11
114.3250010000000003
21
-98.5499999999999972
0
LINE
8
BLACK
6
CONTINUOUS
10
114.3250010000000003
20
-98.5499999999999972
11
114.3249999999999886
21
-97.649998999999994
0
LINE
8
BLACK
6
CONTINUOUS
10
114.3249999999999886
20
-97.649998999999994
11
114.3440299999999894
21
-97.5543289999999956
0
LINE
8
BLACK
6
CONTINUOUS
10
114.3440299999999894
20
-97.5543289999999956
11
114.3982230000000015
21
-97.4732229999999902
0
LINE
8
BLACK
6
CONTINUOUS
10
114.3982230000000015
20
-97.4732229999999902
11
114.4793289999999928
21
-97.4190299999999922
0
LINE
8
BLACK
6
CONTINUOUS
10
114.4793289999999928
20
-97.4190299999999922
11
114.5749999999999886
21
-97.4000009999999889
0
LINE
8
BLACK
6
CONTINUOUS
10
114.5749999999999886
20
-97.4000009999999889
11
117.4250009999999946
21
-97.3999999999999915
0
LINE
8
BLACK
6
CONTINUOUS
10
117.4250009999999946
20
-97.3999999999999915
11
117.520670999999993
21
-97.4190299999999922
0
LINE
8
BLACK
6
CONTINUOUS
10
129.5
20
-101.
11
129.5
21
-103.2928929999999923
0
LINE
8
BLACK
6
CONTINUOUS
10
129.5
20
-103.2928929999999923
11
130.8535530000000051
21
-104.6464459999999974
0
LINE
8
BLACK
6
CONTINUOUS
10
130.8535530000000051
20
-104.6464459999999974
11
130.8966680000000053
21
-104.6956100000000021
0
LINE
8
BLACK
6
CONTINUOUS
10
130.8966680000000053
20
-104.6956100000000021
11
130.8966769999999826
21
-104.6956189999999935
0
LINE
8
BLACK
6
CONTINUOUS
10
130.8966769999999826
20
-104.6956189999999935
11
130.9280729999999835
21
-104.7499989999999883
0
LINE
8
BLACK
6
CONTINUOUS
10
130.9280729999999835
20
-104.7499989999999883
11
130.9619399999999985
21
-104.8086579999999941
0
LINE
8
BLACK
6
CONTINUOUS
10
130.9619399999999985
20
-104.8086579999999941
11
130.9957229999999981
21
-104.9347369999999984
0
LINE
8
BLACK
6
CONTINUOUS
10
130.9957229999999981
20
-104.9347369999999984
11
130.9957229999999981
21
-104.9347519999999889
0
LINE
8
BLACK
6
CONTINUOUS
10
130.9957229999999981
20
-104.9347519999999889
11
131.
21
-105.
0
LINE
8
BLACK
6
CONTINUOUS
10
131.
20
-105.
11
131.
21
-115.75
0
LINE
8
BLACK
6
CONTINUOUS
10
131.
20
-115.75
11
132.888826999999992
21
-115.75
0
LINE
8
BLACK
6
CONTINUOUS
10
132.888826999999992
20
-115.75
11
132.9185300000000041
21
-115.6944289999999995
0
LINE
8
BLACK
6
CONTINUOUS
10
132.9185300000000041
20
-115.6944289999999995
11
133.0428929999999923
21
-115.5428919999999948
0
LINE
8
BLACK
6
CONTINUOUS
10
133.0428929999999923
20
-115.5428919999999948
11
133.1944299999999828
21
-115.4185289999999924
0
LINE
8
BLACK
6
CONTINUOUS
10
133.1944299999999828
20
-115.4185289999999924
11
133.3673169999999857
21
-115.3261189999999914
0
LINE
8
BLACK
6
CONTINUOUS
10
133.3673169999999857
20
-115.3261189999999914
11
133.5549100000000067
21
-115.269213999999991
0
LINE
8
BLACK
6
CONTINUOUS
10
133.5549100000000067
20
-115.269213999999991
11
133.75
21
-115.2499989999999883
0
LINE
8
BLACK
6
CONTINUOUS
10
133.75
20
-115.2499989999999883
11
133.9450899999999933
21
-115.269213999999991
0
LINE
8
BLACK
6
CONTINUOUS
10
133.9450899999999933
20
-115.269213999999991
11
134.1326829999999859
21
-115.3261189999999914
0
LINE
8
BLACK
6
CONTINUOUS
10
134.1326829999999859
20
-115.3261189999999914
11
134.3055699999999888
21
-115.4185289999999924
0
LINE
8
BLACK
6
CONTINUOUS
10
134.3055699999999888
20
-115.4185289999999924
11
134.4571070000000077
21
-115.5428919999999948
0
LINE
8
BLACK
6
CONTINUOUS
10
134.4571070000000077
20
-115.5428919999999948
11
134.5814699999999959
21
-115.6944289999999995
0
LINE
8
BLACK
6
CONTINUOUS
10
134.5814699999999959
20
-115.6944289999999995
11
134.6738799999999969
21
-115.8673159999999882
0
LINE
8
BLACK
6
CONTINUOUS
10
134.6738799999999969
20
-115.8673159999999882
11
134.7307849999999974
21
-116.054908999999995
0
LINE
8
BLACK
6
CONTINUOUS
10
134.7307849999999974
20
-116.054908999999995
11
134.75
21
-116.2499989999999883
0
LINE
8
BLACK
6
CONTINUOUS
10
134.75
20
-116.2499989999999883
11
134.7307849999999974
21
-116.4450889999999958
0
LINE
8
BLACK
6
CONTINUOUS
10
134.7307849999999974
20
-116.4450889999999958
11
134.6738799999999969
21
-116.6326819999999884
0
LINE
8
BLACK
6
CONTINUOUS
10
134.6738799999999969
20
-116.6326819999999884
11
134.5814699999999959
21
-116.8055689999999913
0
LINE
8
BLACK
6
CONTINUOUS
10
134.5814699999999959
20
-116.8055689999999913
11
134.4571070000000077
21
-116.957105999999996
0
LINE
8
BLACK
6
CONTINUOUS
10
134.4571070000000077
20
-116.957105999999996
11
134.3055699999999888
21
-117.0814689999999985
0
LINE
8
BLACK
6
CONTINUOUS
10
134.3055699999999888
20
-117.0814689999999985
11
134.1326829999999859
21
-117.1738789999999995
0
LINE
8
BLACK
6
CONTINUOUS
10
134.1326829999999859
20
-117.1738789999999995
11
133.9450899999999933
21
-117.2307839999999999
0
LINE
8
BLACK
6
CONTINUOUS
10
133.9450899999999933
20
-117.2307839999999999
11
133.75
21
-117.2499989999999883
0
LINE
8
BLACK
6
CONTINUOUS
10
133.75
20
-117.2499989999999883
11
133.5549100000000067
21
-117.2307839999999999
0
LINE
8
BLACK
6
CONTINUOUS
10
133.5549100000000067
20
-117.2307839999999999
11
133.3673169999999857
21
-117.1738789999999995
0
LINE
8
BLACK
6
CONTINUOUS
10
133.3673169999999857
20
-117.1738789999999995
11
133.1944299999999828
21
-117.0814689999999985
0
LINE
8
BLACK
6
CONTINUOUS
10
133.1944299999999828
20
-117.0814689999999985
11
133.0428929999999923
21
-116.957105999999996
0
LINE
8
BLACK
6
CONTINUOUS
10
133.0428929999999923
20
-116.957105999999996
11
132.9185300000000041
21
-116.8055689999999913
0
LINE
8
BLACK
6
CONTINUOUS
10
132.9185300000000041
20
-116.8055689999999913
11
132.8888279999999895
21
-116.75
0
LINE
8
BLACK
6
CONTINUOUS
10
132.8888279999999895
20
-116.75
11
130.5
21
-116.75
0
LINE
8
BLACK
6
CONTINUOUS
10
130.5
20
-116.75
11
128.1111719999999821
21
-116.75
0
LINE
8
BLACK
6
CONTINUOUS
10
128.1111719999999821
20
-116.75
11
128.0814689999999985
21
-116.8055699999999888
0
LINE
8
BLACK
6
CONTINUOUS
10
128.0814689999999985
20
-116.8055699999999888
11
127.957105999999996
21
-116.9571069999999935
0
LINE
8
BLACK
6
CONTINUOUS
10
127.957105999999996
20
-116.9571069999999935
11
127.8055689999999913
21
-117.0814699999999959
0
LINE
8
BLACK
6
CONTINUOUS
10
127.8055689999999913
20
-117.0814699999999959
11
127.6326819999999884
21
-117.1738799999999969
0
LINE
8
BLACK
6
CONTINUOUS
10
127.6326819999999884
20
-117.1738799999999969
11
127.4450889999999958
21
-117.2307849999999974
0
LINE
8
BLACK
6
CONTINUOUS
10
127.4450889999999958
20
-117.2307849999999974
11
127.2499989999999883
21
-117.25
0
LINE
8
BLACK
6
CONTINUOUS
10
127.2499989999999883
20
-117.25
11
127.054908999999995
21
-117.2307849999999974
0
LINE
8
BLACK
6
CONTINUOUS
10
127.054908999999995
20
-117.2307849999999974
11
126.8673159999999882
21
-117.1738799999999969
0
LINE
8
BLACK
6
CONTINUOUS
10
126.8673159999999882
20
-117.1738799999999969
11
126.6944289999999995
21
-117.0814699999999959
0
LINE
8
BLACK
6
CONTINUOUS
10
126.6944289999999995
20
-117.0814699999999959
11
126.5428919999999948
21
-116.9571069999999935
0
LINE
8
BLACK
6
CONTINUOUS
10
126.5428919999999948
20
-116.9571069999999935
11
126.4185289999999924
21
-116.8055699999999888
0
LINE
8
BLACK
6
CONTINUOUS
10
126.4185289999999924
20
-116.8055699999999888
11
126.3261189999999914
21
-116.6326830000000001
0
LINE
8
BLACK
6
CONTINUOUS
10
126.3261189999999914
20
-116.6326830000000001
11
126.269213999999991
21
-116.4450899999999933
0
LINE
8
BLACK
6
CONTINUOUS
10
126.269213999999991
20
-116.4450899999999933
11
126.2499989999999883
21
-116.25
0
LINE
8
BLACK
6
CONTINUOUS
10
126.2499989999999883
20
-116.25
11
126.269213999999991
21
-116.0549099999999925
0
LINE
8
BLACK
6
CONTINUOUS
10
126.269213999999991
20
-116.0549099999999925
11
126.3261189999999914
21
-115.8673169999999999
0
LINE
8
BLACK
6
CONTINUOUS
10
126.3261189999999914
20
-115.8673169999999999
11
126.4185289999999924
21
-115.694429999999997
0
LINE
8
BLACK
6
CONTINUOUS
10
126.4185289999999924
20
-115.694429999999997
11
126.5428919999999948
21
-115.5428929999999923
0
LINE
8
BLACK
6
CONTINUOUS
10
126.5428919999999948
20
-115.5428929999999923
11
126.6944289999999995
21
-115.4185299999999899
0
LINE
8
BLACK
6
CONTINUOUS
10
126.6944289999999995
20
-115.4185299999999899
11
126.8673159999999882
21
-115.3261199999999889
0
LINE
8
BLACK
6
CONTINUOUS
10
126.8673159999999882
20
-115.3261199999999889
11
127.054908999999995
21
-115.2692149999999884
0
LINE
8
BLACK
6
CONTINUOUS
10
127.054908999999995
20
-115.2692149999999884
11
127.2499989999999883
21
-115.25
0
LINE
8
BLACK
6
CONTINUOUS
10
127.2499989999999883
20
-115.25
11
127.4450889999999958
21
-115.2692149999999884
0
LINE
8
BLACK
6
CONTINUOUS
10
127.4450889999999958
20
-115.2692149999999884
11
127.6326819999999884
21
-115.3261199999999889
0
LINE
8
BLACK
6
CONTINUOUS
10
127.6326819999999884
20
-115.3261199999999889
11
127.8055689999999913
21
-115.4185299999999899
0
LINE
8
BLACK
6
CONTINUOUS
10
127.8055689999999913
20
-115.4185299999999899
11
127.957105999999996
21
-115.5428929999999923
0
LINE
8
BLACK
6
CONTINUOUS
10
127.957105999999996
20
-115.5428929999999923
11
128.0814689999999985
21
-115.694429999999997
0
LINE
8
BLACK
6
CONTINUOUS
10
128.0814689999999985
20
-115.694429999999997
11
128.1111719999999821
21
-115.75
0
LINE
8
BLACK
6
CONTINUOUS
10
128.1111719999999821
20
-115.75
11
130.
21
-115.75
0
LINE
8
BLACK
6
CONTINUOUS
10
130.
20
-115.75
11
130.
21
-105.207105999999996
0
LINE
8
BLACK
6
CONTINUOUS
10
130.
20
-105.207105999999996
11
128.6464469999999949
21
-103.8535529999999909
0
LINE
8
BLACK
6
CONTINUOUS
10
128.6464469999999949
20
-103.8535529999999909
11
128.6033380000000079
21
-103.804395999999997
0
LINE
8
BLACK
6
CONTINUOUS
10
128.6033380000000079
20
-103.804395999999997
11
128.603322999999989
21
-103.8043809999999922
0
LINE
8
BLACK
6
CONTINUOUS
10
128.603322999999989
20
-103.8043809999999922
11
128.5380600000000015
21
-103.6913419999999917
0
LINE
8
BLACK
6
CONTINUOUS
10
128.5380600000000015
20
-103.6913419999999917
11
128.5042770000000019
21
-103.5652630000000016
0
LINE
8
BLACK
6
CONTINUOUS
10
128.5042770000000019
20
-103.5652630000000016
11
128.5042770000000019
21
-103.5652469999999994
0
LINE
8
BLACK
6
CONTINUOUS
10
128.5042770000000019
20
-103.5652469999999994
11
128.5
21
-103.5
0
LINE
8
BLACK
6
CONTINUOUS
10
128.5
20
-103.5
11
128.5
21
-101.8999999999999915
0
LINE
8
BLACK
6
CONTINUOUS
10
128.5
20
-101.8999999999999915
11
128.5
21
-100.0999999999999943
0
LINE
8
BLACK
6
CONTINUOUS
10
128.5
20
-100.0999999999999943
11
129.5
21
-100.0999999999999943
0
LINE
8
BLACK
6
CONTINUOUS
10
129.5
20
-100.0999999999999943
11
129.5
21
-101.
0
LINE
8
BLACK
6
CONTINUOUS
10
146.2226639999999804
20
-109.1916019999999889
11
146.3849999999999909
21
-109.2638779999999912
0
LINE
8
BLACK
6
CONTINUOUS
10
146.3849999999999909
20
-109.2638779999999912
11
146.5287610000000029
21
-109.3683269999999936
0
LINE
8
BLACK
6
CONTINUOUS
10
146.5287610000000029
20
-109.3683269999999936
11
146.6476639999999918
21
-109.5003829999999994
0
LINE
8
BLACK
6
CONTINUOUS
10
146.6476639999999918
20
-109.5003829999999994
11
146.7365139999999997
21
-109.6542740000000009
0
LINE
8
BLACK
6
CONTINUOUS
10
146.7365139999999997
20
-109.6542740000000009
11
146.7914250000000038
21
-109.8232749999999953
0
LINE
8
BLACK
6
CONTINUOUS
10
146.7914250000000038
20
-109.8232749999999953
11
146.8100000000000023
21
-110.
0
LINE
8
BLACK
6
CONTINUOUS
10
146.8100000000000023
20
-110.
11
146.7914250000000038
21
-110.1767249999999905
0
LINE
8
BLACK
6
CONTINUOUS
10
146.7914250000000038
20
-110.1767249999999905
11
146.7365139999999997
21
-110.3457259999999991
0
LINE
8
BLACK
6
CONTINUOUS
10
146.7365139999999997
20
-110.3457259999999991
11
146.6476639999999918
21
-110.4996170000000006
0
LINE
8
BLACK
6
CONTINUOUS
10
146.6476639999999918
20
-110.4996170000000006
11
146.5287610000000029
21
-110.6316729999999922
0
LINE
8
BLACK
6
CONTINUOUS
10
146.5287610000000029
20
-110.6316729999999922
11
146.4599999999999795
21
-110.6816309999999959
0
LINE
8
BLACK
6
CONTINUOUS
10
146.4599999999999795
20
-110.6816309999999959
11
146.4599999999999795
21
-112.3900000000000006
0
LINE
8
BLACK
6
CONTINUOUS
10
146.4599999999999795
20
-112.3900000000000006
11
146.4557230000000061
21
-112.455247
0
LINE
8
BLACK
6
CONTINUOUS
10
146.4557230000000061
20
-112.455247
11
146.4557230000000061
21
-112.455262999999988
0
LINE
8
BLACK
6
CONTINUOUS
10
146.4557230000000061
20
-112.455262999999988
11
146.4425889999999981
21
-112.5042779999999993
0
LINE
8
BLACK
6
CONTINUOUS
10
146.4425889999999981
20
-112.5042779999999993
11
146.4219400000000064
21
-112.5813419999999923
0
LINE
8
BLACK
6
CONTINUOUS
10
146.4219400000000064
20
-112.5813419999999923
11
146.3566769999999906
21
-112.6943809999999928
0
LINE
8
BLACK
6
CONTINUOUS
10
146.3566769999999906
20
-112.6943809999999928
11
146.3566679999999849
21
-112.694389000000001
0
LINE
8
BLACK
6
CONTINUOUS
10
146.3566679999999849
20
-112.694389000000001
11
146.3135529999999846
21
-112.7435529999999915
0
LINE
8
BLACK
6
CONTINUOUS
10
146.3135529999999846
20
-112.7435529999999915
11
144.1500000000000057
21
-114.9071059999999989
0
LINE
8
BLACK
6
CONTINUOUS
10
144.1500000000000057
20
-114.9071059999999989
11
144.1500000000000057
21
-115.5749999999999886
0
LINE
8
BLACK
6
CONTINUOUS
10
144.1500000000000057
20
-115.5749999999999886
11
144.1344100000000026
21
-115.6820009999999996
0
LINE
8
BLACK
6
CONTINUOUS
10
144.1344100000000026
20
-115.6820009999999996
11
144.08019299999998
21
-115.7929039999999929
0
LINE
8
BLACK
6
CONTINUOUS
10
144.08019299999998
20
-115.7929039999999929
11
143.9929039999999816
21
-115.8801929999999913
0
LINE
8
BLACK
6
CONTINUOUS
10
143.9929039999999816
20
-115.8801929999999913
11
143.8820010000000025
21
-115.9344099999999997
0
LINE
8
BLACK
6
CONTINUOUS
10
143.8820010000000025
20
-115.9344099999999997
11
143.7750000000000057
21
-115.9499999999999886
0
LINE
8
BLACK
6
CONTINUOUS
10
143.7750000000000057
20
-115.9499999999999886
11
142.5250000000000057
21
-115.9499999999999886
0
LINE
8
BLACK
6
CONTINUOUS
10
142.5250000000000057
20
-115.9499999999999886
11
142.4179989999999805
21
-115.9344099999999997
0
LINE
8
BLACK
6
CONTINUOUS
10
142.4179989999999805
20
-115.9344099999999997
11
142.3070960000000014
21
-115.8801929999999913
0
LINE
8
BLACK
6
CONTINUOUS
10
142.3070960000000014
20
-115.8801929999999913
11
142.219807000000003
21
-115.7929039999999929
0
LINE
8
BLACK
6
CONTINUOUS
10
142.219807000000003
20
-115.7929039999999929
11
142.1655899999999804
21
-115.6820009999999996
0
LINE
8
BLACK
6
CONTINUOUS
10
142.1655899999999804
20
-115.6820009999999996
11
142.1500000000000057
21
-115.5749999999999886
0
LINE
8
BLACK
6
CONTINUOUS
10
142.1500000000000057
20
-115.5749999999999886
11
142.1500000000000057
21
-114.8249999999999886
0
LINE
8
BLACK
6
CONTINUOUS
10
142.1500000000000057
20
-114.8249999999999886
11
142.1655899999999804
21
-114.7179989999999918
0
LINE
8
BLACK
6
CONTINUOUS
10
142.1655899999999804
20
-114.7179989999999918
11
142.219807000000003
21
-114.6070959999999985
0
LINE
8
BLACK
6
CONTINUOUS
10
142.219807000000003
20
-114.6070959999999985
11
142.3070960000000014
21
-114.5198070000000001
0
LINE
8
BLACK
6
CONTINUOUS
10
142.3070960000000014
20
-114.5198070000000001
11
142.4179989999999805
21
-114.4655899999999917
0
LINE
8
BLACK
6
CONTINUOUS
10
142.4179989999999805
20
-114.4655899999999917
11
142.5250000000000057
21
-114.4499999999999886
0
LINE
8
BLACK
6
CONTINUOUS
10
142.5250000000000057
20
-114.4499999999999886
11
143.1928939999999955
21
-114.4499999999999886
0
LINE
8
BLACK
6
CONTINUOUS
10
143.1928939999999955
20
-114.4499999999999886
11
145.4599999999999795
21
-112.1828939999999903
0
LINE
8
BLACK
6
CONTINUOUS
10
145.4599999999999795
20
-112.1828939999999903
11
145.4599999999999795
21
-110.6816309999999959
0
LINE
8
BLACK
6
CONTINUOUS
10
145.4599999999999795
20
-110.6816309999999959
11
145.3912389999999846
21
-110.6316729999999922
0
LINE
8
BLACK
6
CONTINUOUS
10
145.3912389999999846
20
-110.6316729999999922
11
145.2723359999999957
21
-110.4996170000000006
0
LINE
8
BLACK
6
CONTINUOUS
10
145.2723359999999957
20
-110.4996170000000006
11
145.1834859999999878
21
-110.3457259999999991
0
LINE
8
BLACK
6
CONTINUOUS
10
145.1834859999999878
20
-110.3457259999999991
11
145.1285749999999837
21
-110.1767249999999905
0
LINE
8
BLACK
6
CONTINUOUS
10
145.1285749999999837
20
-110.1767249999999905
11
145.1099999999999852
21
-110.
0
LINE
8
BLACK
6
CONTINUOUS
10
145.1099999999999852
20
-110.
11
145.1285749999999837
21
-109.8232749999999953
0
LINE
8
BLACK
6
CONTINUOUS
10
145.1285749999999837
20
-109.8232749999999953
11
145.1834859999999878
21
-109.6542740000000009
0
LINE
8
BLACK
6
CONTINUOUS
10
145.1834859999999878
20
-109.6542740000000009
11
145.2723359999999957
21
-109.5003829999999994
0
LINE
8
BLACK
6
CONTINUOUS
10
145.2723359999999957
20
-109.5003829999999994
11
145.3912389999999846
21
-109.3683269999999936
0
LINE
8
BLACK
6
CONTINUOUS
10
145.3912389999999846
20
-109.3683269999999936
11
145.5349999999999966
21
-109.2638779999999912
0
LINE
8
BLACK
6
CONTINUOUS
10
145.5349999999999966
20
-109.2638779999999912
11
145.6973360000000071
21
-109.1916019999999889
0
LINE
8
BLACK
6
CONTINUOUS
10
145.6973360000000071
20
-109.1916019999999889
11
145.8711509999999976
21
-109.1546559999999886
0
LINE
8
BLACK
6
CONTINUOUS
10
145.8711509999999976
20
-109.1546559999999886
11
146.0488489999999899
21
-109.1546559999999886
0
LINE
8
BLACK
6
CONTINUOUS
10
146.0488489999999899
20
-109.1546559999999886
11
146.2226639999999804
21
-109.1916019999999889
0
LINE
8
BLACK
6
CONTINUOUS
10
133.5
20
-101.
11
133.5
21
-101.7928939999999898
0
LINE
8
BLACK
6
CONTINUOUS
10
133.5
20
-101.7928939999999898
11
135.2071059999999818
21
-103.5
0
LINE
8
BLACK
6
CONTINUOUS
10
135.2071059999999818
20
-103.5
11
141.5
21
-103.5
0
LINE
8
BLACK
6
CONTINUOUS
10
141.5
20
-103.5
11
141.5652479999999969
21
-103.5042770000000019
0
LINE
8
BLACK
6
CONTINUOUS
10
141.5652479999999969
20
-103.5042770000000019
11
141.5652629999999874
21
-103.5042770000000019
0
LINE
8
BLACK
6
CONTINUOUS
10
141.5652629999999874
20
-103.5042770000000019
11
141.6913419999999917
21
-103.5380600000000015
0
LINE
8
BLACK
6
CONTINUOUS
10
141.6913419999999917
20
-103.5380600000000015
11
141.8043810000000065
21
-103.603322999999989
0
LINE
8
BLACK
6
CONTINUOUS
10
141.8043810000000065
20
-103.603322999999989
11
141.804395999999997
21
-103.6033379999999937
0
LINE
8
BLACK
6
CONTINUOUS
10
141.804395999999997
20
-103.6033379999999937
11
141.8535530000000051
21
-103.6464469999999949
0
LINE
8
BLACK
6
CONTINUOUS
10
141.8535530000000051
20
-103.6464469999999949
11
142.8535540000000026
21
-104.6464469999999949
0
LINE
8
BLACK
6
CONTINUOUS
10
142.8535540000000026
20
-104.6464469999999949
11
142.8966690000000028
21
-104.6956109999999995
0
LINE
8
BLACK
6
CONTINUOUS
10
142.8966690000000028
20
-104.6956109999999995
11
142.8966769999999826
21
-104.6956189999999935
0
LINE
8
BLACK
6
CONTINUOUS
10
142.8966769999999826
20
-104.6956189999999935
11
142.9619399999999985
21
-104.8086579999999941
0
LINE
8
BLACK
6
CONTINUOUS
10
142.9619399999999985
20
-104.8086579999999941
11
142.9619399999999985
21
-104.8086589999999916
0
LINE
8
BLACK
6
CONTINUOUS
10
142.9619399999999985
20
-104.8086589999999916
11
142.9957229999999981
21
-104.9347369999999984
0
LINE
8
BLACK
6
CONTINUOUS
10
142.9957229999999981
20
-104.9347369999999984
11
142.9957229999999981
21
-104.9347519999999889
0
LINE
8
BLACK
6
CONTINUOUS
10
142.9957229999999981
20
-104.9347519999999889
11
143.
21
-105.
0
LINE
8
BLACK
6
CONTINUOUS
10
143.
20
-105.
11
143.
21
-108.8728929999999906
0
LINE
8
BLACK
6
CONTINUOUS
10
143.
20
-108.8728929999999906
11
143.2904199999999832
21
-109.1633129999999881
0
LINE
8
BLACK
6
CONTINUOUS
10
143.2904199999999832
20
-109.1633129999999881
11
143.331152000000003
21
-109.1546559999999886
0
LINE
8
BLACK
6
CONTINUOUS
10
143.331152000000003
20
-109.1546559999999886
11
143.5088499999999954
21
-109.1546559999999886
0
LINE
8
BLACK
6
CONTINUOUS
10
143.5088499999999954
20
-109.1546559999999886
11
143.6826649999999859
21
-109.1916019999999889
0
LINE
8
BLACK
6
CONTINUOUS
10
143.6826649999999859
20
-109.1916019999999889
11
143.8450009999999963
21
-109.2638779999999912
0
LINE
8
BLACK
6
CONTINUOUS
10
143.8450009999999963
20
-109.2638779999999912
11
143.9887619999999799
21
-109.3683269999999936
0
LINE
8
BLACK
6
CONTINUOUS
10
143.9887619999999799
20
-109.3683269999999936
11
144.1076649999999972
21
-109.5003829999999994
0
LINE
8
BLACK
6
CONTINUOUS
10
144.1076649999999972
20
-109.5003829999999994
11
144.1965150000000051
21
-109.6542740000000009
0
LINE
8
BLACK
6
CONTINUOUS
10
144.1965150000000051
20
-109.6542740000000009
11
144.2514259999999808
21
-109.8232749999999953
0
LINE
8
BLACK
6
CONTINUOUS
10
144.2514259999999808
20
-109.8232749999999953
11
144.2700009999999793
21
-110.
0
LINE
8
BLACK
6
CONTINUOUS
10
144.2700009999999793
20
-110.
11
144.2514259999999808
21
-110.1767249999999905
0
LINE
8
BLACK
6
CONTINUOUS
10
144.2514259999999808
20
-110.1767249999999905
11
144.1965150000000051
21
-110.3457259999999991
0
LINE
8
BLACK
6
CONTINUOUS
10
144.1965150000000051
20
-110.3457259999999991
11
144.1076649999999972
21
-110.4996170000000006
0
LINE
8
BLACK
6
CONTINUOUS
10
144.1076649999999972
20
-110.4996170000000006
11
143.9887619999999799
21
-110.6316729999999922
0
LINE
8
BLACK
6
CONTINUOUS
10
143.9887619999999799
20
-110.6316729999999922
11
143.8450009999999963
21
-110.7361219999999946
0
LINE
8
BLACK
6
CONTINUOUS
10
143.8450009999999963
20
-110.7361219999999946
11
143.6826649999999859
21
-110.8083979999999968
0
LINE
8
BLACK
6
CONTINUOUS
10
143.6826649999999859
20
-110.8083979999999968
11
143.5088499999999954
21
-110.8453439999999972
0
LINE
8
BLACK
6
CONTINUOUS
10
143.5088499999999954
20
-110.8453439999999972
11
143.331152000000003
21
-110.8453439999999972
0
LINE
8
BLACK
6
CONTINUOUS
10
143.331152000000003
20
-110.8453439999999972
11
143.1573369999999841
21
-110.8083979999999968
0
LINE
8
BLACK
6
CONTINUOUS
10
143.1573369999999841
20
-110.8083979999999968
11
142.995001000000002
21
-110.7361219999999946
0
LINE
8
BLACK
6
CONTINUOUS
10
142.995001000000002
20
-110.7361219999999946
11
142.85123999999999
21
-110.6316729999999922
0
LINE
8
BLACK
6
CONTINUOUS
10
142.85123999999999
20
-110.6316729999999922
11
142.7323370000000011
21
-110.4996170000000006
0
LINE
8
BLACK
6
CONTINUOUS
10
142.7323370000000011
20
-110.4996170000000006
11
142.6434869999999933
21
-110.3457259999999991
0
LINE
8
BLACK
6
CONTINUOUS
10
142.6434869999999933
20
-110.3457259999999991
11
142.5885759999999891
21
-110.1767249999999905
0
LINE
8
BLACK
6
CONTINUOUS
10
142.5885759999999891
20
-110.1767249999999905
11
142.5700009999999907
21
-110.
0
LINE
8
BLACK
6
CONTINUOUS
10
142.5700009999999907
20
-110.
11
142.5835909999999842
21
-109.8706959999999953
0
LINE
8
BLACK
6
CONTINUOUS
10
142.5835909999999842
20
-109.8706959999999953
11
142.1464469999999949
21
-109.4335519999999917
0
LINE
8
BLACK
6
CONTINUOUS
10
142.1464469999999949
20
-109.4335519999999917
11
142.1033379999999795
21
-109.3843949999999978
0
LINE
8
BLACK
6
CONTINUOUS
10
142.1033379999999795
20
-109.3843949999999978
11
142.103322999999989
21
-109.3843799999999931
0
LINE
8
BLACK
6
CONTINUOUS
10
142.103322999999989
20
-109.3843799999999931
11
142.0380600000000015
21
-109.2713409999999925
0
LINE
8
BLACK
6
CONTINUOUS
10
142.0380600000000015
20
-109.2713409999999925
11
142.0166940000000011
21
-109.1916019999999889
0
LINE
8
BLACK
6
CONTINUOUS
10
142.0166940000000011
20
-109.1916019999999889
11
142.0042770000000019
21
-109.1452619999999882
0
LINE
8
BLACK
6
CONTINUOUS
10
142.0042770000000019
20
-109.1452619999999882
11
142.0042770000000019
21
-109.1452460000000002
0
LINE
8
BLACK
6
CONTINUOUS
10
142.0042770000000019
20
-109.1452460000000002
11
142.
21
-109.0799990000000008
0
LINE
8
BLACK
6
CONTINUOUS
10
142.
20
-109.0799990000000008
11
142.
21
-105.207105999999996
0
LINE
8
BLACK
6
CONTINUOUS
10
142.
20
-105.207105999999996
11
141.2928939999999898
21
-104.5
0
LINE
8
BLACK
6
CONTINUOUS
10
141.2928939999999898
20
-104.5
11
135.
21
-104.5
0
LINE
8
BLACK
6
CONTINUOUS
10
135.
20
-104.5
11
134.9347520000000031
21
-104.4957229999999981
0
LINE
8
BLACK
6
CONTINUOUS
10
134.9347520000000031
20
-104.4957229999999981
11
134.9347369999999842
21
-104.4957229999999981
0
LINE
8
BLACK
6
CONTINUOUS
10
134.9347369999999842
20
-104.4957229999999981
11
134.8086579999999799
21
-104.4619399999999985
0
LINE
8
BLACK
6
CONTINUOUS
10
134.8086579999999799
20
-104.4619399999999985
11
134.6956189999999935
21
-104.3966769999999968
0
LINE
8
BLACK
6
CONTINUOUS
10
134.6956189999999935
20
-104.3966769999999968
11
134.6956099999999878
21
-104.3966679999999911
0
LINE
8
BLACK
6
CONTINUOUS
10
134.6956099999999878
20
-104.3966679999999911
11
134.6464469999999949
21
-104.3535529999999909
0
LINE
8
BLACK
6
CONTINUOUS
10
134.6464469999999949
20
-104.3535529999999909
11
132.6464469999999949
21
-102.3535529999999909
0
LINE
8
BLACK
6
CONTINUOUS
10
132.6464469999999949
20
-102.3535529999999909
11
132.6033380000000079
21
-102.304395999999997
0
LINE
8
BLACK
6
CONTINUOUS
10
132.6033380000000079
20
-102.304395999999997
11
132.603322999999989
21
-102.3043809999999922
0
LINE
8
BLACK
6
CONTINUOUS
10
132.603322999999989
20
-102.3043809999999922
11
132.5380600000000015
21
-102.1913419999999917
0
LINE
8
BLACK
6
CONTINUOUS
10
132.5380600000000015
20
-102.1913419999999917
11
132.5281279999999811
21
-102.1542740000000009
0
LINE
8
BLACK
6
CONTINUOUS
10
132.5281279999999811
20
-102.1542740000000009
11
132.5042770000000019
21
-102.0652630000000016
0
LINE
8
BLACK
6
CONTINUOUS
10
132.5042770000000019
20
-102.0652630000000016
11
132.5042770000000019
21
-102.0652469999999994
0
LINE
8
BLACK
6
CONTINUOUS
10
132.5042770000000019
20
-102.0652469999999994
11
132.5
21
-102.
0
LINE
8
BLACK
6
CONTINUOUS
10
132.5
20
-102.
11
132.5
21
-101.8999999999999915
0
LINE
8
BLACK
6
CONTINUOUS
10
132.5
20
-101.8999999999999915
11
132.5
21
-100.0999999999999943
0
LINE
8
BLACK
6
CONTINUOUS
10
132.5
20
-100.0999999999999943
11
133.5
21
-100.0999999999999943
0
LINE
8
BLACK
6
CONTINUOUS
10
133.5
20
-100.0999999999999943
11
133.5
21
-101.
0
LINE
8
BLACK
6
CONTINUOUS
10
110.8499999999999943
20
-103.8499999999999943
11
110.5
21
-103.8499999999999943
0
LINE
8
BLACK
6
CONTINUOUS
10
110.5
20
-103.8499999999999943
11
110.5
21
-106.1499999999999915
0
LINE
8
BLACK
6
CONTINUOUS
10
110.5
20
-106.1499999999999915
11
110.8499999999999943
21
-106.1499999999999915
0
LINE
8
BLACK
6
CONTINUOUS
10
110.8499999999999943
20
-106.1499999999999915
11
110.8499999999999943
21
-107.8499999999999943
0
LINE
8
BLACK
6
CONTINUOUS
10
110.8499999999999943
20
-107.8499999999999943
11
109.1499999999999915
21
-107.8499999999999943
0
LINE
8
BLACK
6
CONTINUOUS
10
109.1499999999999915
20
-107.8499999999999943
11
109.1499999999999915
21
-106.1499999999999915
0
LINE
8
BLACK
6
CONTINUOUS
10
109.1499999999999915
20
-106.1499999999999915
11
109.5
21
-106.1499999999999915
0
LINE
8
BLACK
6
CONTINUOUS
10
109.5
20
-106.1499999999999915
11
109.5
21
-103.8499999999999943
0
LINE
8
BLACK
6
CONTINUOUS
10
109.5
20
-103.8499999999999943
11
109.1499999999999915
21
-103.8499999999999943
0
LINE
8
BLACK
6
CONTINUOUS
10
109.1499999999999915
20
-103.8499999999999943
11
109.1499999999999915
21
-102.1499999999999915
0
LINE
8
BLACK
6
CONTINUOUS
10
109.1499999999999915
20
-102.1499999999999915
11
110.8499999999999943
21
-102.1499999999999915
0
LINE
8
BLACK
6
CONTINUOUS
10
110.8499999999999943
20
-102.1499999999999915
11
110.8499999999999943
21
-103.8499999999999943
0
LINE
8
BLACK
6
CONTINUOUS
10
127.5
20
-101.
11
127.5
21
-105.7858699999999885
0
LINE
8
BLACK
6
CONTINUOUS
10
127.5
20
-105.7858699999999885
11
127.5549099999999925
21
-105.769213999999991
0
LINE
8
BLACK
6
CONTINUOUS
10
127.5549099999999925
20
-105.769213999999991
11
127.75
21
-105.7499989999999883
0
LINE
8
BLACK
6
CONTINUOUS
10
127.75
20
-105.7499989999999883
11
127.9450899999999933
21
-105.769213999999991
0
LINE
8
BLACK
6
CONTINUOUS
10
127.9450899999999933
20
-105.769213999999991
11
128.1326829999999859
21
-105.8261189999999914
0
LINE
8
BLACK
6
CONTINUOUS
10
128.1326829999999859
20
-105.8261189999999914
11
128.3055699999999888
21
-105.9185289999999924
0
LINE
8
BLACK
6
CONTINUOUS
10
128.3055699999999888
20
-105.9185289999999924
11
128.4571070000000077
21
-106.0428919999999948
0
LINE
8
BLACK
6
CONTINUOUS
10
128.4571070000000077
20
-106.0428919999999948
11
128.5814699999999959
21
-106.1944289999999995
0
LINE
8
BLACK
6
CONTINUOUS
10
128.5814699999999959
20
-106.1944289999999995
11
128.6738799999999969
21
-106.3673159999999882
0
LINE
8
BLACK
6
CONTINUOUS
10
128.6738799999999969
20
-106.3673159999999882
11
128.7307849999999974
21
-106.554908999999995
0
LINE
8
BLACK
6
CONTINUOUS
10
128.7307849999999974
20
-106.554908999999995
11
128.75
21
-106.7499989999999883
0
LINE
8
BLACK
6
CONTINUOUS
10
128.75
20
-106.7499989999999883
11
128.7307849999999974
21
-106.9450889999999958
0
LINE
8
BLACK
6
CONTINUOUS
10
128.7307849999999974
20
-106.9450889999999958
11
128.6738799999999969
21
-107.1326819999999884
0
LINE
8
BLACK
6
CONTINUOUS
10
128.6738799999999969
20
-107.1326819999999884
11
128.5814699999999959
21
-107.3055689999999913
0
LINE
8
BLACK
6
CONTINUOUS
10
128.5814699999999959
20
-107.3055689999999913
11
128.4571070000000077
21
-107.457105999999996
0
LINE
8
BLACK
6
CONTINUOUS
10
128.4571070000000077
20
-107.457105999999996
11
128.3055699999999888
21
-107.5814689999999985
0
LINE
8
BLACK
6
CONTINUOUS
10
128.3055699999999888
20
-107.5814689999999985
11
128.1326829999999859
21
-107.6738789999999995
0
LINE
8
BLACK
6
CONTINUOUS
10
128.1326829999999859
20
-107.6738789999999995
11
127.9450899999999933
21
-107.7307839999999999
0
LINE
8
BLACK
6
CONTINUOUS
10
127.9450899999999933
20
-107.7307839999999999
11
127.75
21
-107.7499989999999883
0
LINE
8
BLACK
6
CONTINUOUS
10
127.75
20
-107.7499989999999883
11
127.5549099999999925
21
-107.7307839999999999
0
LINE
8
BLACK
6
CONTINUOUS
10
127.5549099999999925
20
-107.7307839999999999
11
127.3673169999999999
21
-107.6738789999999995
0
LINE
8
BLACK
6
CONTINUOUS
10
127.3673169999999999
20
-107.6738789999999995
11
127.194429999999997
21
-107.5814689999999985
0
LINE
8
BLACK
6
CONTINUOUS
10
127.194429999999997
20
-107.5814689999999985
11
127.0428929999999923
21
-107.457105999999996
0
LINE
8
BLACK
6
CONTINUOUS
10
127.0428929999999923
20
-107.457105999999996
11
126.9185299999999899
21
-107.3055689999999913
0
LINE
8
BLACK
6
CONTINUOUS
10
126.9185299999999899
20
-107.3055689999999913
11
126.8888279999999895
21
-107.25
0
LINE
8
BLACK
6
CONTINUOUS
10
126.8888279999999895
20
-107.25
11
122.1111719999999963
21
-107.25
0
LINE
8
BLACK
6
CONTINUOUS
10
122.1111719999999963
20
-107.25
11
122.0814689999999985
21
-107.3055699999999888
0
LINE
8
BLACK
6
CONTINUOUS
10
122.0814689999999985
20
-107.3055699999999888
11
121.957105999999996
21
-107.4571069999999935
0
LINE
8
BLACK
6
CONTINUOUS
10
121.957105999999996
20
-107.4571069999999935
11
121.8055689999999913
21
-107.5814699999999959
0
LINE
8
BLACK
6
CONTINUOUS
10
121.8055689999999913
20
-107.5814699999999959
11
121.6326819999999884
21
-107.6738799999999969
0
LINE
8
BLACK
6
CONTINUOUS
10
121.6326819999999884
20
-107.6738799999999969
11
121.4450889999999958
21
-107.7307849999999974
0
LINE
8
BLACK
6
CONTINUOUS
10
121.4450889999999958
20
-107.7307849999999974
11
121.2499989999999883
21
-107.75
0
LINE
8
BLACK
6
CONTINUOUS
10
121.2499989999999883
20
-107.75
11
121.054908999999995
21
-107.7307849999999974
0
LINE
8
BLACK
6
CONTINUOUS
10
121.054908999999995
20
-107.7307849999999974
11
120.8673159999999882
21
-107.6738799999999969
0
LINE
8
BLACK
6
CONTINUOUS
10
120.8673159999999882
20
-107.6738799999999969
11
120.6944289999999995
21
-107.5814699999999959
0
LINE
8
BLACK
6
CONTINUOUS
10
120.6944289999999995
20
-107.5814699999999959
11
120.5428919999999948
21
-107.4571069999999935
0
LINE
8
BLACK
6
CONTINUOUS
10
120.5428919999999948
20
-107.4571069999999935
11
120.4185289999999924
21
-107.3055699999999888
0
LINE
8
BLACK
6
CONTINUOUS
10
120.4185289999999924
20
-107.3055699999999888
11
120.3261189999999914
21
-107.1326830000000001
0
LINE
8
BLACK
6
CONTINUOUS
10
120.3261189999999914
20
-107.1326830000000001
11
120.269213999999991
21
-106.9450899999999933
0
LINE
8
BLACK
6
CONTINUOUS
10
120.269213999999991
20
-106.9450899999999933
11
120.2499989999999883
21
-106.75
0
LINE
8
BLACK
6
CONTINUOUS
10
120.2499989999999883
20
-106.75
11
120.269213999999991
21
-106.5549099999999925
0
LINE
8
BLACK
6
CONTINUOUS
10
120.269213999999991
20
-106.5549099999999925
11
120.3261189999999914
21
-106.3673169999999999
0
LINE
8
BLACK
6
CONTINUOUS
10
120.3261189999999914
20
-106.3673169999999999
11
120.4185289999999924
21
-106.194429999999997
0
LINE
8
BLACK
6
CONTINUOUS
10
120.4185289999999924
20
-106.194429999999997
11
120.5428919999999948
21
-106.0428929999999923
0
LINE
8
BLACK
6
CONTINUOUS
10
120.5428919999999948
20
-106.0428929999999923
11
120.6944289999999995
21
-105.9185299999999899
0
LINE
8
BLACK
6
CONTINUOUS
10
120.6944289999999995
20
-105.9185299999999899
11
120.8673159999999882
21
-105.8261199999999889
0
LINE
8
BLACK
6
CONTINUOUS
10
120.8673159999999882
20
-105.8261199999999889
11
121.054908999999995
21
-105.7692149999999884
0
LINE
8
BLACK
6
CONTINUOUS
10
121.054908999999995
20
-105.7692149999999884
11
121.2499989999999883
21
-105.75
0
LINE
8
BLACK
6
CONTINUOUS
10
121.2499989999999883
20
-105.75
11
121.4450889999999958
21
-105.7692149999999884
0
LINE
8
BLACK
6
CONTINUOUS
10
121.4450889999999958
20
-105.7692149999999884
11
121.6326819999999884
21
-105.8261199999999889
0
LINE
8
BLACK
6
CONTINUOUS
10
121.6326819999999884
20
-105.8261199999999889
11
121.8055689999999913
21
-105.9185299999999899
0
LINE
8
BLACK
6
CONTINUOUS
10
121.8055689999999913
20
-105.9185299999999899
11
121.957105999999996
21
-106.0428929999999923
0
LINE
8
BLACK
6
CONTINUOUS
10
121.957105999999996
20
-106.0428929999999923
11
122.0814689999999985
21
-106.194429999999997
0
LINE
8
BLACK
6
CONTINUOUS
10
122.0814689999999985
20
-106.194429999999997
11
122.1111719999999963
21
-106.25
0
LINE
8
BLACK
6
CONTINUOUS
10
122.1111719999999963
20
-106.25
11
126.5719269999999881
21
-106.25
0
LINE
8
BLACK
6
CONTINUOUS
10
126.5719269999999881
20
-106.25
11
126.5380599999999873
21
-106.1913409999999942
0
LINE
8
BLACK
6
CONTINUOUS
10
126.5380599999999873
20
-106.1913409999999942
11
126.5042769999999877
21
-106.0652619999999899
0
LINE
8
BLACK
6
CONTINUOUS
10
126.5042769999999877
20
-106.0652619999999899
11
126.5042769999999877
21
-106.0652460000000019
0
LINE
8
BLACK
6
CONTINUOUS
10
126.5042769999999877
20
-106.0652460000000019
11
126.5
21
-105.9999989999999883
0
LINE
8
BLACK
6
CONTINUOUS
10
126.5
20
-105.9999989999999883
11
126.5
21
-101.8999999999999915
0
LINE
8
BLACK
6
CONTINUOUS
10
126.5
20
-101.8999999999999915
11
126.5
21
-100.0999999999999943
0
LINE
8
BLACK
6
CONTINUOUS
10
126.5
20
-100.0999999999999943
11
127.5
21
-100.0999999999999943
0
LINE
8
BLACK
6
CONTINUOUS
10
127.5
20
-100.0999999999999943
11
127.5
21
-101.
0
LINE
8
BLACK
6
CONTINUOUS
10
131.5
20
-101.
11
131.5
21
-102.2928939999999898
0
LINE
8
BLACK
6
CONTINUOUS
10
131.5
20
-102.2928939999999898
11
133.6035520000000076
21
-104.3964459999999974
0
LINE
8
BLACK
6
CONTINUOUS
10
133.6035520000000076
20
-104.3964459999999974
11
133.6466670000000079
21
-104.4456089999999904
0
LINE
8
BLACK
6
CONTINUOUS
10
133.6466670000000079
20
-104.4456089999999904
11
133.6466759999999852
21
-104.4456179999999961
0
LINE
8
BLACK
6
CONTINUOUS
10
133.6466759999999852
20
-104.4456179999999961
11
133.6756039999999928
21
-104.4957229999999981
0
LINE
8
BLACK
6
CONTINUOUS
10
133.6756039999999928
20
-104.4957229999999981
11
133.711939000000001
21
-104.5586569999999966
0
LINE
8
BLACK
6
CONTINUOUS
10
133.711939000000001
20
-104.5586569999999966
11
133.7457220000000007
21
-104.6847360000000009
0
LINE
8
BLACK
6
CONTINUOUS
10
133.7457220000000007
20
-104.6847360000000009
11
133.7457220000000007
21
-104.6847509999999914
0
LINE
8
BLACK
6
CONTINUOUS
10
133.7457220000000007
20
-104.6847509999999914
11
133.7499990000000025
21
-104.7499989999999883
0
LINE
8
BLACK
6
CONTINUOUS
10
133.7499990000000025
20
-104.7499989999999883
11
133.7499990000000025
21
-105.888826999999992
0
LINE
8
BLACK
6
CONTINUOUS
10
133.7499990000000025
20
-105.888826999999992
11
133.8055689999999913
21
-105.9185299999999899
0
LINE
8
BLACK
6
CONTINUOUS
10
133.8055689999999913
20
-105.9185299999999899
11
133.9571059999999818
21
-106.0428929999999923
0
LINE
8
BLACK
6
CONTINUOUS
10
133.9571059999999818
20
-106.0428929999999923
11
134.0814689999999985
21
-106.194429999999997
0
LINE
8
BLACK
6
CONTINUOUS
10
134.0814689999999985
20
-106.194429999999997
11
134.1111719999999821
21
-106.25
0
LINE
8
BLACK
6
CONTINUOUS
10
134.1111719999999821
20
-106.25
11
138.888826999999992
21
-106.25
0
LINE
8
BLACK
6
CONTINUOUS
10
138.888826999999992
20
-106.25
11
138.9185300000000041
21
-106.1944289999999995
0
LINE
8
BLACK
6
CONTINUOUS
10
138.9185300000000041
20
-106.1944289999999995
11
139.0428929999999923
21
-106.0428919999999948
0
LINE
8
BLACK
6
CONTINUOUS
10
139.0428929999999923
20
-106.0428919999999948
11
139.1944299999999828
21
-105.9185289999999924
0
LINE
8
BLACK
6
CONTINUOUS
10
139.1944299999999828
20
-105.9185289999999924
11
139.3673169999999857
21
-105.8261189999999914
0
LINE
8
BLACK
6
CONTINUOUS
10
139.3673169999999857
20
-105.8261189999999914
11
139.5549100000000067
21
-105.769213999999991
0
LINE
8
BLACK
6
CONTINUOUS
10
139.5549100000000067
20
-105.769213999999991
11
139.75
21
-105.7499989999999883
0
LINE
8
BLACK
6
CONTINUOUS
10
139.75
20
-105.7499989999999883
11
139.9450899999999933
21
-105.769213999999991
0
LINE
8
BLACK
6
CONTINUOUS
10
139.9450899999999933
20
-105.769213999999991
11
140.1326829999999859
21
-105.8261189999999914
0
LINE
8
BLACK
6
CONTINUOUS
10
140.1326829999999859
20
-105.8261189999999914
11
140.3055699999999888
21
-105.9185289999999924
0
LINE
8
BLACK
6
CONTINUOUS
10
140.3055699999999888
20
-105.9185289999999924
11
140.4571070000000077
21
-106.0428919999999948
0
LINE
8
BLACK
6
CONTINUOUS
10
140.4571070000000077
20
-106.0428919999999948
11
140.5814699999999959
21
-106.1944289999999995
0
LINE
8
BLACK
6
CONTINUOUS
10
140.5814699999999959
20
-106.1944289999999995
11
140.6738799999999969
21
-106.3673159999999882
0
LINE
8
BLACK
6
CONTINUOUS
10
140.6738799999999969
20
-106.3673159999999882
11
140.7307849999999974
21
-106.554908999999995
0
LINE
8
BLACK
6
CONTINUOUS
10
140.7307849999999974
20
-106.554908999999995
11
140.75
21
-106.7499989999999883
0
LINE
8
BLACK
6
CONTINUOUS
10
140.75
20
-106.7499989999999883
11
140.7307849999999974
21
-106.9450889999999958
0
LINE
8
BLACK
6
CONTINUOUS
10
140.7307849999999974
20
-106.9450889999999958
11
140.6738799999999969
21
-107.1326819999999884
0
LINE
8
BLACK
6
CONTINUOUS
10
140.6738799999999969
20
-107.1326819999999884
11
140.5814699999999959
21
-107.3055689999999913
0
LINE
8
BLACK
6
CONTINUOUS
10
140.5814699999999959
20
-107.3055689999999913
11
140.4571070000000077
21
-107.457105999999996
0
LINE
8
BLACK
6
CONTINUOUS
10
140.4571070000000077
20
-107.457105999999996
11
140.3055699999999888
21
-107.5814689999999985
0
LINE
8
BLACK
6
CONTINUOUS
10
140.3055699999999888
20
-107.5814689999999985
11
140.1326829999999859
21
-107.6738789999999995
0
LINE
8
BLACK
6
CONTINUOUS
10
140.1326829999999859
20
-107.6738789999999995
11
139.9450899999999933
21
-107.7307839999999999
0
LINE
8
BLACK
6
CONTINUOUS
10
139.9450899999999933
20
-107.7307839999999999
11
139.75
21
-107.7499989999999883
0
LINE
8
BLACK
6
CONTINUOUS
10
139.75
20
-107.7499989999999883
11
139.5549100000000067
21
-107.7307839999999999
0
LINE
8
BLACK
6
CONTINUOUS
10
139.5549100000000067
20
-107.7307839999999999
11
139.3673169999999857
21
-107.6738789999999995
0
LINE
8
BLACK
6
CONTINUOUS
10
139.3673169999999857
20
-107.6738789999999995
11
139.1944299999999828
21
-107.5814689999999985
0
LINE
8
BLACK
6
CONTINUOUS
10
139.1944299999999828
20
-107.5814689999999985
11
139.0428929999999923
21
-107.457105999999996
0
LINE
8
BLACK
6
CONTINUOUS
10
139.0428929999999923
20
-107.457105999999996
11
138.9185300000000041
21
-107.3055689999999913
0
LINE
8
BLACK
6
CONTINUOUS
10
138.9185300000000041
20
-107.3055689999999913
11
138.8888279999999895
21
-107.25
0
LINE
8
BLACK
6
CONTINUOUS
10
138.8888279999999895
20
-107.25
11
134.1111719999999821
21
-107.25
0
LINE
8
BLACK
6
CONTINUOUS
10
134.1111719999999821
20
-107.25
11
134.0814689999999985
21
-107.3055699999999888
0
LINE
8
BLACK
6
CONTINUOUS
10
134.0814689999999985
20
-107.3055699999999888
11
133.9571059999999818
21
-107.4571069999999935
0
LINE
8
BLACK
6
CONTINUOUS
10
133.9571059999999818
20
-107.4571069999999935
11
133.8055689999999913
21
-107.5814699999999959
0
LINE
8
BLACK
6
CONTINUOUS
10
133.8055689999999913
20
-107.5814699999999959
11
133.6326819999999884
21
-107.6738799999999969
0
LINE
8
BLACK
6
CONTINUOUS
10
133.6326819999999884
20
-107.6738799999999969
11
133.4450889999999958
21
-107.7307849999999974
0
LINE
8
BLACK
6
CONTINUOUS
10
133.4450889999999958
20
-107.7307849999999974
11
133.2499990000000025
21
-107.75
0
LINE
8
BLACK
6
CONTINUOUS
10
133.2499990000000025
20
-107.75
11
133.0549089999999808
21
-107.7307849999999974
0
LINE
8
BLACK
6
CONTINUOUS
10
133.0549089999999808
20
-107.7307849999999974
11
132.8673159999999882
21
-107.6738799999999969
0
LINE
8
BLACK
6
CONTINUOUS
10
132.8673159999999882
20
-107.6738799999999969
11
132.6944289999999853
21
-107.5814699999999959
0
LINE
8
BLACK
6
CONTINUOUS
10
132.6944289999999853
20
-107.5814699999999959
11
132.5428919999999948
21
-107.4571069999999935
0
LINE
8
BLACK
6
CONTINUOUS
10
132.5428919999999948
20
-107.4571069999999935
11
132.4185290000000066
21
-107.3055699999999888
0
LINE
8
BLACK
6
CONTINUOUS
10
132.4185290000000066
20
-107.3055699999999888
11
132.3261190000000056
21
-107.1326830000000001
0
LINE
8
BLACK
6
CONTINUOUS
10
132.3261190000000056
20
-107.1326830000000001
11
132.2692140000000052
21
-106.9450899999999933
0
LINE
8
BLACK
6
CONTINUOUS
10
132.2692140000000052
20
-106.9450899999999933
11
132.2499990000000025
21
-106.75
0
LINE
8
BLACK
6
CONTINUOUS
10
132.2499990000000025
20
-106.75
11
132.2692140000000052
21
-106.5549099999999925
0
LINE
8
BLACK
6
CONTINUOUS
10
132.2692140000000052
20
-106.5549099999999925
11
132.3261190000000056
21
-106.3673169999999999
0
LINE
8
BLACK
6
CONTINUOUS
10
132.3261190000000056
20
-106.3673169999999999
11
132.4185290000000066
21
-106.194429999999997
0
LINE
8
BLACK
6
CONTINUOUS
10
132.4185290000000066
20
-106.194429999999997
11
132.5428919999999948
21
-106.0428929999999923
0
LINE
8
BLACK
6
CONTINUOUS
10
132.5428919999999948
20
-106.0428929999999923
11
132.6944289999999853
21
-105.9185299999999899
0
LINE
8
BLACK
6
CONTINUOUS
10
132.6944289999999853
20
-105.9185299999999899
11
132.7499990000000025
21
-105.888826999999992
0
LINE
8
BLACK
6
CONTINUOUS
10
132.7499990000000025
20
-105.888826999999992
11
132.7499990000000025
21
-104.9571049999999985
0
LINE
8
BLACK
6
CONTINUOUS
10
132.7499990000000025
20
-104.9571049999999985
11
130.6464469999999949
21
-102.8535529999999909
0
LINE
8
BLACK
6
CONTINUOUS
10
130.6464469999999949
20
-102.8535529999999909
11
130.6033380000000079
21
-102.804395999999997
0
LINE
8
BLACK
6
CONTINUOUS
10
130.6033380000000079
20
-102.804395999999997
11
130.603322999999989
21
-102.8043809999999922
0
LINE
8
BLACK
6
CONTINUOUS
10
130.603322999999989
20
-102.8043809999999922
11
130.5380600000000015
21
-102.6913419999999917
0
LINE
8
BLACK
6
CONTINUOUS
10
130.5380600000000015
20
-102.6913419999999917
11
130.5341430000000003
21
-102.6767249999999905
0
LINE
8
BLACK
6
CONTINUOUS
10
130.5341430000000003
20
-102.6767249999999905
11
130.5042770000000019
21
-102.5652630000000016
0
LINE
8
BLACK
6
CONTINUOUS
10
130.5042770000000019
20
-102.5652630000000016
11
130.5042770000000019
21
-102.5652469999999994
0
LINE
8
BLACK
6
CONTINUOUS
10
130.5042770000000019
20
-102.5652469999999994
11
130.5
21
-102.5
0
LINE
8
BLACK
6
CONTINUOUS
10
130.5
20
-102.5
11
130.5
21
-101.8999999999999915
0
LINE
8
BLACK
6
CONTINUOUS
10
130.5
20
-101.8999999999999915
11
130.5
21
-100.0999999999999943
0
LINE
8
BLACK
6
CONTINUOUS
10
130.5
20
-100.0999999999999943
11
131.5
21
-100.0999999999999943
0
LINE
8
BLACK
6
CONTINUOUS
10
131.5
20
-100.0999999999999943
11
131.5
21
-101.
0
LINE
8
BLACK
6
CONTINUOUS
10
113.4956710000000015
20
-86.8440299999999894
11
113.5767769999999928
21
-86.8982230000000015
0
LINE
8
BLACK
6
CONTINUOUS
10
113.5767769999999928
20
-86.8982230000000015
11
113.6309699999999907
21
-86.9793289999999928
0
LINE
8
BLACK
6
CONTINUOUS
10
113.6309699999999907
20
-86.9793289999999928
11
113.649998999999994
21
-87.0750000000000028
0
LINE
8
BLACK
6
CONTINUOUS
10
113.649998999999994
20
-87.0750000000000028
11
113.6499999999999915
21
-89.9250009999999946
0
LINE
8
BLACK
6
CONTINUOUS
10
113.6499999999999915
20
-89.9250009999999946
11
113.6309699999999907
21
-90.020670999999993
0
LINE
8
BLACK
6
CONTINUOUS
10
113.6309699999999907
20
-90.020670999999993
11
113.5767769999999928
21
-90.1017769999999985
0
LINE
8
BLACK
6
CONTINUOUS
10
113.5767769999999928
20
-90.1017769999999985
11
113.5
21
-90.1530769999999961
0
LINE
8
BLACK
6
CONTINUOUS
10
113.5
20
-90.1530769999999961
11
113.5
21
-98.7928929999999923
0
LINE
8
BLACK
6
CONTINUOUS
10
113.5
20
-98.7928929999999923
11
114.2071069999999935
21
-99.5
0
LINE
8
BLACK
6
CONTINUOUS
10
114.2071069999999935
20
-99.5
11
117.039999999999992
21
-99.5
0
LINE
8
BLACK
6
CONTINUOUS
10
117.039999999999992
20
-99.5
11
117.1052629999999937
21
-99.5042779999999993
0
LINE
8
BLACK
6
CONTINUOUS
10
117.1052629999999937
20
-99.5042779999999993
11
117.2313419999999979
21
-99.5380600000000015
0
LINE
8
BLACK
6
CONTINUOUS
10
117.2313419999999979
20
-99.5380600000000015
11
117.3443809999999985
21
-99.603322999999989
0
LINE
8
BLACK
6
CONTINUOUS
10
117.3443809999999985
20
-99.603322999999989
11
117.4366769999999889
21
-99.6956189999999935
0
LINE
8
BLACK
6
CONTINUOUS
10
117.4366769999999889
20
-99.6956189999999935
11
117.5019399999999905
21
-99.8086579999999941
0
LINE
8
BLACK
6
CONTINUOUS
10
117.5019399999999905
20
-99.8086579999999941
11
117.5357219999999927
21
-99.9347369999999984
0
LINE
8
BLACK
6
CONTINUOUS
10
117.5357219999999927
20
-99.9347369999999984
11
117.539999999999992
21
-100.
0
LINE
8
BLACK
6
CONTINUOUS
10
117.539999999999992
20
-100.
11
117.539999999999992
21
-101.8183679999999924
0
LINE
8
BLACK
6
CONTINUOUS
10
117.539999999999992
20
-101.8183679999999924
11
117.6087610000000012
21
-101.8683269999999936
0
LINE
8
BLACK
6
CONTINUOUS
10
117.6087610000000012
20
-101.8683269999999936
11
117.7276639999999901
21
-102.0003829999999994
0
LINE
8
BLACK
6
CONTINUOUS
10
117.7276639999999901
20
-102.0003829999999994
11
117.816513999999998
21
-102.1542740000000009
0
LINE
8
BLACK
6
CONTINUOUS
10
117.816513999999998
20
-102.1542740000000009
11
117.8714249999999879
21
-102.3232749999999953
0
LINE
8
BLACK
6
CONTINUOUS
10
117.8714249999999879
20
-102.3232749999999953
11
117.8900000000000006
21
-102.5
0
LINE
8
BLACK
6
CONTINUOUS
10
117.8900000000000006
20
-102.5
11
117.8714249999999879
21
-102.6767249999999905
0
LINE
8
BLACK
6
CONTINUOUS
10
117.8714249999999879
20
-102.6767249999999905
11
117.816513999999998
21
-102.8457259999999991
0
LINE
8
BLACK
6
CONTINUOUS
10
117.816513999999998
20
-102.8457259999999991
11
117.7276639999999901
21
-102.9996170000000006
0
LINE
8
BLACK
6
CONTINUOUS
10
117.7276639999999901
20
-102.9996170000000006
11
117.6087610000000012
21
-103.1316729999999922
0
LINE
8
BLACK
6
CONTINUOUS
10
117.6087610000000012
20
-103.1316729999999922
11
117.4649999999999892
21
-103.2361219999999946
0
LINE
8
BLACK
6
CONTINUOUS
10
117.4649999999999892
20
-103.2361219999999946
11
117.3026639999999929
21
-103.3083979999999968
0
LINE
8
BLACK
6
CONTINUOUS
10
117.3026639999999929
20
-103.3083979999999968
11
117.1288489999999882
21
-103.3453439999999972
0
LINE
8
BLACK
6
CONTINUOUS
10
117.1288489999999882
20
-103.3453439999999972
11
116.9511509999999959
21
-103.3453439999999972
0
LINE
8
BLACK
6
CONTINUOUS
10
116.9511509999999959
20
-103.3453439999999972
11
116.7773359999999911
21
-103.3083979999999968
0
LINE
8
BLACK
6
CONTINUOUS
10
116.7773359999999911
20
-103.3083979999999968
11
116.6149999999999949
21
-103.2361219999999946
0
LINE
8
BLACK
6
CONTINUOUS
10
116.6149999999999949
20
-103.2361219999999946
11
116.4712389999999971
21
-103.1316729999999922
0
LINE
8
BLACK
6
CONTINUOUS
10
116.4712389999999971
20
-103.1316729999999922
11
116.352335999999994
21
-102.9996170000000006
0
LINE
8
BLACK
6
CONTINUOUS
10
116.352335999999994
20
-102.9996170000000006
11
116.2634860000000003
21
-102.8457259999999991
0
LINE
8
BLACK
6
CONTINUOUS
10
116.2634860000000003
20
-102.8457259999999991
11
116.2085749999999962
21
-102.6767249999999905
0
LINE
8
BLACK
6
CONTINUOUS
10
116.2085749999999962
20
-102.6767249999999905
11
116.1899999999999977
21
-102.5
0
LINE
8
BLACK
6
CONTINUOUS
10
116.1899999999999977
20
-102.5
11
116.2085749999999962
21
-102.3232749999999953
0
LINE
8
BLACK
6
CONTINUOUS
10
116.2085749999999962
20
-102.3232749999999953
11
116.2634860000000003
21
-102.1542740000000009
0
LINE
8
BLACK
6
CONTINUOUS
10
116.2634860000000003
20
-102.1542740000000009
11
116.352335999999994
21
-102.0003829999999994
0
LINE
8
BLACK
6
CONTINUOUS
10
116.352335999999994
20
-102.0003829999999994
11
116.4712389999999971
21
-101.8683269999999936
0
LINE
8
BLACK
6
CONTINUOUS
10
116.4712389999999971
20
-101.8683269999999936
11
116.539999999999992
21
-101.8183679999999924
0
LINE
8
BLACK
6
CONTINUOUS
10
116.539999999999992
20
-101.8183679999999924
11
116.539999999999992
21
-100.5
0
LINE
8
BLACK
6
CONTINUOUS
10
116.539999999999992
20
-100.5
11
114.
21
-100.5
0
LINE
8
BLACK
6
CONTINUOUS
10
114.
20
-100.5
11
113.9347519999999889
21
-100.4957229999999981
0
LINE
8
BLACK
6
CONTINUOUS
10
113.9347519999999889
20
-100.4957229999999981
11
113.9347369999999984
21
-100.4957229999999981
0
LINE
8
BLACK
6
CONTINUOUS
10
113.9347369999999984
20
-100.4957229999999981
11
113.8353010000000012
21
-100.4690789999999936
0
LINE
8
BLACK
6
CONTINUOUS
10
113.8353010000000012
20
-100.4690789999999936
11
113.8086579999999941
21
-100.4619399999999985
0
LINE
8
BLACK
6
CONTINUOUS
10
113.8086579999999941
20
-100.4619399999999985
11
113.6956189999999935
21
-100.3966769999999968
0
LINE
8
BLACK
6
CONTINUOUS
10
113.6956189999999935
20
-100.3966769999999968
11
113.6956109999999995
21
-100.3966689999999886
0
LINE
8
BLACK
6
CONTINUOUS
10
113.6956109999999995
20
-100.3966689999999886
11
113.6464469999999949
21
-100.3535539999999884
0
LINE
8
BLACK
6
CONTINUOUS
10
113.6464469999999949
20
-100.3535539999999884
11
112.6464469999999949
21
-99.3535529999999909
0
LINE
8
BLACK
6
CONTINUOUS
10
112.6464469999999949
20
-99.3535529999999909
11
112.6033379999999937
21
-99.304395999999997
0
LINE
8
BLACK
6
CONTINUOUS
10
112.6033379999999937
20
-99.304395999999997
11
112.603322999999989
21
-99.3043809999999922
0
LINE
8
BLACK
6
CONTINUOUS
10
112.603322999999989
20
-99.3043809999999922
11
112.5380600000000015
21
-99.1913419999999917
0
LINE
8
BLACK
6
CONTINUOUS
10
112.5380600000000015
20
-99.1913419999999917
11
112.5042770000000019
21
-99.0652630000000016
0
LINE
8
BLACK
6
CONTINUOUS
10
112.5042770000000019
20
-99.0652630000000016
11
112.5042770000000019
21
-99.0652469999999994
0
LINE
8
BLACK
6
CONTINUOUS
10
112.5042770000000019
20
-99.0652469999999994
11
112.5
21
-99.
0
LINE
8
BLACK
6
CONTINUOUS
10
112.5
20
-99.
11
112.5
21
-90.1749989999999997
0
LINE
8
BLACK
6
CONTINUOUS
10
112.5
20
-90.1749989999999997
11
112.4999989999999883
21
-90.1749999999999972
0
LINE
8
BLACK
6
CONTINUOUS
10
112.4999989999999883
20
-90.1749999999999972
11
112.4043289999999899
21
-90.1559699999999964
0
LINE
8
BLACK
6
CONTINUOUS
10
112.4043289999999899
20
-90.1559699999999964
11
112.3232229999999987
21
-90.1017769999999985
0
LINE
8
BLACK
6
CONTINUOUS
10
112.3232229999999987
20
-90.1017769999999985
11
112.2690300000000008
21
-90.020670999999993
0
LINE
8
BLACK
6
CONTINUOUS
10
112.2690300000000008
20
-90.020670999999993
11
112.2500009999999975
21
-89.9249999999999972
0
LINE
8
BLACK
6
CONTINUOUS
10
112.2500009999999975
20
-89.9249999999999972
11
112.25
21
-87.0749989999999912
0
LINE
8
BLACK
6
CONTINUOUS
10
112.25
20
-87.0749989999999912
11
112.2690300000000008
21
-86.9793289999999928
0
LINE
8
BLACK
6
CONTINUOUS
10
112.2690300000000008
20
-86.9793289999999928
11
112.3232229999999987
21
-86.8982230000000015
0
LINE
8
BLACK
6
CONTINUOUS
10
112.3232229999999987
20
-86.8982230000000015
11
112.4043289999999899
21
-86.8440299999999894
0
LINE
8
BLACK
6
CONTINUOUS
10
112.4043289999999899
20
-86.8440299999999894
11
112.5
21
-86.8250010000000003
0
LINE
8
BLACK
6
CONTINUOUS
10
112.5
20
-86.8250010000000003
11
113.4000009999999889
21
-86.8250000000000028
0
LINE
8
BLACK
6
CONTINUOUS
10
113.4000009999999889
20
-86.8250000000000028
11
113.4956710000000015
21
-86.8440299999999894
0
LINE
8
BLACK
6
CONTINUOUS
10
151.0956709999999816
20
-96.8440299999999894
11
151.1767769999999871
21
-96.8982230000000015
0
LINE
8
BLACK
6
CONTINUOUS
10
151.1767769999999871
20
-96.8982230000000015
11
151.230969999999985
21
-96.9793289999999928
0
LINE
8
BLACK
6
CONTINUOUS
10
151.230969999999985
20
-96.9793289999999928
11
151.2499990000000025
21
-97.0749999999999886
0
LINE
8
BLACK
6
CONTINUOUS
10
151.2499990000000025
20
-97.0749999999999886
11
151.25
21
-99.9250009999999946
0
LINE
8
BLACK
6
CONTINUOUS
10
151.25
20
-99.9250009999999946
11
151.230969999999985
21
-100.020670999999993
0
LINE
8
BLACK
6
CONTINUOUS
10
151.230969999999985
20
-100.020670999999993
11
151.1767769999999871
21
-100.1017769999999985
0
LINE
8
BLACK
6
CONTINUOUS
10
151.1767769999999871
20
-100.1017769999999985
11
151.0956709999999816
21
-100.1559699999999964
0
LINE
8
BLACK
6
CONTINUOUS
10
151.0956709999999816
20
-100.1559699999999964
11
151.0499999999999829
21
-100.1650530000000003
0
LINE
8
BLACK
6
CONTINUOUS
10
151.0499999999999829
20
-100.1650530000000003
11
151.0499999999999829
21
-102.
0
LINE
8
BLACK
6
CONTINUOUS
10
151.0499999999999829
20
-102.
11
151.789999999999992
21
-102.
0
LINE
8
BLACK
6
CONTINUOUS
10
151.789999999999992
20
-102.
11
151.789999999999992
21
-103.
0
LINE
8
BLACK
6
CONTINUOUS
10
151.789999999999992
20
-103.
11
149.2099999999999795
21
-103.
0
LINE
8
BLACK
6
CONTINUOUS
10
149.2099999999999795
20
-103.
11
146.3299999999999841
21
-103.
0
LINE
8
BLACK
6
CONTINUOUS
10
146.3299999999999841
20
-103.
11
145.039999999999992
21
-103.
0
LINE
8
BLACK
6
CONTINUOUS
10
145.039999999999992
20
-103.
11
145.039999999999992
21
-102.
0
LINE
8
BLACK
6
CONTINUOUS
10
145.039999999999992
20
-102.
11
147.6200000000000045
21
-102.
0
LINE
8
BLACK
6
CONTINUOUS
10
147.6200000000000045
20
-102.
11
150.0499999999999829
21
-102.
0
LINE
8
BLACK
6
CONTINUOUS
10
150.0499999999999829
20
-102.
11
150.0499999999999829
21
-100.1650539999999978
0
LINE
8
BLACK
6
CONTINUOUS
10
150.0499999999999829
20
-100.1650539999999978
11
150.0043289999999843
21
-100.1559699999999964
0
LINE
8
BLACK
6
CONTINUOUS
10
150.0043289999999843
20
-100.1559699999999964
11
149.9232230000000072
21
-100.1017769999999985
0
LINE
8
BLACK
6
CONTINUOUS
10
149.9232230000000072
20
-100.1017769999999985
11
149.8690299999999809
21
-100.020670999999993
0
LINE
8
BLACK
6
CONTINUOUS
10
149.8690299999999809
20
-100.020670999999993
11
149.8500009999999918
21
-99.9249999999999972
0
LINE
8
BLACK
6
CONTINUOUS
10
149.8500009999999918
20
-99.9249999999999972
11
149.8499999999999943
21
-97.0749989999999912
0
LINE
8
BLACK
6
CONTINUOUS
10
149.8499999999999943
20
-97.0749989999999912
11
149.8690299999999809
21
-96.9793289999999928
0
LINE
8
BLACK
6
CONTINUOUS
10
149.8690299999999809
20
-96.9793289999999928
11
149.9232230000000072
21
-96.8982230000000015
0
LINE
8
BLACK
6
CONTINUOUS
10
149.9232230000000072
20
-96.8982230000000015
11
150.0043289999999843
21
-96.8440299999999894
0
LINE
8
BLACK
6
CONTINUOUS
10
150.0043289999999843
20
-96.8440299999999894
11
150.0999999999999943
21
-96.8250010000000003
0
LINE
8
BLACK
6
CONTINUOUS
10
150.0999999999999943
20
-96.8250010000000003
11
151.0000009999999975
21
-96.8249999999999886
0
LINE
8
BLACK
6
CONTINUOUS
10
151.0000009999999975
20
-96.8249999999999886
11
151.0956709999999816
21
-96.8440299999999894
0
LINE
8
BLACK
6
CONTINUOUS
10
135.5
20
-101.8999999999999915
11
134.5
21
-101.8999999999999915
0
LINE
8
BLACK
6
CONTINUOUS
10
134.5
20
-101.8999999999999915
11
134.5
21
-100.0999999999999943
0
LINE
8
BLACK
6
CONTINUOUS
10
134.5
20
-100.0999999999999943
11
135.5
21
-100.0999999999999943
0
LINE
8
BLACK
6
CONTINUOUS
10
135.5
20
-100.0999999999999943
11
135.5
21
-101.8999999999999915
0
LINE
8
BLACK
6
CONTINUOUS
10
137.5
20
-101.8999999999999915
11
136.5
21
-101.8999999999999915
0
LINE
8
BLACK
6
CONTINUOUS
10
136.5
20
-101.8999999999999915
11
136.5
21
-100.0999999999999943
0
LINE
8
BLACK
6
CONTINUOUS
10
136.5
20
-100.0999999999999943
11
137.5
21
-100.0999999999999943
0
LINE
8
BLACK
6
CONTINUOUS
10
137.5
20
-100.0999999999999943
11
137.5
21
-101.8999999999999915
0
LINE
8
BLACK
6
CONTINUOUS
10
144.9956709999999873
20
-96.8440299999999894
11
145.0767769999999928
21
-96.8982230000000015
0
LINE
8
BLACK
6
CONTINUOUS
10
145.0767769999999928
20
-96.8982230000000015
11
145.1309699999999907
21
-96.9793289999999928
0
LINE
8
BLACK
6
CONTINUOUS
10
145.1309699999999907
20
-96.9793289999999928
11
145.1499989999999798
21
-97.0749999999999886
0
LINE
8
BLACK
6
CONTINUOUS
10
145.1499989999999798
20
-97.0749999999999886
11
145.1500000000000057
21
-99.9250009999999946
0
LINE
8
BLACK
6
CONTINUOUS
10
145.1500000000000057
20
-99.9250009999999946
11
145.1309699999999907
21
-100.020670999999993
0
LINE
8
BLACK
6
CONTINUOUS
10
145.1309699999999907
20
-100.020670999999993
11
145.0767769999999928
21
-100.1017769999999985
0
LINE
8
BLACK
6
CONTINUOUS
10
145.0767769999999928
20
-100.1017769999999985
11
144.9956709999999873
21
-100.1559699999999964
0
LINE
8
BLACK
6
CONTINUOUS
10
144.9956709999999873
20
-100.1559699999999964
11
144.9000000000000057
21
-100.1749989999999997
0
LINE
8
BLACK
6
CONTINUOUS
10
144.9000000000000057
20
-100.1749989999999997
11
143.9999990000000025
21
-100.1749999999999972
0
LINE
8
BLACK
6
CONTINUOUS
10
143.9999990000000025
20
-100.1749999999999972
11
143.9043289999999899
21
-100.1559699999999964
0
LINE
8
BLACK
6
CONTINUOUS
10
143.9043289999999899
20
-100.1559699999999964
11
143.8232229999999845
21
-100.1017769999999985
0
LINE
8
BLACK
6
CONTINUOUS
10
143.8232229999999845
20
-100.1017769999999985
11
143.7690299999999866
21
-100.020670999999993
0
LINE
8
BLACK
6
CONTINUOUS
10
143.7690299999999866
20
-100.020670999999993
11
143.7500009999999975
21
-99.9249999999999972
0
LINE
8
BLACK
6
CONTINUOUS
10
143.7500009999999975
20
-99.9249999999999972
11
143.75
21
-98.5071069999999906
0
LINE
8
BLACK
6
CONTINUOUS
10
143.75
20
-98.5071069999999906
11
143.2428940000000068
21
-98.
0
LINE
8
BLACK
6
CONTINUOUS
10
143.2428940000000068
20
-98.
11
139.5999999999999943
21
-98.
0
LINE
8
BLACK
6
CONTINUOUS
10
139.5999999999999943
20
-98.
11
138.3499999999999943
21
-98.
0
LINE
8
BLACK
6
CONTINUOUS
10
138.3499999999999943
20
-98.
11
138.3499999999999943
21
-97.
0
LINE
8
BLACK
6
CONTINUOUS
10
138.3499999999999943
20
-97.
11
140.8499999999999943
21
-97.
0
LINE
8
BLACK
6
CONTINUOUS
10
140.8499999999999943
20
-97.
11
143.4499999999999886
21
-97.
0
LINE
8
BLACK
6
CONTINUOUS
10
143.4499999999999886
20
-97.
11
143.5152479999999855
21
-97.0042770000000019
0
LINE
8
BLACK
6
CONTINUOUS
10
143.5152479999999855
20
-97.0042770000000019
11
143.5152630000000045
21
-97.0042770000000019
0
LINE
8
BLACK
6
CONTINUOUS
10
143.5152630000000045
20
-97.0042770000000019
11
143.6413419999999803
21
-97.0380600000000015
0
LINE
8
BLACK
6
CONTINUOUS
10
143.6413419999999803
20
-97.0380600000000015
11
143.75
21
-97.1007929999999959
0
LINE
8
BLACK
6
CONTINUOUS
10
143.75
20
-97.1007929999999959
11
143.75
21
-97.0749989999999912
0
LINE
8
BLACK
6
CONTINUOUS
10
143.75
20
-97.0749989999999912
11
143.7690299999999866
21
-96.9793289999999928
0
LINE
8
BLACK
6
CONTINUOUS
10
143.7690299999999866
20
-96.9793289999999928
11
143.8232229999999845
21
-96.8982230000000015
0
LINE
8
BLACK
6
CONTINUOUS
10
143.8232229999999845
20
-96.8982230000000015
11
143.9043289999999899
21
-96.8440299999999894
0
LINE
8
BLACK
6
CONTINUOUS
10
143.9043289999999899
20
-96.8440299999999894
11
144.
21
-96.8250010000000003
0
LINE
8
BLACK
6
CONTINUOUS
10
144.
20
-96.8250010000000003
11
144.9000010000000032
21
-96.8249999999999886
0
LINE
8
BLACK
6
CONTINUOUS
10
144.9000010000000032
20
-96.8249999999999886
11
144.9956709999999873
21
-96.8440299999999894
0
LINE
8
BLACK
6
CONTINUOUS
10
125.6499999999999915
20
-98.
11
123.1499999999999915
21
-98.
0
LINE
8
BLACK
6
CONTINUOUS
10
123.1499999999999915
20
-98.
11
123.1499999999999915
21
-97.
0
LINE
8
BLACK
6
CONTINUOUS
10
123.1499999999999915
20
-97.
11
125.6499999999999915
21
-97.
0
LINE
8
BLACK
6
CONTINUOUS
10
125.6499999999999915
20
-97.
11
125.6499999999999915
21
-98.
0
LINE
8
BLACK
6
CONTINUOUS
10
124.3999999999999915
20
-93.
11
125.6499999999999915
21
-93.
0
LINE
8
BLACK
6
CONTINUOUS
10
125.6499999999999915
20
-93.
11
125.6499999999999915
21
-94.
0
LINE
8
BLACK
6
CONTINUOUS
10
125.6499999999999915
20
-94.
11
123.207105999999996
21
-94.
0
LINE
8
BLACK
6
CONTINUOUS
10
123.207105999999996
20
-94.
11
121.3499999999999943
21
-95.8571060000000017
0
LINE
8
BLACK
6
CONTINUOUS
10
121.3499999999999943
20
-95.8571060000000017
11
121.3499999999999943
21
-96.8499999999999943
0
LINE
8
BLACK
6
CONTINUOUS
10
121.3499999999999943
20
-96.8499999999999943
11
119.6499999999999915
21
-96.8499999999999943
0
LINE
8
BLACK
6
CONTINUOUS
10
119.6499999999999915
20
-96.8499999999999943
11
119.6499999999999915
21
-95.1499999999999915
0
LINE
8
BLACK
6
CONTINUOUS
10
119.6499999999999915
20
-95.1499999999999915
11
120.6428939999999983
21
-95.1499999999999915
0
LINE
8
BLACK
6
CONTINUOUS
10
120.6428939999999983
20
-95.1499999999999915
11
122.6464469999999949
21
-93.1464469999999949
0
LINE
8
BLACK
6
CONTINUOUS
10
122.6464469999999949
20
-93.1464469999999949
11
122.6956029999999913
21
-93.1033379999999937
0
LINE
8
BLACK
6
CONTINUOUS
10
122.6956029999999913
20
-93.1033379999999937
11
122.6956189999999935
21
-93.103322999999989
0
LINE
8
BLACK
6
CONTINUOUS
10
122.6956189999999935
20
-93.103322999999989
11
122.8086579999999941
21
-93.0380600000000015
0
LINE
8
BLACK
6
CONTINUOUS
10
122.8086579999999941
20
-93.0380600000000015
11
122.9347369999999984
21
-93.0042770000000019
0
LINE
8
BLACK
6
CONTINUOUS
10
122.9347369999999984
20
-93.0042770000000019
11
122.9347519999999889
21
-93.0042770000000019
0
LINE
8
BLACK
6
CONTINUOUS
10
122.9347519999999889
20
-93.0042770000000019
11
123.
21
-93.
0
LINE
8
BLACK
6
CONTINUOUS
10
123.
20
-93.
11
124.3999999999999915
21
-93.
0
LINE
8
BLACK
6
CONTINUOUS
10
125.6499999999999915
20
-96.
11
123.1499999999999915
21
-96.
0
LINE
8
BLACK
6
CONTINUOUS
10
123.1499999999999915
20
-96.
11
123.1499999999999915
21
-95.
0
LINE
8
BLACK
6
CONTINUOUS
10
123.1499999999999915
20
-95.
11
125.6499999999999915
21
-95.
0
LINE
8
BLACK
6
CONTINUOUS
10
125.6499999999999915
20
-95.
11
125.6499999999999915
21
-96.
0
LINE
8
BLACK
6
CONTINUOUS
10
143.7626640000000009
20
-89.8116019999999935
11
143.9249999999999829
21
-89.8838779999999957
0
LINE
8
BLACK
6
CONTINUOUS
10
143.9249999999999829
20
-89.8838779999999957
11
144.068760999999995
21
-89.9883269999999982
0
LINE
8
BLACK
6
CONTINUOUS
10
144.068760999999995
20
-89.9883269999999982
11
144.1876639999999838
21
-90.1203829999999897
0
LINE
8
BLACK
6
CONTINUOUS
10
144.1876639999999838
20
-90.1203829999999897
11
144.2765139999999917
21
-90.2742739999999912
0
LINE
8
BLACK
6
CONTINUOUS
10
144.2765139999999917
20
-90.2742739999999912
11
144.3314249999999959
21
-90.4432749999999999
0
LINE
8
BLACK
6
CONTINUOUS
10
144.3314249999999959
20
-90.4432749999999999
11
144.3499999999999943
21
-90.6199999999999903
0
LINE
8
BLACK
6
CONTINUOUS
10
144.3499999999999943
20
-90.6199999999999903
11
144.3314249999999959
21
-90.796724999999995
0
LINE
8
BLACK
6
CONTINUOUS
10
144.3314249999999959
20
-90.796724999999995
11
144.2765139999999917
21
-90.9657259999999894
0
LINE
8
BLACK
6
CONTINUOUS
10
144.2765139999999917
20
-90.9657259999999894
11
144.1876639999999838
21
-91.119616999999991
0
LINE
8
BLACK
6
CONTINUOUS
10
144.1876639999999838
20
-91.119616999999991
11
144.068760999999995
21
-91.2516729999999967
0
LINE
8
BLACK
6
CONTINUOUS
10
144.068760999999995
20
-91.2516729999999967
11
144.
21
-91.3016310000000004
0
LINE
8
BLACK
6
CONTINUOUS
10
144.
20
-91.3016310000000004
11
144.
21
-91.5
0
LINE
8
BLACK
6
CONTINUOUS
10
144.
20
-91.5
11
143.9957229999999981
21
-91.5652469999999994
0
LINE
8
BLACK
6
CONTINUOUS
10
143.9957229999999981
20
-91.5652469999999994
11
143.9957229999999981
21
-91.5652630000000016
0
LINE
8
BLACK
6
CONTINUOUS
10
143.9957229999999981
20
-91.5652630000000016
11
143.9619399999999985
21
-91.6913419999999917
0
LINE
8
BLACK
6
CONTINUOUS
10
143.9619399999999985
20
-91.6913419999999917
11
143.8966769999999826
21
-91.8043809999999922
0
LINE
8
BLACK
6
CONTINUOUS
10
143.8966769999999826
20
-91.8043809999999922
11
143.8966680000000053
21
-91.8043890000000005
0
LINE
8
BLACK
6
CONTINUOUS
10
143.8966680000000053
20
-91.8043890000000005
11
143.8535530000000051
21
-91.8535529999999909
0
LINE
8
BLACK
6
CONTINUOUS
10
143.8535530000000051
20
-91.8535529999999909
11
141.8535530000000051
21
-93.8535529999999909
0
LINE
8
BLACK
6
CONTINUOUS
10
141.8535530000000051
20
-93.8535529999999909
11
141.804395999999997
21
-93.8966609999999946
0
LINE
8
BLACK
6
CONTINUOUS
10
141.804395999999997
20
-93.8966609999999946
11
141.8043810000000065
21
-93.8966769999999968
0
LINE
8
BLACK
6
CONTINUOUS
10
141.8043810000000065
20
-93.8966769999999968
11
141.6913419999999917
21
-93.9619399999999985
0
LINE
8
BLACK
6
CONTINUOUS
10
141.6913419999999917
20
-93.9619399999999985
11
141.5652629999999874
21
-93.9957229999999981
0
LINE
8
BLACK
6
CONTINUOUS
10
141.5652629999999874
20
-93.9957229999999981
11
141.5652479999999969
21
-93.9957229999999981
0
LINE
8
BLACK
6
CONTINUOUS
10
141.5652479999999969
20
-93.9957229999999981
11
141.5
21
-94.
0
LINE
8
BLACK
6
CONTINUOUS
10
141.5
20
-94.
11
139.5999999999999943
21
-94.
0
LINE
8
BLACK
6
CONTINUOUS
10
139.5999999999999943
20
-94.
11
138.3499999999999943
21
-94.
0
LINE
8
BLACK
6
CONTINUOUS
10
138.3499999999999943
20
-94.
11
138.3499999999999943
21
-93.
0
LINE
8
BLACK
6
CONTINUOUS
10
138.3499999999999943
20
-93.
11
140.8499999999999943
21
-93.
0
LINE
8
BLACK
6
CONTINUOUS
10
140.8499999999999943
20
-93.
11
141.2928939999999898
21
-93.
0
LINE
8
BLACK
6
CONTINUOUS
10
141.2928939999999898
20
-93.
11
142.994938999999988
21
-91.2979539999999901
0
LINE
8
BLACK
6
CONTINUOUS
10
142.994938999999988
20
-91.2979539999999901
11
142.931239000000005
21
-91.2516729999999967
0
LINE
8
BLACK
6
CONTINUOUS
10
142.931239000000005
20
-91.2516729999999967
11
142.8123359999999877
21
-91.119616999999991
0
LINE
8
BLACK
6
CONTINUOUS
10
142.8123359999999877
20
-91.119616999999991
11
142.7234859999999799
21
-90.9657259999999894
0
LINE
8
BLACK
6
CONTINUOUS
10
142.7234859999999799
20
-90.9657259999999894
11
142.6685750000000041
21
-90.796724999999995
0
LINE
8
BLACK
6
CONTINUOUS
10
142.6685750000000041
20
-90.796724999999995
11
142.6500000000000057
21
-90.6199999999999903
0
LINE
8
BLACK
6
CONTINUOUS
10
142.6500000000000057
20
-90.6199999999999903
11
142.6685750000000041
21
-90.4432749999999999
0
LINE
8
BLACK
6
CONTINUOUS
10
142.6685750000000041
20
-90.4432749999999999
11
142.7234859999999799
21
-90.2742739999999912
0
LINE
8
BLACK
6
CONTINUOUS
10
142.7234859999999799
20
-90.2742739999999912
11
142.8123359999999877
21
-90.1203829999999897
0
LINE
8
BLACK
6
CONTINUOUS
10
142.8123359999999877
20
-90.1203829999999897
11
142.931239000000005
21
-89.9883269999999982
0
LINE
8
BLACK
6
CONTINUOUS
10
142.931239000000005
20
-89.9883269999999982
11
143.0749999999999886
21
-89.8838779999999957
0
LINE
8
BLACK
6
CONTINUOUS
10
143.0749999999999886
20
-89.8838779999999957
11
143.2373359999999991
21
-89.8116019999999935
0
LINE
8
BLACK
6
CONTINUOUS
10
143.2373359999999991
20
-89.8116019999999935
11
143.4111509999999896
21
-89.7746559999999931
0
LINE
8
BLACK
6
CONTINUOUS
10
143.4111509999999896
20
-89.7746559999999931
11
143.588848999999982
21
-89.7746559999999931
0
LINE
8
BLACK
6
CONTINUOUS
10
143.588848999999982
20
-89.7746559999999931
11
143.7626640000000009
21
-89.8116019999999935
0
LINE
8
BLACK
6
CONTINUOUS
10
124.3999999999999915
20
-89.
11
125.6499999999999915
21
-89.
0
LINE
8
BLACK
6
CONTINUOUS
10
125.6499999999999915
20
-89.
11
125.6499999999999915
21
-90.
0
LINE
8
BLACK
6
CONTINUOUS
10
125.6499999999999915
20
-90.
11
123.1499999999999915
21
-90.
0
LINE
8
BLACK
6
CONTINUOUS
10
123.1499999999999915
20
-90.
11
122.707105999999996
21
-90.
0
LINE
8
BLACK
6
CONTINUOUS
10
122.707105999999996
20
-90.
11
120.3535529999999909
21
-92.3535529999999909
0
LINE
8
BLACK
6
CONTINUOUS
10
120.3535529999999909
20
-92.3535529999999909
11
120.304395999999997
21
-92.3966609999999946
0
LINE
8
BLACK
6
CONTINUOUS
10
120.304395999999997
20
-92.3966609999999946
11
120.3043809999999922
21
-92.3966769999999968
0
LINE
8
BLACK
6
CONTINUOUS
10
120.3043809999999922
20
-92.3966769999999968
11
120.1913419999999917
21
-92.4619399999999985
0
LINE
8
BLACK
6
CONTINUOUS
10
120.1913419999999917
20
-92.4619399999999985
11
120.0652630000000016
21
-92.4957229999999981
0
LINE
8
BLACK
6
CONTINUOUS
10
120.0652630000000016
20
-92.4957229999999981
11
120.0652479999999969
21
-92.4957229999999981
0
LINE
8
BLACK
6
CONTINUOUS
10
120.0652479999999969
20
-92.4957229999999981
11
120.
21
-92.5
0
LINE
8
BLACK
6
CONTINUOUS
10
120.
20
-92.5
11
117.6650549999999953
21
-92.5
0
LINE
8
BLACK
6
CONTINUOUS
10
117.6650549999999953
20
-92.5
11
117.6559699999999964
21
-92.5456709999999987
0
LINE
8
BLACK
6
CONTINUOUS
10
117.6559699999999964
20
-92.5456709999999987
11
117.6017769999999985
21
-92.6267769999999899
0
LINE
8
BLACK
6
CONTINUOUS
10
117.6017769999999985
20
-92.6267769999999899
11
117.520670999999993
21
-92.6809700000000021
0
LINE
8
BLACK
6
CONTINUOUS
10
117.520670999999993
20
-92.6809700000000021
11
117.4249999999999972
21
-92.6999989999999912
0
LINE
8
BLACK
6
CONTINUOUS
10
117.4249999999999972
20
-92.6999989999999912
11
114.5749989999999912
21
-92.7000000000000028
0
LINE
8
BLACK
6
CONTINUOUS
10
114.5749989999999912
20
-92.7000000000000028
11
114.4793289999999928
21
-92.6809700000000021
0
LINE
8
BLACK
6
CONTINUOUS
10
114.4793289999999928
20
-92.6809700000000021
11
114.3982230000000015
21
-92.6267769999999899
0
LINE
8
BLACK
6
CONTINUOUS
10
114.3982230000000015
20
-92.6267769999999899
11
114.3440299999999894
21
-92.5456709999999987
0
LINE
8
BLACK
6
CONTINUOUS
10
114.3440299999999894
20
-92.5456709999999987
11
114.3250010000000003
21
-92.4500000000000028
0
LINE
8
BLACK
6
CONTINUOUS
10
114.3250010000000003
20
-92.4500000000000028
11
114.3249999999999886
21
-91.5499989999999997
0
LINE
8
BLACK
6
CONTINUOUS
10
114.3249999999999886
20
-91.5499989999999997
11
114.3440299999999894
21
-91.4543290000000013
0
LINE
8
BLACK
6
CONTINUOUS
10
114.3440299999999894
20
-91.4543290000000013
11
114.3982230000000015
21
-91.3732229999999959
0
LINE
8
BLACK
6
CONTINUOUS
10
114.3982230000000015
20
-91.3732229999999959
11
114.4793289999999928
21
-91.3190299999999979
0
LINE
8
BLACK
6
CONTINUOUS
10
114.4793289999999928
20
-91.3190299999999979
11
114.5749999999999886
21
-91.3000009999999946
0
LINE
8
BLACK
6
CONTINUOUS
10
114.5749999999999886
20
-91.3000009999999946
11
117.4250009999999946
21
-91.2999999999999972
0
LINE
8
BLACK
6
CONTINUOUS
10
117.4250009999999946
20
-91.2999999999999972
11
117.520670999999993
21
-91.3190299999999979
0
LINE
8
BLACK
6
CONTINUOUS
10
117.520670999999993
20
-91.3190299999999979
11
117.6017769999999985
21
-91.3732229999999959
0
LINE
8
BLACK
6
CONTINUOUS
10
117.6017769999999985
20
-91.3732229999999959
11
117.6559699999999964
21
-91.4543290000000013
0
LINE
8
BLACK
6
CONTINUOUS
10
117.6559699999999964
20
-91.4543290000000013
11
117.6650539999999978
21
-91.5
0
LINE
8
BLACK
6
CONTINUOUS
10
117.6650539999999978
20
-91.5
11
119.7928939999999898
21
-91.5
0
LINE
8
BLACK
6
CONTINUOUS
10
119.7928939999999898
20
-91.5
11
122.1464469999999949
21
-89.1464469999999949
0
LINE
8
BLACK
6
CONTINUOUS
10
122.1464469999999949
20
-89.1464469999999949
11
122.1956029999999913
21
-89.1033379999999937
0
LINE
8
BLACK
6
CONTINUOUS
10
122.1956029999999913
20
-89.1033379999999937
11
122.1956189999999935
21
-89.103322999999989
0
LINE
8
BLACK
6
CONTINUOUS
10
122.1956189999999935
20
-89.103322999999989
11
122.3086579999999941
21
-89.0380600000000015
0
LINE
8
BLACK
6
CONTINUOUS
10
122.3086579999999941
20
-89.0380600000000015
11
122.4347369999999984
21
-89.0042770000000019
0
LINE
8
BLACK
6
CONTINUOUS
10
122.4347369999999984
20
-89.0042770000000019
11
122.4347519999999889
21
-89.0042770000000019
0
LINE
8
BLACK
6
CONTINUOUS
10
122.4347519999999889
20
-89.0042770000000019
11
122.5
21
-89.
0
LINE
8
BLACK
6
CONTINUOUS
10
122.5
20
-89.
11
124.3999999999999915
21
-89.
0
LINE
8
BLACK
6
CONTINUOUS
10
125.6499999999999915
20
-92.
11
123.1499999999999915
21
-92.
0
LINE
8
BLACK
6
CONTINUOUS
10
123.1499999999999915
20
-92.
11
123.1499999999999915
21
-91.
0
LINE
8
BLACK
6
CONTINUOUS
10
123.1499999999999915
20
-91.
11
125.6499999999999915
21
-91.
0
LINE
8
BLACK
6
CONTINUOUS
10
125.6499999999999915
20
-91.
11
125.6499999999999915
21
-92.
0
LINE
8
BLACK
6
CONTINUOUS
10
140.8499999999999943
20
-92.
11
138.3499999999999943
21
-92.
0
LINE
8
BLACK
6
CONTINUOUS
10
138.3499999999999943
20
-92.
11
138.3499999999999943
21
-91.
0
LINE
8
BLACK
6
CONTINUOUS
10
138.3499999999999943
20
-91.
11
140.8499999999999943
21
-91.
0
LINE
8
BLACK
6
CONTINUOUS
10
140.8499999999999943
20
-91.
11
140.8499999999999943
21
-92.
0
LINE
8
BLACK
6
CONTINUOUS
10
119.5956709999999958
20
-82.3440299999999894
11
119.6767770000000013
21
-82.3982230000000015
0
LINE
8
BLACK
6
CONTINUOUS
10
119.6767770000000013
20
-82.3982230000000015
11
119.7309699999999992
21
-82.4793289999999928
0
LINE
8
BLACK
6
CONTINUOUS
10
119.7309699999999992
20
-82.4793289999999928
11
119.7499989999999883
21
-82.5750000000000028
0
LINE
8
BLACK
6
CONTINUOUS
10
119.7499989999999883
20
-82.5750000000000028
11
119.75
21
-85.4250009999999946
0
LINE
8
BLACK
6
CONTINUOUS
10
119.75
20
-85.4250009999999946
11
119.7309699999999992
21
-85.520670999999993
0
LINE
8
BLACK
6
CONTINUOUS
10
119.7309699999999992
20
-85.520670999999993
11
119.6767770000000013
21
-85.6017769999999985
0
LINE
8
BLACK
6
CONTINUOUS
10
119.6767770000000013
20
-85.6017769999999985
11
119.5956709999999958
21
-85.6559699999999964
0
LINE
8
BLACK
6
CONTINUOUS
10
119.5956709999999958
20
-85.6559699999999964
11
119.5499999999999972
21
-85.6650530000000003
0
LINE
8
BLACK
6
CONTINUOUS
10
119.5499999999999972
20
-85.6650530000000003
11
119.5499999999999972
21
-86.8349449999999905
0
LINE
8
BLACK
6
CONTINUOUS
10
119.5499999999999972
20
-86.8349449999999905
11
119.5956709999999958
21
-86.8440299999999894
0
LINE
8
BLACK
6
CONTINUOUS
10
119.5956709999999958
20
-86.8440299999999894
11
119.6767770000000013
21
-86.8982230000000015
0
LINE
8
BLACK
6
CONTINUOUS
10
119.6767770000000013
20
-86.8982230000000015
11
119.7309699999999992
21
-86.9793289999999928
0
LINE
8
BLACK
6
CONTINUOUS
10
119.7309699999999992
20
-86.9793289999999928
11
119.7499989999999883
21
-87.0750000000000028
0
LINE
8
BLACK
6
CONTINUOUS
10
119.7499989999999883
20
-87.0750000000000028
11
119.7499989999999883
21
-87.1007939999999934
0
LINE
8
BLACK
6
CONTINUOUS
10
119.7499989999999883
20
-87.1007939999999934
11
119.8586579999999913
21
-87.0380600000000015
0
LINE
8
BLACK
6
CONTINUOUS
10
119.8586579999999913
20
-87.0380600000000015
11
119.8853009999999983
21
-87.0309199999999947
0
LINE
8
BLACK
6
CONTINUOUS
10
119.8853009999999983
20
-87.0309199999999947
11
119.9847369999999955
21
-87.0042770000000019
0
LINE
8
BLACK
6
CONTINUOUS
10
119.9847369999999955
20
-87.0042770000000019
11
119.9847520000000003
21
-87.0042770000000019
0
LINE
8
BLACK
6
CONTINUOUS
10
119.9847520000000003
20
-87.0042770000000019
11
120.0499999999999972
21
-87.
0
LINE
8
BLACK
6
CONTINUOUS
10
120.0499999999999972
20
-87.
11
124.3999999999999915
21
-87.
0
LINE
8
BLACK
6
CONTINUOUS
10
124.3999999999999915
20
-87.
11
125.6499999999999915
21
-87.
0
LINE
8
BLACK
6
CONTINUOUS
10
125.6499999999999915
20
-87.
11
125.6499999999999915
21
-88.
0
LINE
8
BLACK
6
CONTINUOUS
10
125.6499999999999915
20
-88.
11
123.1499999999999915
21
-88.
0
LINE
8
BLACK
6
CONTINUOUS
10
123.1499999999999915
20
-88.
11
120.2571069999999906
21
-88.
0
LINE
8
BLACK
6
CONTINUOUS
10
120.2571069999999906
20
-88.
11
119.7499989999999883
21
-88.5071059999999932
0
LINE
8
BLACK
6
CONTINUOUS
10
119.7499989999999883
20
-88.5071059999999932
11
119.75
21
-89.9250009999999946
0
LINE
8
BLACK
6
CONTINUOUS
10
119.75
20
-89.9250009999999946
11
119.7309699999999992
21
-90.020670999999993
0
LINE
8
BLACK
6
CONTINUOUS
10
119.7309699999999992
20
-90.020670999999993
11
119.6767770000000013
21
-90.1017769999999985
0
LINE
8
BLACK
6
CONTINUOUS
10
119.6767770000000013
20
-90.1017769999999985
11
119.5956709999999958
21
-90.1559699999999964
0
LINE
8
BLACK
6
CONTINUOUS
10
119.5956709999999958
20
-90.1559699999999964
11
119.5
21
-90.1749989999999997
0
LINE
8
BLACK
6
CONTINUOUS
10
119.5
20
-90.1749989999999997
11
118.5999989999999968
21
-90.1749999999999972
0
LINE
8
BLACK
6
CONTINUOUS
10
118.5999989999999968
20
-90.1749999999999972
11
118.5043289999999985
21
-90.1559699999999964
0
LINE
8
BLACK
6
CONTINUOUS
10
118.5043289999999985
20
-90.1559699999999964
11
118.423222999999993
21
-90.1017769999999985
0
LINE
8
BLACK
6
CONTINUOUS
10
118.423222999999993
20
-90.1017769999999985
11
118.3690299999999951
21
-90.020670999999993
0
LINE
8
BLACK
6
CONTINUOUS
10
118.3690299999999951
20
-90.020670999999993
11
118.3500009999999918
21
-89.9249999999999972
0
LINE
8
BLACK
6
CONTINUOUS
10
118.3500009999999918
20
-89.9249999999999972
11
118.3499999999999943
21
-87.0749989999999912
0
LINE
8
BLACK
6
CONTINUOUS
10
118.3499999999999943
20
-87.0749989999999912
11
118.3690299999999951
21
-86.9793289999999928
0
LINE
8
BLACK
6
CONTINUOUS
10
118.3690299999999951
20
-86.9793289999999928
11
118.423222999999993
21
-86.8982230000000015
0
LINE
8
BLACK
6
CONTINUOUS
10
118.423222999999993
20
-86.8982230000000015
11
118.5043289999999985
21
-86.8440299999999894
0
LINE
8
BLACK
6
CONTINUOUS
10
118.5043289999999985
20
-86.8440299999999894
11
118.5499999999999972
21
-86.8349460000000022
0
LINE
8
BLACK
6
CONTINUOUS
10
118.5499999999999972
20
-86.8349460000000022
11
118.5499999999999972
21
-85.6650539999999978
0
LINE
8
BLACK
6
CONTINUOUS
10
118.5499999999999972
20
-85.6650539999999978
11
118.5043289999999985
21
-85.6559699999999964
0
LINE
8
BLACK
6
CONTINUOUS
10
118.5043289999999985
20
-85.6559699999999964
11
118.423222999999993
21
-85.6017769999999985
0
LINE
8
BLACK
6
CONTINUOUS
10
118.423222999999993
20
-85.6017769999999985
11
118.3690299999999951
21
-85.520670999999993
0
LINE
8
BLACK
6
CONTINUOUS
10
118.3690299999999951
20
-85.520670999999993
11
118.3500009999999918
21
-85.4249999999999972
0
LINE
8
BLACK
6
CONTINUOUS
10
118.3500009999999918
20
-85.4249999999999972
11
118.3499999999999943
21
-82.5749989999999912
0
LINE
8
BLACK
6
CONTINUOUS
10
118.3499999999999943
20
-82.5749989999999912
11
118.3690299999999951
21
-82.4793289999999928
0
LINE
8
BLACK
6
CONTINUOUS
10
118.3690299999999951
20
-82.4793289999999928
11
118.423222999999993
21
-82.3982230000000015
0
LINE
8
BLACK
6
CONTINUOUS
10
118.423222999999993
20
-82.3982230000000015
11
118.5043289999999985
21
-82.3440299999999894
0
LINE
8
BLACK
6
CONTINUOUS
10
118.5043289999999985
20
-82.3440299999999894
11
118.5999999999999943
21
-82.3250010000000003
0
LINE
8
BLACK
6
CONTINUOUS
10
118.5999999999999943
20
-82.3250010000000003
11
119.5000009999999975
21
-82.3250000000000028
0
LINE
8
BLACK
6
CONTINUOUS
10
119.5000009999999975
20
-82.3250000000000028
11
119.5956709999999958
21
-82.3440299999999894
0
LINE
8
BLACK
6
CONTINUOUS
10
140.8499999999999943
20
-90.
11
138.3499999999999943
21
-90.
0
LINE
8
BLACK
6
CONTINUOUS
10
138.3499999999999943
20
-90.
11
138.3499999999999943
21
-89.
0
LINE
8
BLACK
6
CONTINUOUS
10
138.3499999999999943
20
-89.
11
140.8499999999999943
21
-89.
0
LINE
8
BLACK
6
CONTINUOUS
10
140.8499999999999943
20
-89.
11
140.8499999999999943
21
-90.
0
LINE
8
BLACK
6
CONTINUOUS
10
140.8499999999999943
20
-87.
11
141.039999999999992
21
-87.
0
LINE
8
BLACK
6
CONTINUOUS
10
141.039999999999992
20
-87.
11
141.1052479999999889
21
-87.0042770000000019
0
LINE
8
BLACK
6
CONTINUOUS
10
141.1052479999999889
20
-87.0042770000000019
11
141.1052629999999795
21
-87.0042770000000019
0
LINE
8
BLACK
6
CONTINUOUS
10
141.1052629999999795
20
-87.0042770000000019
11
141.2313419999999837
21
-87.0380600000000015
0
LINE
8
BLACK
6
CONTINUOUS
10
141.2313419999999837
20
-87.0380600000000015
11
141.3443809999999985
21
-87.1033230000000032
0
LINE
8
BLACK
6
CONTINUOUS
10
141.3443809999999985
20
-87.1033230000000032
11
141.344395999999989
21
-87.1033379999999937
0
LINE
8
BLACK
6
CONTINUOUS
10
141.344395999999989
20
-87.1033379999999937
11
141.3935529999999972
21
-87.1464469999999949
0
LINE
8
BLACK
6
CONTINUOUS
10
141.3935529999999972
20
-87.1464469999999949
11
141.8271059999999864
21
-87.5799990000000008
0
LINE
8
BLACK
6
CONTINUOUS
10
141.8271059999999864
20
-87.5799990000000008
11
142.8126809999999978
21
-87.5799990000000008
0
LINE
8
BLACK
6
CONTINUOUS
10
142.8126809999999978
20
-87.5799990000000008
11
142.931239000000005
21
-87.4483259999999945
0
LINE
8
BLACK
6
CONTINUOUS
10
142.931239000000005
20
-87.4483259999999945
11
143.0749999999999886
21
-87.343876999999992
0
LINE
8
BLACK
6
CONTINUOUS
10
143.0749999999999886
20
-87.343876999999992
11
143.2373359999999991
21
-87.2716009999999898
0
LINE
8
BLACK
6
CONTINUOUS
10
143.2373359999999991
20
-87.2716009999999898
11
143.4111509999999896
21
-87.2346549999999894
0
LINE
8
BLACK
6
CONTINUOUS
10
143.4111509999999896
20
-87.2346549999999894
11
143.588848999999982
21
-87.2346549999999894
0
LINE
8
BLACK
6
CONTINUOUS
10
143.588848999999982
20
-87.2346549999999894
11
143.7626640000000009
21
-87.2716009999999898
0
LINE
8
BLACK
6
CONTINUOUS
10
143.7626640000000009
20
-87.2716009999999898
11
143.9249999999999829
21
-87.343876999999992
0
LINE
8
BLACK
6
CONTINUOUS
10
143.9249999999999829
20
-87.343876999999992
11
144.068760999999995
21
-87.4483259999999945
0
LINE
8
BLACK
6
CONTINUOUS
10
144.068760999999995
20
-87.4483259999999945
11
144.1876639999999838
21
-87.5803820000000002
0
LINE
8
BLACK
6
CONTINUOUS
10
144.1876639999999838
20
-87.5803820000000002
11
144.2765139999999917
21
-87.7342730000000017
0
LINE
8
BLACK
6
CONTINUOUS
10
144.2765139999999917
20
-87.7342730000000017
11
144.3314249999999959
21
-87.9032739999999961
0
LINE
8
BLACK
6
CONTINUOUS
10
144.3314249999999959
20
-87.9032739999999961
11
144.3499999999999943
21
-88.0799990000000008
0
LINE
8
BLACK
6
CONTINUOUS
10
144.3499999999999943
20
-88.0799990000000008
11
144.3314249999999959
21
-88.2567239999999913
0
LINE
8
BLACK
6
CONTINUOUS
10
144.3314249999999959
20
-88.2567239999999913
11
144.2765139999999917
21
-88.4257249999999999
0
LINE
8
BLACK
6
CONTINUOUS
10
144.2765139999999917
20
-88.4257249999999999
11
144.1876639999999838
21
-88.5796160000000015
0
LINE
8
BLACK
6
CONTINUOUS
10
144.1876639999999838
20
-88.5796160000000015
11
144.068760999999995
21
-88.711671999999993
0
LINE
8
BLACK
6
CONTINUOUS
10
144.068760999999995
20
-88.711671999999993
11
143.9249999999999829
21
-88.8161209999999954
0
LINE
8
BLACK
6
CONTINUOUS
10
143.9249999999999829
20
-88.8161209999999954
11
143.7626640000000009
21
-88.8883969999999977
0
LINE
8
BLACK
6
CONTINUOUS
10
143.7626640000000009
20
-88.8883969999999977
11
143.588848999999982
21
-88.925342999999998
0
LINE
8
BLACK
6
CONTINUOUS
10
143.588848999999982
20
-88.925342999999998
11
143.4111509999999896
21
-88.925342999999998
0
LINE
8
BLACK
6
CONTINUOUS
10
143.4111509999999896
20
-88.925342999999998
11
143.2373359999999991
21
-88.8883969999999977
0
LINE
8
BLACK
6
CONTINUOUS
10
143.2373359999999991
20
-88.8883969999999977
11
143.0749999999999886
21
-88.8161209999999954
0
LINE
8
BLACK
6
CONTINUOUS
10
143.0749999999999886
20
-88.8161209999999954
11
142.931239000000005
21
-88.711671999999993
0
LINE
8
BLACK
6
CONTINUOUS
10
142.931239000000005
20
-88.711671999999993
11
142.8126809999999978
21
-88.5799990000000008
0
LINE
8
BLACK
6
CONTINUOUS
10
142.8126809999999978
20
-88.5799990000000008
11
141.6199990000000071
21
-88.5799990000000008
0
LINE
8
BLACK
6
CONTINUOUS
10
141.6199990000000071
20
-88.5799990000000008
11
141.5547509999999818
21
-88.575721999999999
0
LINE
8
BLACK
6
CONTINUOUS
10
141.5547509999999818
20
-88.575721999999999
11
141.5547359999999912
21
-88.575721999999999
0
LINE
8
BLACK
6
CONTINUOUS
10
141.5547359999999912
20
-88.575721999999999
11
141.428656999999987
21
-88.5419389999999993
0
LINE
8
BLACK
6
CONTINUOUS
10
141.428656999999987
20
-88.5419389999999993
11
141.3156180000000006
21
-88.4766759999999977
0
LINE
8
BLACK
6
CONTINUOUS
10
141.3156180000000006
20
-88.4766759999999977
11
141.3156089999999949
21
-88.476666999999992
0
LINE
8
BLACK
6
CONTINUOUS
10
141.3156089999999949
20
-88.476666999999992
11
141.2664450000000045
21
-88.4335519999999917
0
LINE
8
BLACK
6
CONTINUOUS
10
141.2664450000000045
20
-88.4335519999999917
11
140.8328939999999818
21
-88.
0
LINE
8
BLACK
6
CONTINUOUS
10
140.8328939999999818
20
-88.
11
139.5999999999999943
21
-88.
0
LINE
8
BLACK
6
CONTINUOUS
10
139.5999999999999943
20
-88.
11
138.3499999999999943
21
-88.
0
LINE
8
BLACK
6
CONTINUOUS
10
138.3499999999999943
20
-88.
11
138.3499999999999943
21
-87.
0
LINE
8
BLACK
6
CONTINUOUS
10
138.3499999999999943
20
-87.
11
140.8499999999999943
21
-87.
0
LINE
8
BLACK
6
CONTINUOUS
10
143.7626640000000009
20
-84.7316019999999952
11
143.9249999999999829
21
-84.8038779999999974
0
LINE
8
BLACK
6
CONTINUOUS
10
143.9249999999999829
20
-84.8038779999999974
11
144.068760999999995
21
-84.9083269999999999
0
LINE
8
BLACK
6
CONTINUOUS
10
144.068760999999995
20
-84.9083269999999999
11
144.1876639999999838
21
-85.0403829999999914
0
LINE
8
BLACK
6
CONTINUOUS
10
144.1876639999999838
20
-85.0403829999999914
11
144.2765139999999917
21
-85.194273999999993
0
LINE
8
BLACK
6
CONTINUOUS
10
144.2765139999999917
20
-85.194273999999993
11
144.3314249999999959
21
-85.3632750000000016
0
LINE
8
BLACK
6
CONTINUOUS
10
144.3314249999999959
20
-85.3632750000000016
11
144.3499999999999943
21
-85.539999999999992
0
LINE
8
BLACK
6
CONTINUOUS
10
144.3499999999999943
20
-85.539999999999992
11
144.3314249999999959
21
-85.7167249999999967
0
LINE
8
BLACK
6
CONTINUOUS
10
144.3314249999999959
20
-85.7167249999999967
11
144.2765139999999917
21
-85.8857259999999911
0
LINE
8
BLACK
6
CONTINUOUS
10
144.2765139999999917
20
-85.8857259999999911
11
144.1876639999999838
21
-86.0396169999999927
0
LINE
8
BLACK
6
CONTINUOUS
10
144.1876639999999838
20
-86.0396169999999927
11
144.068760999999995
21
-86.1716729999999984
0
LINE
8
BLACK
6
CONTINUOUS
10
144.068760999999995
20
-86.1716729999999984
11
143.9249999999999829
21
-86.2761220000000009
0
LINE
8
BLACK
6
CONTINUOUS
10
143.9249999999999829
20
-86.2761220000000009
11
143.7626640000000009
21
-86.3483980000000031
0
LINE
8
BLACK
6
CONTINUOUS
10
143.7626640000000009
20
-86.3483980000000031
11
143.588848999999982
21
-86.3853439999999893
0
LINE
8
BLACK
6
CONTINUOUS
10
143.588848999999982
20
-86.3853439999999893
11
143.4111509999999896
21
-86.3853439999999893
0
LINE
8
BLACK
6
CONTINUOUS
10
143.4111509999999896
20
-86.3853439999999893
11
143.2373359999999991
21
-86.3483980000000031
0
LINE
8
BLACK
6
CONTINUOUS
10
143.2373359999999991
20
-86.3483980000000031
11
143.0749999999999886
21
-86.2761220000000009
0
LINE
8
BLACK
6
CONTINUOUS
10
143.0749999999999886
20
-86.2761220000000009
11
142.931239000000005
21
-86.1716729999999984
0
LINE
8
BLACK
6
CONTINUOUS
10
142.931239000000005
20
-86.1716729999999984
11
142.8123359999999877
21
-86.0396169999999927
0
LINE
8
BLACK
6
CONTINUOUS
10
142.8123359999999877
20
-86.0396169999999927
11
142.7894629999999836
21
-86.
0
LINE
8
BLACK
6
CONTINUOUS
10
142.7894629999999836
20
-86.
11
139.5999999999999943
21
-86.
0
LINE
8
BLACK
6
CONTINUOUS
10
139.5999999999999943
20
-86.
11
138.3499999999999943
21
-86.
0
LINE
8
BLACK
6
CONTINUOUS
10
138.3499999999999943
20
-86.
11
138.3499999999999943
21
-85.
0
LINE
8
BLACK
6
CONTINUOUS
10
138.3499999999999943
20
-85.
11
140.8499999999999943
21
-85.
0
LINE
8
BLACK
6
CONTINUOUS
10
140.8499999999999943
20
-85.
11
142.8486969999999872
21
-85.
0
LINE
8
BLACK
6
CONTINUOUS
10
142.8486969999999872
20
-85.
11
142.931239000000005
21
-84.9083269999999999
0
LINE
8
BLACK
6
CONTINUOUS
10
142.931239000000005
20
-84.9083269999999999
11
143.0749999999999886
21
-84.8038779999999974
0
LINE
8
BLACK
6
CONTINUOUS
10
143.0749999999999886
20
-84.8038779999999974
11
143.2373359999999991
21
-84.7316019999999952
0
LINE
8
BLACK
6
CONTINUOUS
10
143.2373359999999991
20
-84.7316019999999952
11
143.4111509999999896
21
-84.6946559999999948
0
LINE
8
BLACK
6
CONTINUOUS
10
143.4111509999999896
20
-84.6946559999999948
11
143.588848999999982
21
-84.6946559999999948
0
LINE
8
BLACK
6
CONTINUOUS
10
143.588848999999982
20
-84.6946559999999948
11
143.7626640000000009
21
-84.7316019999999952
0
LINE
8
BLACK
6
CONTINUOUS
10
142.5652479999999969
20
-75.0042770000000019
11
142.5652629999999874
21
-75.0042770000000019
0
LINE
8
BLACK
6
CONTINUOUS
10
142.5652629999999874
20
-75.0042770000000019
11
142.6913419999999917
21
-75.0380600000000015
0
LINE
8
BLACK
6
CONTINUOUS
10
142.6913419999999917
20
-75.0380600000000015
11
142.8043810000000065
21
-75.1033230000000032
0
LINE
8
BLACK
6
CONTINUOUS
10
142.8043810000000065
20
-75.1033230000000032
11
142.804395999999997
21
-75.1033379999999937
0
LINE
8
BLACK
6
CONTINUOUS
10
142.804395999999997
20
-75.1033379999999937
11
142.8535530000000051
21
-75.1464469999999949
0
LINE
8
BLACK
6
CONTINUOUS
10
142.8535530000000051
20
-75.1464469999999949
11
143.8535540000000026
21
-76.1464469999999949
0
LINE
8
BLACK
6
CONTINUOUS
10
143.8535540000000026
20
-76.1464469999999949
11
143.8966690000000028
21
-76.1956109999999995
0
LINE
8
BLACK
6
CONTINUOUS
10
143.8966690000000028
20
-76.1956109999999995
11
143.8966769999999826
21
-76.1956189999999935
0
LINE
8
BLACK
6
CONTINUOUS
10
143.8966769999999826
20
-76.1956189999999935
11
143.9619399999999985
21
-76.3086579999999941
0
LINE
8
BLACK
6
CONTINUOUS
10
143.9619399999999985
20
-76.3086579999999941
11
143.9619399999999985
21
-76.3086589999999916
0
LINE
8
BLACK
6
CONTINUOUS
10
143.9619399999999985
20
-76.3086589999999916
11
143.9957229999999981
21
-76.4347369999999984
0
LINE
8
BLACK
6
CONTINUOUS
10
143.9957229999999981
20
-76.4347369999999984
11
143.9957229999999981
21
-76.4347520000000031
0
LINE
8
BLACK
6
CONTINUOUS
10
143.9957229999999981
20
-76.4347520000000031
11
144.
21
-76.5
0
LINE
8
BLACK
6
CONTINUOUS
10
144.
20
-76.5
11
144.
21
-82.1499999999999915
0
LINE
8
BLACK
6
CONTINUOUS
10
144.
20
-82.1499999999999915
11
144.3499999999999943
21
-82.1499999999999915
0
LINE
8
BLACK
6
CONTINUOUS
10
144.3499999999999943
20
-82.1499999999999915
11
144.3499999999999943
21
-83.8499999999999943
0
LINE
8
BLACK
6
CONTINUOUS
10
144.3499999999999943
20
-83.8499999999999943
11
142.6500000000000057
21
-83.8499999999999943
0
LINE
8
BLACK
6
CONTINUOUS
10
142.6500000000000057
20
-83.8499999999999943
11
142.6500000000000057
21
-82.1499999999999915
0
LINE
8
BLACK
6
CONTINUOUS
10
142.6500000000000057
20
-82.1499999999999915
11
143.
21
-82.1499999999999915
0
LINE
8
BLACK
6
CONTINUOUS
10
143.
20
-82.1499999999999915
11
143.
21
-76.707105999999996
0
LINE
8
BLACK
6
CONTINUOUS
10
143.
20
-76.707105999999996
11
142.2928939999999898
21
-76.
0
LINE
8
BLACK
6
CONTINUOUS
10
142.2928939999999898
20
-76.
11
122.7071069999999935
21
-76.
0
LINE
8
BLACK
6
CONTINUOUS
10
122.7071069999999935
20
-76.
11
122.
21
-76.707105999999996
0
LINE
8
BLACK
6
CONTINUOUS
10
122.
20
-76.707105999999996
11
122.
21
-84.7928929999999923
0
LINE
8
BLACK
6
CONTINUOUS
10
122.
20
-84.7928929999999923
11
122.2071069999999935
21
-85.
0
LINE
8
BLACK
6
CONTINUOUS
10
122.2071069999999935
20
-85.
11
124.3999999999999915
21
-85.
0
LINE
8
BLACK
6
CONTINUOUS
10
124.3999999999999915
20
-85.
11
125.6499999999999915
21
-85.
0
LINE
8
BLACK
6
CONTINUOUS
10
125.6499999999999915
20
-85.
11
125.6499999999999915
21
-86.
0
LINE
8
BLACK
6
CONTINUOUS
10
125.6499999999999915
20
-86.
11
123.1499999999999915
21
-86.
0
LINE
8
BLACK
6
CONTINUOUS
10
123.1499999999999915
20
-86.
11
122.
21
-86.
0
LINE
8
BLACK
6
CONTINUOUS
10
122.
20
-86.
11
121.9347519999999889
21
-85.9957229999999981
0
LINE
8
BLACK
6
CONTINUOUS
10
121.9347519999999889
20
-85.9957229999999981
11
121.9347369999999984
21
-85.9957229999999981
0
LINE
8
BLACK
6
CONTINUOUS
10
121.9347369999999984
20
-85.9957229999999981
11
121.8086579999999941
21
-85.9619399999999985
0
LINE
8
BLACK
6
CONTINUOUS
10
121.8086579999999941
20
-85.9619399999999985
11
121.6956189999999935
21
-85.8966769999999968
0
LINE
8
BLACK
6
CONTINUOUS
10
121.6956189999999935
20
-85.8966769999999968
11
121.6956029999999913
21
-85.8966609999999946
0
LINE
8
BLACK
6
CONTINUOUS
10
121.6956029999999913
20
-85.8966609999999946
11
121.6464469999999949
21
-85.8535540000000026
0
LINE
8
BLACK
6
CONTINUOUS
10
121.6464469999999949
20
-85.8535540000000026
11
121.1464469999999949
21
-85.3535529999999909
0
LINE
8
BLACK
6
CONTINUOUS
10
121.1464469999999949
20
-85.3535529999999909
11
121.1033379999999937
21
-85.304395999999997
0
LINE
8
BLACK
6
CONTINUOUS
10
121.1033379999999937
20
-85.304395999999997
11
121.103322999999989
21
-85.3043809999999922
0
LINE
8
BLACK
6
CONTINUOUS
10
121.103322999999989
20
-85.3043809999999922
11
121.0380600000000015
21
-85.1913419999999917
0
LINE
8
BLACK
6
CONTINUOUS
10
121.0380600000000015
20
-85.1913419999999917
11
121.0367479999999887
21
-85.1864470000000011
0
LINE
8
BLACK
6
CONTINUOUS
10
121.0367479999999887
20
-85.1864470000000011
11
121.0042769999999877
21
-85.0652630000000016
0
LINE
8
BLACK
6
CONTINUOUS
10
121.0042769999999877
20
-85.0652630000000016
11
121.0042769999999877
21
-85.0652469999999994
0
LINE
8
BLACK
6
CONTINUOUS
10
121.0042769999999877
20
-85.0652469999999994
11
121.
21
-85.
0
LINE
8
BLACK
6
CONTINUOUS
10
121.
20
-85.
11
121.
21
-76.5
0
LINE
8
BLACK
6
CONTINUOUS
10
121.
20
-76.5
11
121.0042769999999877
21
-76.4347520000000031
0
LINE
8
BLACK
6
CONTINUOUS
10
121.0042769999999877
20
-76.4347520000000031
11
121.0042769999999877
21
-76.4347369999999984
0
LINE
8
BLACK
6
CONTINUOUS
10
121.0042769999999877
20
-76.4347369999999984
11
121.0380600000000015
21
-76.3086579999999941
0
LINE
8
BLACK
6
CONTINUOUS
10
121.0380600000000015
20
-76.3086579999999941
11
121.103322999999989
21
-76.1956189999999935
0
LINE
8
BLACK
6
CONTINUOUS
10
121.103322999999989
20
-76.1956189999999935
11
121.1033379999999937
21
-76.1956029999999913
0
LINE
8
BLACK
6
CONTINUOUS
10
121.1033379999999937
20
-76.1956029999999913
11
121.1464469999999949
21
-76.1464469999999949
0
LINE
8
BLACK
6
CONTINUOUS
10
121.1464469999999949
20
-76.1464469999999949
11
122.1464469999999949
21
-75.1464459999999974
0
LINE
8
BLACK
6
CONTINUOUS
10
122.1464469999999949
20
-75.1464459999999974
11
122.1956109999999995
21
-75.1033299999999997
0
LINE
8
BLACK
6
CONTINUOUS
10
122.1956109999999995
20
-75.1033299999999997
11
122.1956189999999935
21
-75.1033230000000032
0
LINE
8
BLACK
6
CONTINUOUS
10
122.1956189999999935
20
-75.1033230000000032
11
122.3086579999999941
21
-75.0380600000000015
0
LINE
8
BLACK
6
CONTINUOUS
10
122.3086579999999941
20
-75.0380600000000015
11
122.3353010000000012
21
-75.0309199999999947
0
LINE
8
BLACK
6
CONTINUOUS
10
122.3353010000000012
20
-75.0309199999999947
11
122.4347369999999984
21
-75.0042770000000019
0
LINE
8
BLACK
6
CONTINUOUS
10
122.4347369999999984
20
-75.0042770000000019
11
122.4347519999999889
21
-75.0042770000000019
0
LINE
8
BLACK
6
CONTINUOUS
10
122.4347519999999889
20
-75.0042770000000019
11
122.5
21
-75.
0
LINE
8
BLACK
6
CONTINUOUS
10
122.5
20
-75.
11
142.5
21
-75.
0
LINE
8
BLACK
6
CONTINUOUS
10
142.5
20
-75.
11
142.5652479999999969
21
-75.0042770000000019
  0
ENDSEC
  0
EOF
